# Blender v2.79 (sub 0) OBJ File: 'Apple.blend'
# www.blender.org
mtllib Apple.mtl
o Sphere
v 0.000000 1.757858 -0.195090
v 0.000000 1.565538 -0.831470
v 0.000000 0.814877 -0.980785
v 0.000000 0.178498 -0.555570
v 0.137950 1.757858 -0.137950
v 0.587938 1.565538 -0.587938
v 0.693520 0.814877 -0.693520
v 0.392848 0.178498 -0.392847
v 0.195091 1.757858 0.000000
v 0.831470 1.565538 0.000000
v 0.980785 0.814877 0.000000
v 0.555570 0.178498 0.000000
v 0.137950 1.757858 0.137950
v 0.587938 1.565538 0.587938
v 0.693520 0.814877 0.693520
v 0.392848 0.178498 0.392848
v 0.000000 0.009968 0.000000
v -0.000000 1.757858 0.195091
v -0.000000 1.565538 0.831470
v -0.000000 0.814877 0.980785
v -0.000000 0.178498 0.555570
v -0.000000 1.777072 0.000001
v -0.137950 1.757858 0.137950
v -0.587938 1.565538 0.587938
v -0.693520 0.814877 0.693520
v -0.392847 0.178498 0.392848
v -0.195090 1.757858 0.000000
v -0.831469 1.565538 0.000000
v -0.980785 0.814877 0.000000
v -0.555570 0.178498 0.000000
v -0.137950 1.757858 -0.137949
v -0.587937 1.565538 -0.587937
v -0.693519 0.814877 -0.693519
v -0.392847 0.178498 -0.392847
v -0.145658 2.179245 0.000000
v 0.164447 2.019743 0.000000
v 0.164447 2.356464 0.000000
v 0.474551 2.179245 0.000000
v -0.313295 2.396455 -0.160331
v -0.313295 2.396455 0.159972
v 0.007008 2.396455 -0.160331
v -0.000560 1.751833 -0.000350
v 0.007008 2.396455 0.159972
vt 0.000000 0.000000
vt 1.000000 0.000000
vt 1.000000 1.000000
vt 0.000000 0.000000
vt 1.000000 0.000000
vt 1.000000 1.000000
vt 0.000000 0.000000
vt 1.000000 1.000000
vt 0.000000 0.000000
vt 1.000000 0.000000
vt 1.000000 1.000000
vt 1.000000 0.000000
vt 1.000000 1.000000
vt 0.000000 0.000000
vt 1.000000 0.000000
vt 1.000000 1.000000
vt 1.000000 0.000000
vt 1.000000 1.000000
vt 1.000000 0.000000
vt 1.000000 0.000000
vt 0.000000 0.000000
vt 1.000000 0.000000
vt 0.000000 0.000000
vt 1.000000 0.000000
vt 1.000000 1.000000
vt 0.000000 0.000000
vt 1.000000 0.000000
vt 1.000000 1.000000
vt 1.000000 0.000000
vt 1.000000 1.000000
vt 0.000000 0.000000
vt 1.000000 0.000000
vt 1.000000 1.000000
vt 1.000000 0.000000
vt 1.000000 1.000000
vt 0.000000 0.000000
vt 1.000000 0.000000
vt 1.000000 1.000000
vt 0.000000 0.000000
vt 1.000000 0.000000
vt 0.000000 0.000000
vt 1.000000 0.000000
vt 1.000000 1.000000
vt 1.000000 0.000000
vt 1.000000 1.000000
vt 1.000000 0.000000
vt 0.000000 0.000000
vt 1.000000 0.000000
vt 0.000000 0.000000
vt 1.000000 1.000000
vt 1.000000 0.000000
vt 1.000000 1.000000
vt 0.000000 0.000000
vt 1.000000 0.000000
vt 1.000000 0.000000
vt 1.000000 1.000000
vt 1.000000 0.000000
vt 0.000000 0.000000
vt 0.000000 0.000000
vt 1.000000 0.000000
vt 1.000000 0.000000
vt 1.000000 1.000000
vt 1.000000 0.000000
vt 1.000000 1.000000
vt 1.000000 1.000000
vt 1.000000 0.000000
vt 1.000000 1.000000
vt 1.000000 0.000000
vt 0.000000 0.000000
vt 1.000000 1.000000
vt 1.000000 1.000000
vt 1.000000 0.000000
vt 1.000000 1.000000
vt 1.000000 1.000000
vt 1.000000 0.000000
vt 0.000000 0.000000
vt 1.000000 0.000000
vt 0.000000 0.000000
vt 1.000000 1.000000
vt 1.000000 1.000000
vt 0.632257 0.000074
vt 0.353051 0.542909
vt 0.000074 0.000074
vt 0.999926 0.514346
vt 0.000000 0.000000
vt 1.000000 0.000000
vt 1.000000 1.000000
vt 0.000000 0.000000
vt 1.000000 0.000000
vt 1.000000 1.000000
vt 1.000000 0.000000
vt 1.000000 1.000000
vt 0.000000 0.000000
vt 1.000000 0.000000
vt 0.000000 0.000000
vn -0.1190 0.9504 -0.2872
vn 0.9087 0.1807 0.3764
vn 0.3764 0.1807 -0.9087
vn 0.9087 0.1807 -0.3764
vn 0.1190 0.9504 -0.2872
vn 0.0406 0.9944 0.0979
vn 0.0979 0.9944 -0.0406
vn 0.7862 -0.5253 -0.3256
vn -0.1190 0.9504 0.2872
vn 0.1194 -0.9501 -0.2882
vn 0.2872 0.9504 0.1190
vn 0.3764 0.1807 0.9087
vn -0.2872 0.9504 0.1190
vn 0.7862 -0.5253 0.3256
vn -0.3764 0.1807 0.9087
vn 0.3256 -0.5253 0.7862
vn -0.9087 0.1807 0.3764
vn 0.3256 -0.5253 -0.7862
vn -0.2872 0.9504 -0.1190
vn -0.3256 -0.5253 0.7862
vn 0.2882 -0.9501 0.1194
vn -0.0406 0.9944 0.0979
vn -0.1194 -0.9501 -0.2882
vn -0.9087 0.1807 -0.3764
vn 0.1190 0.9504 0.2872
vn -0.3764 0.1807 -0.9087
vn -0.7862 -0.5253 0.3256
vn 0.2872 0.9504 -0.1190
vn 0.1194 -0.9501 0.2882
vn -0.0979 0.9944 0.0406
vn -0.3256 -0.5253 -0.7862
vn -0.7862 -0.5253 -0.3256
vn -0.0406 0.9944 -0.0979
vn -0.1194 -0.9501 0.2882
vn -0.0979 0.9944 -0.0406
vn -0.2882 -0.9501 0.1194
vn -0.2882 -0.9501 -0.1194
vn 0.0406 0.9944 -0.0979
vn 0.2882 -0.9501 -0.1194
vn 0.0979 0.9944 0.0406
vn -0.0000 -0.0000 1.0000
vn 0.0000 1.0000 0.0000
vn -0.8997 -0.4365 0.0000
vn 0.9999 -0.0117 0.0000
vn 0.0000 -0.2414 0.9704
vn 0.0000 -0.2409 -0.9706
usemtl Material.001
s off
f 1/1/1 2/2/1 32/3/1
f 10/4/2 15/5/2 11/6/2
f 7/7/3 2/2/3 6/8/3
f 6/9/4 11/10/4 7/11/4
f 6/9/5 1/12/5 5/13/5
f 22/14/6 18/15/6 13/16/6
f 1/1/1 32/17/1 31/18/1
f 6/9/4 10/19/4 11/6/4
f 22/14/7 9/20/7 5/13/7
f 12/21/8 7/22/8 11/6/8
f 19/23/9 23/24/9 24/25/9
f 4/26/10 8/27/10 17/28/10
f 10/4/11 13/29/11 14/30/11
f 14/31/12 19/32/12 20/33/12
f 14/31/12 20/34/12 15/35/12
f 24/36/13 27/37/13 28/38/13
f 16/39/14 11/10/14 15/35/14
f 19/23/15 25/40/15 20/33/15
f 15/41/16 21/42/16 16/43/16
f 24/36/17 29/44/17 25/45/17
f 4/26/18 3/46/18 7/11/18
f 28/47/19 31/48/19 32/3/19
f 21/49/20 25/40/20 26/50/20
f 12/21/21 16/51/21 17/28/21
f 22/14/22 23/24/22 18/52/22
f 34/53/23 4/54/23 17/28/23
f 28/47/24 33/55/24 29/56/24
f 19/23/25 14/57/25 13/16/25
f 3/58/26 33/55/26 32/3/26
f 25/59/27 30/60/27 26/50/27
f 10/4/28 6/61/28 5/13/28
f 16/39/29 21/42/29 17/28/29
f 22/14/30 27/37/30 23/62/30
f 4/26/31 34/63/31 33/64/31
f 25/59/27 29/44/27 30/65/27
f 34/53/32 29/44/32 33/64/32
f 34/53/32 30/60/32 29/56/32
f 22/14/33 1/12/33 31/18/33
f 10/4/2 14/57/2 15/35/2
f 21/49/34 26/66/34 17/28/34
f 22/14/35 31/48/35 27/67/35
f 21/49/20 20/34/20 25/45/20
f 10/4/11 9/20/11 13/16/11
f 28/47/24 32/17/24 33/64/24
f 28/47/19 27/37/19 31/18/19
f 19/23/15 24/68/15 25/45/15
f 24/36/13 23/24/13 27/67/13
f 26/69/36 30/60/36 17/28/36
f 4/26/31 33/55/31 3/70/31
f 7/7/3 3/46/3 2/71/3
f 24/36/17 28/72/17 29/56/17
f 6/9/5 2/2/5 1/73/5
f 15/41/16 20/34/16 21/74/16
f 16/39/14 12/75/14 11/6/14
f 30/76/37 34/63/37 17/28/37
f 3/58/26 32/17/26 2/71/26
f 19/23/25 13/29/25 18/52/25
f 12/21/8 8/27/8 7/11/8
f 22/14/38 5/77/38 1/73/38
f 8/78/39 12/75/39 17/28/39
f 10/4/28 5/77/28 9/79/28
f 19/23/9 18/15/9 23/62/9
f 4/26/18 7/22/18 8/80/18
f 22/14/40 13/29/40 9/79/40
usemtl Material.003
f 36/81/41 37/82/41 35/83/41
f 36/81/41 38/84/41 37/82/41
usemtl Material.002
f 39/85/42 43/86/42 41/87/42
f 42/88/43 40/89/43 39/90/43
f 42/88/44 41/91/44 43/92/44
f 40/93/45 42/94/45 43/92/45
f 41/95/46 42/94/46 39/90/46
f 39/85/42 40/89/42 43/92/42
