# Blender v2.79 (sub 0) OBJ File: 'BlueWallMid.blend'
# www.blender.org
mtllib BlueWallMid.mtl
o Cube
v -6.678980 0.000000 63.404854
v -56.307369 0.000000 44.831577
v 41.990902 0.000000 -23.997602
v 42.470142 0.000000 28.990271
v -6.678998 30.000004 63.404854
v -56.307365 30.000004 44.831551
v 41.990910 30.000004 -23.997606
v 42.470154 30.000004 28.990263
v -2.906124 0.000000 47.871685
v 26.583359 0.000000 27.222942
v -52.065453 0.000000 9.046931
v 6.913513 0.000000 -32.250576
v -2.906138 30.000004 47.871685
v 26.583355 30.000004 27.222933
v -52.065445 30.000004 9.046906
v 6.913527 30.000004 -32.250576
vt 0.000000 0.000000
vt 1.000000 0.000000
vt 1.000000 1.000000
vt 0.000000 0.000000
vt 1.000000 0.000000
vt 1.000000 1.000000
vt 0.000000 0.000000
vt 1.000000 0.000000
vt 1.000000 1.000000
vt 0.000000 0.000000
vt 1.000000 1.000000
vt 0.000000 0.000000
vt 1.000000 0.000000
vt 1.000000 1.000000
vt 1.000000 0.000000
vt 1.000000 1.000000
vt 0.000000 0.000000
vt 1.000000 0.000000
vt 1.000000 1.000000
vt 0.000000 0.000000
vt 1.000000 0.000000
vt 1.000000 1.000000
vt 0.000000 0.000000
vt 1.000000 0.000000
vt 0.000000 0.000000
vt 1.000000 0.000000
vt 0.000000 0.000000
vt 1.000000 0.000000
vt 0.000000 0.000000
vt 1.000000 0.000000
vt 1.000000 0.000000
vt 1.000000 0.000000
vt 1.000000 1.000000
vt 1.000000 1.000000
vt 1.000000 1.000000
vt 1.000000 1.000000
vt 1.000000 1.000000
vt 1.000000 1.000000
vt 1.000000 1.000000
vt 1.000000 1.000000
vn 0.0000 -1.0000 0.0000
vn 0.0000 1.0000 0.0000
vn -0.3505 -0.0000 0.9366
vn 0.2290 -0.0000 -0.9734
vn 1.0000 0.0000 -0.0090
vn -0.1106 0.0000 0.9939
vn 0.9717 0.0000 0.2360
vn -0.9930 0.0000 -0.1177
vn -0.5736 0.0000 -0.8192
vn 0.5736 0.0000 0.8192
usemtl Material
s off
f 10/1/1 3/2/1 4/3/1
f 14/4/2 7/5/2 16/6/2
f 5/7/3 2/8/3 1/9/3
f 16/10/4 3/2/4 12/11/4
f 7/12/5 4/13/5 3/14/5
f 10/1/6 8/15/6 14/16/6
f 1/17/7 13/18/7 5/19/7
f 6/20/8 11/21/8 2/22/8
f 13/23/2 6/24/2 5/19/2
f 12/25/9 15/26/9 16/6/9
f 10/1/1 11/21/1 12/11/1
f 2/27/1 9/28/1 1/9/1
f 15/29/2 14/30/2 16/6/2
f 13/23/10 10/31/10 14/16/10
f 10/1/1 12/32/1 3/14/1
f 14/4/2 8/15/2 7/33/2
f 5/7/3 6/24/3 2/22/3
f 16/10/4 7/5/4 3/14/4
f 7/12/5 8/15/5 4/3/5
f 10/1/6 4/13/6 8/34/6
f 1/17/7 9/28/7 13/35/7
f 6/20/8 15/26/8 11/36/8
f 13/23/2 15/26/2 6/37/2
f 12/25/9 11/21/9 15/38/9
f 10/1/1 9/28/1 11/36/1
f 2/27/1 11/21/1 9/39/1
f 15/29/2 13/18/2 14/16/2
f 13/23/10 9/28/10 10/40/10
