# Blender v2.79 (sub 0) OBJ File: 'BlueWallBot.blend'
# www.blender.org
mtllib BlueWallBot.mtl
o Cube
v -21.750486 -0.999996 20.202362
v -21.451241 -0.999996 -40.315933
v 30.510279 -0.999996 -10.315922
v 4.230259 -0.999996 35.202370
v -21.750492 21.500004 20.202343
v -21.451214 21.500004 -40.315937
v 30.510288 21.500004 -10.315923
v 4.230270 21.500004 35.202366
v -14.994337 -0.999996 20.500360
v 0.594114 -0.999996 29.500364
v -5.778940 -0.999996 -43.461163
v 25.397976 -0.999996 -25.461155
v -14.994337 21.500004 20.500345
v 0.594121 21.500004 29.500359
v -5.778913 21.500004 -43.461159
v 25.397984 21.500004 -25.461145
vt 0.941641 0.269216
vt 0.709108 0.240996
vt 0.956315 0.240996
vt 0.479356 0.283323
vt 0.758340 0.654995
vt 0.710568 0.796298
vt 0.359919 0.238852
vt 0.075277 0.000096
vt 0.359919 0.000095
vt 0.830584 0.238852
vt 0.755402 0.000095
vt 0.830584 0.000096
vt 0.508194 0.238852
vt 0.508194 0.000095
vt 0.476387 0.000095
vt 0.476387 0.238852
vt 0.391727 0.238852
vt 0.075277 0.238852
vt 0.000095 0.000096
vt 0.999904 0.238852
vt 0.333855 0.367237
vt 0.273337 0.934707
vt 0.270810 0.369988
vt 0.659440 0.297436
vt 0.941641 0.353876
vt 0.659440 0.466757
vt 0.709108 0.523197
vt 0.956315 0.382097
vt 0.513312 0.230132
vt 0.755402 0.238852
vt 0.391727 0.000095
vt 0.000095 0.238852
vt 0.999905 0.000095
vt 0.419566 0.964125
vn 0.0000 -1.0000 0.0000
vn 0.0000 1.0000 -0.0000
vn -1.0000 -0.0000 -0.0049
vn 0.9475 -0.0000 -0.3198
vn 0.8660 -0.0000 0.5000
vn -0.8432 0.0000 0.5377
vn -0.0441 0.0000 0.9990
vn -0.1968 0.0000 -0.9805
vn 0.5000 0.0000 -0.8660
vn -0.5000 0.0000 0.8660
usemtl Material.002
s off
f 10/1/1 3/2/1 4/3/1
f 14/4/2 7/5/2 16/6/2
f 5/7/3 2/8/3 1/9/3
f 16/10/4 3/11/4 12/12/4
f 3/11/5 8/13/5 4/14/5
f 10/15/6 8/13/6 14/16/6
f 1/9/7 13/17/7 5/7/7
f 6/18/8 11/19/8 2/8/8
f 12/12/9 15/20/9 16/10/9
f 13/21/2 6/22/2 5/23/2
f 12/24/1 9/25/1 11/26/1
f 16/6/2 13/21/2 14/4/2
f 13/17/10 10/15/10 14/16/10
f 2/27/1 9/25/1 1/28/1
f 10/1/1 12/24/1 3/2/1
f 14/4/2 8/29/2 7/5/2
f 5/7/3 6/18/3 2/8/3
f 16/10/4 7/30/4 3/11/4
f 3/11/5 7/30/5 8/13/5
f 10/15/6 4/14/6 8/13/6
f 1/9/7 9/31/7 13/17/7
f 6/18/8 15/32/8 11/19/8
f 12/12/9 11/33/9 15/20/9
f 13/21/2 15/34/2 6/22/2
f 12/24/1 10/1/1 9/25/1
f 16/6/2 15/34/2 13/21/2
f 13/17/10 9/31/10 10/15/10
f 2/27/1 11/26/1 9/25/1
