# Blender v2.79 (sub 0) OBJ File: 'BlueWallMid.blend'
# www.blender.org
mtllib BlueWallMid.mtl
o Cube
v 0.086040 -1.000000 59.496384
v -44.438961 -1.000000 30.765444
v 66.277740 -1.000000 -15.514299
v 55.444374 -1.000000 36.356518
v 0.086022 21.500002 59.496380
v -44.438953 21.500002 30.765419
v 66.277748 21.500002 -15.514301
v 55.444386 21.500002 36.356514
v 7.085090 -1.000000 45.125340
v 40.300098 -1.000000 31.241428
v -32.662285 -1.000000 -3.291043
v 33.767735 -1.000000 -31.058887
v 7.085075 21.500002 45.125336
v 40.300095 21.500002 31.241419
v -32.662277 21.500002 -3.291065
v 33.767750 21.500002 -31.058887
vt 0.546051 0.954452
vt 0.678095 0.850326
vt 0.583778 0.987652
vt 0.606135 0.393497
vt 0.939867 0.596918
vt 0.749163 0.762012
vt 0.279975 0.237024
vt 0.113380 0.000089
vt 0.279975 0.000089
vt 0.773551 0.237024
vt 0.660260 0.000089
vt 0.773551 0.000089
vt 0.660260 0.237024
vt 0.493664 0.000089
vt 0.443410 0.000089
vt 0.493665 0.237024
vt 0.443410 0.237024
vt 0.330230 0.237024
vt 0.113380 0.237024
vt 0.000089 0.000089
vt 0.320079 0.393497
vt -0.013652 0.596918
vt 0.224727 0.328639
vt 0.999911 0.237024
vt 0.376280 0.765818
vt 0.602641 0.765818
vt 0.300827 0.850326
vt 0.432870 0.954452
vt 0.395144 0.987652
vt 0.177052 0.762012
vt 0.701487 0.328639
vt 0.330230 0.000089
vt 0.000089 0.237024
vt 0.999911 0.000089
vn 0.0000 -1.0000 0.0000
vn 0.0000 1.0000 0.0000
vn -0.5422 -0.0000 0.8403
vn 0.4314 -0.0000 -0.9022
vn 0.9789 0.0000 0.2044
vn -0.3200 0.0000 0.9474
vn 0.8990 0.0000 0.4379
vn -0.9451 0.0000 -0.3268
vn -0.3857 0.0000 -0.9226
vn 0.3857 0.0000 0.9226
usemtl Material
s off
f 10/1/1 3/2/1 4/3/1
f 14/4/2 7/5/2 16/6/2
f 5/7/3 2/8/3 1/9/3
f 16/10/4 3/11/4 12/12/4
f 7/13/5 4/14/5 3/11/5
f 10/15/6 8/16/6 14/17/6
f 1/9/7 13/18/7 5/7/7
f 6/19/8 11/20/8 2/8/8
f 13/21/2 6/22/2 5/23/2
f 12/12/9 15/24/9 16/10/9
f 10/1/1 11/25/1 12/26/1
f 2/27/1 9/28/1 1/29/1
f 15/30/2 14/4/2 16/6/2
f 13/18/10 10/15/10 14/17/10
f 10/1/1 12/26/1 3/2/1
f 14/4/2 8/31/2 7/5/2
f 5/7/3 6/19/3 2/8/3
f 16/10/4 7/13/4 3/11/4
f 7/13/5 8/16/5 4/14/5
f 10/15/6 4/14/6 8/16/6
f 1/9/7 9/32/7 13/18/7
f 6/19/8 15/33/8 11/20/8
f 13/21/2 15/30/2 6/22/2
f 12/12/9 11/34/9 15/24/9
f 10/1/1 9/28/1 11/25/1
f 2/27/1 11/25/1 9/28/1
f 15/30/2 13/21/2 14/4/2
f 13/18/10 9/32/10 10/15/10
