# Blender v2.79 (sub 0) OBJ File: 'Broccoli.blend'
# www.blender.org
mtllib Broccoli.mtl
o Icosphere.002
v 0.848989 0.422405 0.000000
v 1.210792 0.698796 0.262863
v 0.710795 0.698795 0.425325
v 0.401776 0.698797 0.000000
v 0.710795 0.698795 -0.425324
v 1.210792 0.698796 -0.262862
v 0.987183 1.146015 0.425325
v 0.487185 1.146015 0.262863
v 0.487185 1.146015 -0.262862
v 0.987183 1.146015 -0.425324
v 1.296202 1.146013 0.000000
v 0.848989 1.422405 0.000000
v 0.767761 0.497078 0.249998
v 1.061650 0.497078 0.154506
v 0.980423 0.659536 0.404506
v 1.274313 0.659537 0.000000
v 1.061650 0.497078 -0.154506
v 0.586124 0.497079 0.000000
v 0.504894 0.659537 0.249999
v 0.767761 0.497078 -0.249997
v 0.504894 0.659537 -0.249998
v 0.980423 0.659536 -0.404506
v 1.324518 0.922405 0.154506
v 1.324518 0.922405 -0.154506
v 0.848989 0.922405 0.500000
v 1.142881 0.922405 0.404509
v 0.373460 0.922405 0.154506
v 0.555096 0.922405 0.404509
v 0.555096 0.922405 -0.404508
v 0.373460 0.922405 -0.154506
v 1.142881 0.922405 -0.404508
v 0.848989 0.922405 -0.500000
v 1.193083 1.185273 0.249999
v 0.717554 1.185274 0.404506
v 0.423665 1.185273 0.000000
v 0.717554 1.185274 -0.404506
v 1.193083 1.185273 -0.249998
v 0.930216 1.347733 0.249998
v 1.111854 1.347731 0.000000
v 0.636327 1.347732 0.154506
v 0.636327 1.347732 -0.154506
v 0.930216 1.347733 -0.249997
v -0.012304 0.588906 0.000000
v 0.447151 0.939895 0.333810
v -0.187797 0.939895 0.540121
v -0.580221 0.939898 0.000000
v -0.187797 0.939895 -0.540121
v 0.447151 0.939895 -0.333810
v 0.163189 1.507821 0.540121
v -0.471760 1.507820 0.333810
v -0.471760 1.507820 -0.333810
v 0.163189 1.507821 -0.540121
v 0.555613 1.507818 0.000000
v -0.012304 1.858809 0.000000
v -0.115456 0.683734 0.317473
v 0.257755 0.683734 0.196207
v 0.154605 0.890040 0.513683
v 0.527816 0.890041 0.000000
v 0.257755 0.683734 -0.196207
v -0.346117 0.683735 0.000000
v -0.449271 0.890041 0.317474
v -0.115456 0.683734 -0.317472
v -0.449271 0.890041 -0.317474
v 0.154605 0.890040 -0.513683
v 0.591571 1.223858 0.196208
v 0.591571 1.223858 -0.196208
v -0.012304 1.223858 0.634951
v 0.360911 1.223858 0.513686
v -0.616180 1.223858 0.196208
v -0.385519 1.223858 0.513686
v -0.385519 1.223858 -0.513686
v -0.616180 1.223858 -0.196208
v 0.360911 1.223858 -0.513686
v -0.012304 1.223858 -0.634951
v 0.424663 1.557675 0.317474
v -0.179213 1.557676 0.513683
v -0.552424 1.557674 0.000000
v -0.179213 1.557676 -0.513683
v 0.424663 1.557675 -0.317474
v 0.090847 1.763982 0.317473
v 0.321509 1.763980 0.000000
v -0.282363 1.763982 0.196207
v -0.282363 1.763982 -0.196207
v 0.090847 1.763982 -0.317472
v -0.861293 0.545447 0.000000
v -0.499489 0.821837 0.262863
v -0.999487 0.821837 0.425325
v -1.308506 0.821839 0.000000
v -0.999487 0.821837 -0.425324
v -0.499489 0.821837 -0.262862
v -0.723099 1.269057 0.425325
v -1.223097 1.269057 0.262863
v -1.223097 1.269057 -0.262862
v -0.723099 1.269057 -0.425324
v -0.414080 1.269055 0.000000
v -0.861293 1.545447 0.000000
v -0.942521 0.620120 0.249998
v -0.648632 0.620120 0.154506
v -0.729859 0.782578 0.404506
v -0.435969 0.782579 0.000000
v -0.648632 0.620120 -0.154506
v -1.124158 0.620121 0.000000
v -1.205388 0.782579 0.249999
v -0.942521 0.620120 -0.249997
v -1.205388 0.782579 -0.249998
v -0.729859 0.782578 -0.404506
v -0.385764 1.045447 0.154506
v -0.385764 1.045447 -0.154506
v -0.861293 1.045447 0.500000
v -0.567400 1.045447 0.404509
v -1.336822 1.045447 0.154506
v -1.155186 1.045447 0.404509
v -1.155186 1.045447 -0.404508
v -1.336822 1.045447 -0.154506
v -0.567400 1.045447 -0.404508
v -0.861293 1.045447 -0.500000
v -0.517198 1.308315 0.249999
v -0.992727 1.308316 0.404506
v -1.286617 1.308315 0.000000
v -0.992727 1.308316 -0.404506
v -0.517198 1.308315 -0.249998
v -0.780065 1.470774 0.249998
v -0.598428 1.470773 0.000000
v -1.073954 1.470774 0.154506
v -1.073954 1.470774 -0.154506
v -0.780065 1.470774 -0.249997
v 0.148722 -1.000000 -0.148722
v 0.148722 -1.000000 0.148722
v -0.148722 -1.000000 0.148722
v -0.148722 -1.000000 -0.148722
v 0.148722 1.000000 -0.148722
v 0.148722 1.000000 0.148722
v -0.148722 1.000000 0.148722
v -0.148722 1.000000 -0.148722
v 0.148722 0.500000 -0.148722
v 0.148722 0.500000 0.148722
v -0.148722 0.500000 0.148722
v -0.148722 0.500000 -0.148722
v 0.148722 0.172320 -0.148722
v 0.148722 0.172320 0.148722
v -0.148722 0.172320 0.148722
v -0.148722 0.172320 -0.148722
v -0.796966 1.004253 0.050643
v -0.796966 1.004253 -0.050643
v -0.905204 1.006145 0.050643
v -0.905204 1.006145 -0.050643
v 0.759960 0.963393 -0.053616
v 0.759960 0.963393 0.053616
v 0.865310 0.959852 -0.053616
v 0.865310 0.959852 0.053616
vt 0.000000 0.000000
vt 1.000000 0.000000
vt 1.000000 1.000000
vt 0.000000 0.000000
vt 1.000000 1.000000
vt 1.000000 0.000000
vt 1.000000 1.000000
vt 1.000000 0.000000
vt 1.000000 1.000000
vt 1.000000 0.000000
vt 1.000000 1.000000
vt 1.000000 0.000000
vt 1.000000 1.000000
vt 0.000000 0.000000
vt 1.000000 0.000000
vt 1.000000 1.000000
vt 0.000000 0.000000
vt 1.000000 0.000000
vt 1.000000 1.000000
vt 0.000000 0.000000
vt 1.000000 0.000000
vt 1.000000 1.000000
vt 0.000000 0.000000
vt 1.000000 0.000000
vt 1.000000 1.000000
vt 1.000000 0.000000
vt 1.000000 1.000000
vt 1.000000 0.000000
vt 1.000000 1.000000
vt 1.000000 0.000000
vt 1.000000 1.000000
vt 1.000000 0.000000
vt 1.000000 1.000000
vt 1.000000 0.000000
vt 1.000000 1.000000
vt 0.000000 0.000000
vt 1.000000 0.000000
vt 1.000000 1.000000
vt 0.000000 0.000000
vt 1.000000 0.000000
vt 1.000000 1.000000
vt 0.000000 0.000000
vt 1.000000 0.000000
vt 1.000000 1.000000
vt 0.000000 0.000000
vt 1.000000 0.000000
vt 1.000000 1.000000
vt 0.000000 0.000000
vt 1.000000 0.000000
vt 1.000000 1.000000
vt 0.000000 0.000000
vt 1.000000 0.000000
vt 1.000000 1.000000
vt 0.000000 0.000000
vt 1.000000 0.000000
vt 0.000000 0.000000
vt 1.000000 0.000000
vt 0.000000 0.000000
vt 1.000000 0.000000
vt 0.000000 0.000000
vt 1.000000 0.000000
vt 0.000000 0.000000
vt 1.000000 0.000000
vt 0.000000 0.000000
vt 1.000000 0.000000
vt 0.000000 0.000000
vt 1.000000 0.000000
vt 0.000000 0.000000
vt 1.000000 0.000000
vt 0.000000 0.000000
vt 1.000000 0.000000
vt 0.000000 0.000000
vt 1.000000 1.000000
vt 1.000000 1.000000
vt 0.000000 0.000000
vt 0.000000 0.000000
vt 1.000000 1.000000
vt 1.000000 1.000000
vt 0.000000 0.000000
vt 0.000000 0.000000
vt 1.000000 1.000000
vt 1.000000 1.000000
vt 0.000000 0.000000
vt 0.000000 0.000000
vt 1.000000 1.000000
vt 1.000000 1.000000
vt 0.000000 0.000000
vt 0.000000 0.000000
vt 1.000000 1.000000
vt 1.000000 1.000000
vt 0.000000 0.000000
vt 1.000000 0.000000
vt 0.000000 0.000000
vt 1.000000 0.000000
vt 1.000000 0.000000
vt 0.000000 0.000000
vt 1.000000 0.000000
vt 1.000000 0.000000
vt 0.000000 0.000000
vt 1.000000 0.000000
vt 1.000000 0.000000
vt 0.000000 0.000000
vt 1.000000 0.000000
vt 1.000000 0.000000
vt 0.000000 0.000000
vt 1.000000 0.000000
vt 0.000000 0.000000
vt 1.000000 1.000000
vt 1.000000 1.000000
vt 0.000000 0.000000
vt 1.000000 1.000000
vt 1.000000 1.000000
vt 0.000000 0.000000
vt 1.000000 1.000000
vt 1.000000 1.000000
vt 0.000000 0.000000
vt 1.000000 0.000000
vt 0.000000 0.000000
vt 1.000000 0.000000
vt 1.000000 1.000000
vt 1.000000 1.000000
vt 0.000000 0.000000
vt 1.000000 0.000000
vt 1.000000 1.000000
vt 0.000000 0.000000
vt 1.000000 1.000000
vt 1.000000 0.000000
vt 1.000000 1.000000
vt 1.000000 0.000000
vt 1.000000 1.000000
vt 1.000000 0.000000
vt 1.000000 1.000000
vt 1.000000 0.000000
vt 1.000000 1.000000
vt 0.000000 0.000000
vt 1.000000 0.000000
vt 1.000000 1.000000
vt 0.000000 0.000000
vt 1.000000 0.000000
vt 1.000000 1.000000
vt 0.000000 0.000000
vt 1.000000 0.000000
vt 1.000000 1.000000
vt 0.000000 0.000000
vt 1.000000 0.000000
vt 1.000000 1.000000
vt 1.000000 0.000000
vt 1.000000 1.000000
vt 1.000000 0.000000
vt 1.000000 1.000000
vt 1.000000 0.000000
vt 1.000000 1.000000
vt 1.000000 0.000000
vt 1.000000 1.000000
vt 1.000000 0.000000
vt 1.000000 1.000000
vt 0.000000 0.000000
vt 1.000000 0.000000
vt 1.000000 1.000000
vt 0.000000 0.000000
vt 1.000000 0.000000
vt 1.000000 1.000000
vt 0.000000 0.000000
vt 1.000000 0.000000
vt 1.000000 1.000000
vt 0.000000 0.000000
vt 1.000000 0.000000
vt 1.000000 1.000000
vt 0.000000 0.000000
vt 1.000000 0.000000
vt 1.000000 1.000000
vt 0.000000 0.000000
vt 1.000000 0.000000
vt 1.000000 1.000000
vt 0.000000 0.000000
vt 1.000000 0.000000
vt 0.000000 0.000000
vt 1.000000 0.000000
vt 0.000000 0.000000
vt 1.000000 0.000000
vt 0.000000 0.000000
vt 1.000000 0.000000
vt 0.000000 0.000000
vt 1.000000 0.000000
vt 0.000000 0.000000
vt 1.000000 0.000000
vt 0.000000 0.000000
vt 1.000000 0.000000
vt 0.000000 0.000000
vt 1.000000 0.000000
vt 0.000000 0.000000
vt 1.000000 0.000000
vt 0.000000 0.000000
vt 1.000000 1.000000
vt 1.000000 1.000000
vt 0.000000 0.000000
vt 0.000000 0.000000
vt 1.000000 1.000000
vt 1.000000 1.000000
vt 0.000000 0.000000
vt 0.000000 0.000000
vt 1.000000 1.000000
vt 1.000000 1.000000
vt 0.000000 0.000000
vt 0.000000 0.000000
vt 1.000000 1.000000
vt 1.000000 1.000000
vt 0.000000 0.000000
vt 0.000000 0.000000
vt 1.000000 1.000000
vt 1.000000 1.000000
vt 0.000000 0.000000
vt 1.000000 0.000000
vt 0.000000 0.000000
vt 1.000000 0.000000
vt 1.000000 0.000000
vt 0.000000 0.000000
vt 1.000000 0.000000
vt 1.000000 0.000000
vt 0.000000 0.000000
vt 1.000000 0.000000
vt 1.000000 0.000000
vt 0.000000 0.000000
vt 1.000000 0.000000
vt 1.000000 0.000000
vt 0.000000 0.000000
vt 1.000000 0.000000
vt 0.000000 0.000000
vt 1.000000 1.000000
vt 1.000000 1.000000
vt 0.000000 0.000000
vt 1.000000 1.000000
vt 1.000000 1.000000
vt 0.000000 0.000000
vt 1.000000 1.000000
vt 1.000000 1.000000
vt 0.000000 0.000000
vt 1.000000 0.000000
vt 0.000000 0.000000
vt 1.000000 0.000000
vt 1.000000 1.000000
vt 1.000000 1.000000
vt 0.000000 0.000000
vt 1.000000 0.000000
vt 1.000000 1.000000
vt 0.000000 0.000000
vt 1.000000 1.000000
vt 1.000000 0.000000
vt 1.000000 1.000000
vt 1.000000 0.000000
vt 1.000000 1.000000
vt 1.000000 0.000000
vt 1.000000 1.000000
vt 1.000000 0.000000
vt 1.000000 1.000000
vt 0.000000 0.000000
vt 1.000000 0.000000
vt 1.000000 1.000000
vt 0.000000 0.000000
vt 1.000000 0.000000
vt 1.000000 1.000000
vt 0.000000 0.000000
vt 1.000000 0.000000
vt 1.000000 1.000000
vt 0.000000 0.000000
vt 1.000000 0.000000
vt 1.000000 1.000000
vt 1.000000 0.000000
vt 1.000000 1.000000
vt 1.000000 0.000000
vt 1.000000 1.000000
vt 1.000000 0.000000
vt 1.000000 1.000000
vt 1.000000 0.000000
vt 1.000000 1.000000
vt 1.000000 0.000000
vt 1.000000 1.000000
vt 0.000000 0.000000
vt 1.000000 0.000000
vt 1.000000 1.000000
vt 0.000000 0.000000
vt 1.000000 0.000000
vt 1.000000 1.000000
vt 0.000000 0.000000
vt 1.000000 0.000000
vt 1.000000 1.000000
vt 0.000000 0.000000
vt 1.000000 0.000000
vt 1.000000 1.000000
vt 0.000000 0.000000
vt 1.000000 0.000000
vt 1.000000 1.000000
vt 0.000000 0.000000
vt 1.000000 0.000000
vt 1.000000 1.000000
vt 0.000000 0.000000
vt 1.000000 0.000000
vt 0.000000 0.000000
vt 1.000000 0.000000
vt 0.000000 0.000000
vt 1.000000 0.000000
vt 0.000000 0.000000
vt 1.000000 0.000000
vt 0.000000 0.000000
vt 1.000000 0.000000
vt 0.000000 0.000000
vt 1.000000 0.000000
vt 0.000000 0.000000
vt 1.000000 0.000000
vt 0.000000 0.000000
vt 1.000000 0.000000
vt 0.000000 0.000000
vt 1.000000 0.000000
vt 0.000000 0.000000
vt 1.000000 1.000000
vt 1.000000 1.000000
vt 0.000000 0.000000
vt 0.000000 0.000000
vt 1.000000 1.000000
vt 1.000000 1.000000
vt 0.000000 0.000000
vt 0.000000 0.000000
vt 1.000000 1.000000
vt 1.000000 1.000000
vt 0.000000 0.000000
vt 0.000000 0.000000
vt 1.000000 1.000000
vt 1.000000 1.000000
vt 0.000000 0.000000
vt 0.000000 0.000000
vt 1.000000 1.000000
vt 1.000000 1.000000
vt 0.000000 0.000000
vt 1.000000 0.000000
vt 0.000000 0.000000
vt 1.000000 0.000000
vt 1.000000 0.000000
vt 0.000000 0.000000
vt 1.000000 0.000000
vt 1.000000 0.000000
vt 0.000000 0.000000
vt 1.000000 0.000000
vt 1.000000 0.000000
vt 0.000000 0.000000
vt 1.000000 0.000000
vt 1.000000 0.000000
vt 0.000000 0.000000
vt 1.000000 0.000000
vt 0.000000 0.000000
vt 1.000000 1.000000
vt 1.000000 1.000000
vt 0.000000 0.000000
vt 1.000000 1.000000
vt 1.000000 1.000000
vt 0.000000 0.000000
vt 1.000000 1.000000
vt 1.000000 1.000000
vt 0.000000 0.000000
vt 1.000000 0.000000
vt 0.000000 0.000000
vt 1.000000 0.000000
vt 1.000000 1.000000
vt 1.000000 1.000000
vt 0.019814 0.050265
vt 0.020932 0.083159
vt 0.000045 0.000045
vt 0.064379 0.295440
vt 0.030617 0.286896
vt 0.054013 0.271210
vt 0.013704 0.172483
vt 0.041992 0.174744
vt 0.034705 0.318418
vt 0.062527 0.306129
vt 0.046311 0.300980
vt 0.030617 0.068367
vt 0.055013 0.209179
vt 0.142656 0.888244
vt 0.189628 0.999955
vt 0.030312 0.098133
vt 0.032372 0.194786
vt 0.034537 0.197823
vt 0.205525 0.926213
vt 0.179403 0.846780
vt 0.029278 0.257266
vt 0.035862 0.197481
vt 0.014196 0.114152
vt 0.035878 0.195414
vn 0.1024 -0.9435 0.3151
vn 0.7002 -0.6617 0.2680
vn -0.2680 -0.9435 0.1947
vn -0.2680 -0.9435 -0.1947
vn 0.1024 -0.9435 -0.3151
vn 0.9050 -0.3304 0.2680
vn 0.0247 -0.3304 0.9435
vn -0.8897 -0.3304 0.3151
vn -0.5746 -0.3304 -0.7488
vn 0.5346 -0.3304 -0.7779
vn 0.8026 -0.1256 0.5831
vn -0.3066 -0.1256 0.9435
vn -0.9921 -0.1256 0.0000
vn -0.3066 -0.1256 -0.9435
vn 0.8026 -0.1256 -0.5831
vn 0.4089 0.6617 0.6284
vn -0.4713 0.6617 0.5831
vn -0.7002 0.6617 -0.2680
vn 0.0385 0.6617 -0.7488
vn 0.7240 0.6617 -0.1947
vn 0.2680 0.9435 -0.1947
vn 0.4911 0.7947 -0.3568
vn 0.4089 0.6617 -0.6284
vn -0.1024 0.9435 -0.3151
vn -0.1876 0.7947 -0.5773
vn -0.4713 0.6617 -0.5831
vn -0.3313 0.9435 0.0000
vn -0.6071 0.7947 0.0000
vn -0.7002 0.6617 0.2680
vn -0.1024 0.9435 0.3151
vn -0.1876 0.7947 0.5773
vn 0.0385 0.6617 0.7488
vn 0.2680 0.9435 0.1947
vn 0.4911 0.7947 0.3568
vn 0.7240 0.6617 0.1947
vn 0.8897 0.3304 -0.3151
vn 0.7947 0.1876 -0.5773
vn 0.5746 0.3304 -0.7488
vn -0.0247 0.3304 -0.9435
vn -0.3035 0.1876 -0.9342
vn -0.5346 0.3304 -0.7779
vn -0.9050 0.3304 -0.2680
vn -0.9822 0.1876 0.0000
vn -0.9050 0.3304 0.2680
vn -0.5346 0.3304 0.7779
vn -0.3035 0.1876 0.9342
vn -0.0247 0.3304 0.9435
vn 0.5746 0.3304 0.7488
vn 0.7947 0.1876 0.5773
vn 0.8897 0.3304 0.3151
vn 0.3066 0.1256 -0.9435
vn 0.3035 -0.1876 -0.9342
vn 0.0247 -0.3304 -0.9435
vn -0.8026 0.1256 -0.5831
vn -0.7947 -0.1876 -0.5773
vn -0.8897 -0.3304 -0.3151
vn -0.8026 0.1256 0.5831
vn -0.7947 -0.1876 0.5773
vn -0.5746 -0.3304 0.7488
vn 0.3066 0.1256 0.9435
vn 0.3035 -0.1876 0.9342
vn 0.5346 -0.3304 0.7779
vn 0.9921 0.1256 0.0000
vn 0.9822 -0.1876 0.0000
vn 0.9050 -0.3304 -0.2680
vn 0.4713 -0.6617 -0.5831
vn 0.1876 -0.7947 -0.5773
vn -0.0385 -0.6617 -0.7488
vn -0.4089 -0.6617 -0.6284
vn -0.4911 -0.7947 -0.3568
vn -0.7240 -0.6617 -0.1947
vn -0.7240 -0.6617 0.1947
vn -0.4911 -0.7947 0.3568
vn -0.4089 -0.6617 0.6284
vn 0.7002 -0.6617 -0.2680
vn 0.6071 -0.7947 0.0000
vn 0.3313 -0.9435 0.0000
vn -0.0385 -0.6617 0.7488
vn 0.1876 -0.7947 0.5773
vn 0.4713 -0.6617 0.5831
vn 0.0000 -1.0000 0.0000
vn 0.0000 1.0000 0.0000
vn 1.0000 0.0000 0.0000
vn -1.0000 0.0000 -0.0000
vn 0.0000 0.0000 1.0000
vn 0.0000 0.0000 -1.0000
vn 0.0021 0.1187 0.9929
vn 0.0039 0.1164 -0.9932
vn 0.0175 0.9998 0.0000
vn 0.6140 0.7893 0.0000
vn -0.1496 0.0000 -0.9887
vn -0.7406 -0.6719 -0.0000
vn 0.0336 0.9994 0.0000
vn -0.6041 0.7969 -0.0000
vn 0.1537 0.0000 0.9881
vn 0.7396 -0.6730 0.0000
vn -0.1496 -0.0000 0.9887
vn 0.1537 0.0000 -0.9881
vn 0.0021 0.1187 -0.9929
vn 0.0039 0.1164 0.9932
usemtl Material.001
s off
f 1/1/1 14/2/1 13/3/1
f 2/4/2 14/2/2 16/5/2
f 1/1/3 13/6/3 18/7/3
f 1/1/4 18/8/4 20/9/4
f 1/1/5 20/10/5 17/11/5
f 2/4/6 16/12/6 23/13/6
f 3/14/7 15/15/7 25/16/7
f 4/17/8 19/18/8 27/19/8
f 5/20/9 21/21/9 29/22/9
f 6/23/10 22/24/10 31/25/10
f 2/4/11 23/26/11 26/27/11
f 3/14/12 25/28/12 28/29/12
f 4/17/13 27/30/13 30/31/13
f 5/20/14 29/32/14 32/33/14
f 6/23/15 31/34/15 24/35/15
f 7/36/16 33/37/16 38/38/16
f 8/39/17 34/40/17 40/41/17
f 9/42/18 35/43/18 41/44/18
f 10/45/19 36/46/19 42/47/19
f 11/48/20 37/49/20 39/50/20
f 39/51/21 42/52/21 12/53/21
f 39/51/22 37/49/22 42/47/22
f 37/54/23 10/55/23 42/47/23
f 42/56/24 41/57/24 12/53/24
f 42/56/25 36/46/25 41/44/25
f 36/58/26 9/59/26 41/44/26
f 41/60/27 40/61/27 12/53/27
f 41/60/28 35/43/28 40/41/28
f 35/62/29 8/63/29 40/41/29
f 40/64/30 38/65/30 12/53/30
f 40/64/31 34/40/31 38/38/31
f 34/66/32 7/67/32 38/38/32
f 38/68/33 39/69/33 12/53/33
f 38/68/34 33/37/34 39/50/34
f 33/70/35 11/71/35 39/50/35
f 24/72/36 37/49/36 11/73/36
f 24/72/37 31/34/37 37/74/37
f 31/75/38 10/55/38 37/74/38
f 32/76/39 36/46/39 10/77/39
f 32/76/40 29/32/40 36/78/40
f 29/79/41 9/59/41 36/78/41
f 30/80/42 35/43/42 9/81/42
f 30/80/43 27/30/43 35/82/43
f 27/83/44 8/63/44 35/82/44
f 28/84/45 34/40/45 8/85/45
f 28/84/46 25/28/46 34/86/46
f 25/87/47 7/67/47 34/86/47
f 26/88/48 33/37/48 7/89/48
f 26/88/49 23/26/49 33/90/49
f 23/91/50 11/71/50 33/90/50
f 31/75/51 32/92/51 10/77/51
f 31/75/52 22/24/52 32/33/52
f 22/93/53 5/94/53 32/33/53
f 29/79/54 30/95/54 9/81/54
f 29/79/55 21/21/55 30/31/55
f 21/96/56 4/97/56 30/31/56
f 27/83/57 28/98/57 8/85/57
f 27/83/58 19/18/58 28/29/58
f 19/99/59 3/100/59 28/29/59
f 25/87/60 26/101/60 7/89/60
f 25/87/61 15/15/61 26/27/61
f 15/102/62 2/103/62 26/27/62
f 23/91/63 24/104/63 11/73/63
f 23/91/64 16/12/64 24/35/64
f 16/105/65 6/106/65 24/35/65
f 17/107/66 22/24/66 6/108/66
f 17/107/67 20/10/67 22/109/67
f 20/110/68 5/94/68 22/109/68
f 20/110/69 21/21/69 5/111/69
f 20/110/70 18/8/70 21/112/70
f 18/113/71 4/97/71 21/112/71
f 18/113/72 19/18/72 4/114/72
f 18/113/73 13/6/73 19/115/73
f 13/116/74 3/100/74 19/115/74
f 16/105/75 17/117/75 6/108/75
f 16/105/76 14/2/76 17/11/76
f 14/118/77 1/119/77 17/11/77
f 13/116/78 15/15/78 3/120/78
f 13/116/79 14/2/79 15/121/79
f 14/118/80 2/103/80 15/121/80
f 43/122/1 56/123/1 55/124/1
f 44/125/2 56/123/2 58/126/2
f 43/122/3 55/127/3 60/128/3
f 43/122/4 60/129/4 62/130/4
f 43/122/5 62/131/5 59/132/5
f 44/125/6 58/133/6 65/134/6
f 45/135/7 57/136/7 67/137/7
f 46/138/8 61/139/8 69/140/8
f 47/141/9 63/142/9 71/143/9
f 48/144/10 64/145/10 73/146/10
f 44/125/11 65/147/11 68/148/11
f 45/135/12 67/149/12 70/150/12
f 46/138/13 69/151/13 72/152/13
f 47/141/14 71/153/14 74/154/14
f 48/144/15 73/155/15 66/156/15
f 49/157/16 75/158/16 80/159/16
f 50/160/17 76/161/17 82/162/17
f 51/163/18 77/164/18 83/165/18
f 52/166/19 78/167/19 84/168/19
f 53/169/20 79/170/20 81/171/20
f 81/172/21 84/173/21 54/174/21
f 81/172/22 79/170/22 84/168/22
f 79/175/23 52/176/23 84/168/23
f 84/177/24 83/178/24 54/174/24
f 84/177/25 78/167/25 83/165/25
f 78/179/26 51/180/26 83/165/26
f 83/181/27 82/182/27 54/174/27
f 83/181/28 77/164/28 82/162/28
f 77/183/29 50/184/29 82/162/29
f 82/185/30 80/186/30 54/174/30
f 82/185/31 76/161/31 80/159/31
f 76/187/32 49/188/32 80/159/32
f 80/189/33 81/190/33 54/174/33
f 80/189/34 75/158/34 81/171/34
f 75/191/35 53/192/35 81/171/35
f 66/193/36 79/170/36 53/194/36
f 66/193/37 73/155/37 79/195/37
f 73/196/38 52/176/38 79/195/38
f 74/197/39 78/167/39 52/198/39
f 74/197/40 71/153/40 78/199/40
f 71/200/41 51/180/41 78/199/41
f 72/201/42 77/164/42 51/202/42
f 72/201/43 69/151/43 77/203/43
f 69/204/44 50/184/44 77/203/44
f 70/205/45 76/161/45 50/206/45
f 70/205/46 67/149/46 76/207/46
f 67/208/47 49/188/47 76/207/47
f 68/209/48 75/158/48 49/210/48
f 68/209/49 65/147/49 75/211/49
f 65/212/50 53/192/50 75/211/50
f 73/196/51 74/213/51 52/198/51
f 73/196/52 64/145/52 74/154/52
f 64/214/53 47/215/53 74/154/53
f 71/200/54 72/216/54 51/202/54
f 71/200/55 63/142/55 72/152/55
f 63/217/56 46/218/56 72/152/56
f 69/204/57 70/219/57 50/206/57
f 69/204/58 61/139/58 70/150/58
f 61/220/59 45/221/59 70/150/59
f 67/208/60 68/222/60 49/210/60
f 67/208/61 57/136/61 68/148/61
f 57/223/62 44/224/62 68/148/62
f 65/212/63 66/225/63 53/194/63
f 65/212/64 58/133/64 66/156/64
f 58/226/65 48/227/65 66/156/65
f 59/228/66 64/145/66 48/229/66
f 59/228/67 62/131/67 64/230/67
f 62/231/68 47/215/68 64/230/68
f 62/231/69 63/142/69 47/232/69
f 62/231/70 60/129/70 63/233/70
f 60/234/71 46/218/71 63/233/71
f 60/234/72 61/139/72 46/235/72
f 60/234/73 55/127/73 61/236/73
f 55/237/74 45/221/74 61/236/74
f 58/226/75 59/238/75 48/229/75
f 58/226/76 56/123/76 59/132/76
f 56/239/77 43/240/77 59/132/77
f 55/237/78 57/136/78 45/241/78
f 55/237/79 56/123/79 57/242/79
f 56/239/80 44/224/80 57/242/80
f 85/243/1 98/244/1 97/245/1
f 86/246/2 98/244/2 100/247/2
f 85/243/3 97/248/3 102/249/3
f 85/243/4 102/250/4 104/251/4
f 85/243/5 104/252/5 101/253/5
f 86/246/6 100/254/6 107/255/6
f 87/256/7 99/257/7 109/258/7
f 88/259/8 103/260/8 111/261/8
f 89/262/9 105/263/9 113/264/9
f 90/265/10 106/266/10 115/267/10
f 86/246/11 107/268/11 110/269/11
f 87/256/12 109/270/12 112/271/12
f 88/259/13 111/272/13 114/273/13
f 89/262/14 113/274/14 116/275/14
f 90/265/15 115/276/15 108/277/15
f 91/278/16 117/279/16 122/280/16
f 92/281/17 118/282/17 124/283/17
f 93/284/18 119/285/18 125/286/18
f 94/287/19 120/288/19 126/289/19
f 95/290/20 121/291/20 123/292/20
f 123/293/21 126/294/21 96/295/21
f 123/293/22 121/291/22 126/289/22
f 121/296/23 94/297/23 126/289/23
f 126/298/24 125/299/24 96/295/24
f 126/298/25 120/288/25 125/286/25
f 120/300/26 93/301/26 125/286/26
f 125/302/27 124/303/27 96/295/27
f 125/302/28 119/285/28 124/283/28
f 119/304/29 92/305/29 124/283/29
f 124/306/30 122/307/30 96/295/30
f 124/306/31 118/282/31 122/280/31
f 118/308/32 91/309/32 122/280/32
f 122/310/33 123/311/33 96/295/33
f 122/310/34 117/279/34 123/292/34
f 117/312/35 95/313/35 123/292/35
f 108/314/36 121/291/36 95/315/36
f 108/314/37 115/276/37 121/316/37
f 115/317/38 94/297/38 121/316/38
f 116/318/39 120/288/39 94/319/39
f 116/318/40 113/274/40 120/320/40
f 113/321/41 93/301/41 120/320/41
f 114/322/42 119/285/42 93/323/42
f 114/322/43 111/272/43 119/324/43
f 111/325/44 92/305/44 119/324/44
f 112/326/45 118/282/45 92/327/45
f 112/326/46 109/270/46 118/328/46
f 109/329/47 91/309/47 118/328/47
f 110/330/48 117/279/48 91/331/48
f 110/330/49 107/268/49 117/332/49
f 107/333/50 95/313/50 117/332/50
f 115/317/51 116/334/51 94/319/51
f 115/317/52 106/266/52 116/275/52
f 106/335/53 89/336/53 116/275/53
f 113/321/54 114/337/54 93/323/54
f 113/321/55 105/263/55 114/273/55
f 105/338/56 88/339/56 114/273/56
f 111/325/57 112/340/57 92/327/57
f 111/325/58 103/260/58 112/271/58
f 103/341/59 87/342/59 112/271/59
f 109/329/60 110/343/60 91/331/60
f 109/329/61 99/257/61 110/269/61
f 99/344/62 86/345/62 110/269/62
f 107/333/63 108/346/63 95/315/63
f 107/333/64 100/254/64 108/277/64
f 100/347/65 90/348/65 108/277/65
f 101/349/66 106/266/66 90/350/66
f 101/349/67 104/252/67 106/351/67
f 104/352/68 89/336/68 106/351/68
f 104/352/69 105/263/69 89/353/69
f 104/352/70 102/250/70 105/354/70
f 102/355/71 88/339/71 105/354/71
f 102/355/72 103/260/72 88/356/72
f 102/355/73 97/248/73 103/357/73
f 97/358/74 87/342/74 103/357/74
f 100/347/75 101/359/75 90/350/75
f 100/347/76 98/244/76 101/253/76
f 98/360/77 85/361/77 101/253/77
f 97/358/78 99/257/78 87/362/78
f 97/358/79 98/244/79 99/363/79
f 98/360/80 86/345/80 99/363/80
usemtl Material
f 127/364/81 129/365/81 130/366/81
f 134/367/82 132/368/82 131/369/82
f 131/369/83 136/370/83 135/371/83
f 133/372/84 138/373/84 137/374/84
f 128/375/85 133/372/85 129/365/85
f 134/367/86 127/364/86 130/366/86
f 141/376/87 143/377/87 145/378/87
f 139/379/88 147/380/88 149/381/88
f 139/379/83 128/375/83 127/364/83
f 141/376/84 130/366/84 129/365/84
f 143/377/89 146/382/89 145/378/89
f 137/374/90 144/383/90 143/377/90
f 142/384/91 144/383/91 138/373/91
f 141/376/92 146/382/92 142/384/92
f 147/380/93 150/385/93 149/381/93
f 136/370/94 147/380/94 135/371/94
f 140/386/95 148/387/95 136/370/95
f 139/379/96 150/385/96 140/386/96
f 127/364/81 128/375/81 129/365/81
f 134/367/82 133/372/82 132/368/82
f 131/369/83 132/368/83 136/370/83
f 133/372/84 134/367/84 138/373/84
f 128/375/85 132/368/85 133/372/85
f 134/367/86 131/369/86 127/364/86
f 141/376/97 137/374/97 143/377/97
f 139/379/98 135/371/98 147/380/98
f 139/379/83 140/386/83 128/375/83
f 141/376/84 142/384/84 130/366/84
f 143/377/89 144/383/89 146/382/89
f 137/374/90 138/373/90 144/383/90
f 142/384/99 146/382/99 144/383/99
f 141/376/92 145/378/92 146/382/92
f 147/380/93 148/387/93 150/385/93
f 136/370/94 148/387/94 147/380/94
f 140/386/100 150/385/100 148/387/100
f 139/379/96 149/381/96 150/385/96
