# Blender v2.79 (sub 0) OBJ File: 'Broccoli.blend'
# www.blender.org
mtllib Broccoli.mtl
o Icosphere.002
v 1.359788 2.275850 0.000000
v 1.938674 2.718074 0.420580
v 1.138677 2.718074 0.680520
v 0.644247 2.718078 0.000000
v 1.138677 2.718074 -0.680519
v 1.938674 2.718074 -0.420580
v 1.580898 3.433626 0.680520
v 0.780902 3.433626 0.420580
v 0.780902 3.433626 -0.420580
v 1.580898 3.433626 -0.680519
v 2.075329 3.433623 0.000000
v 1.359788 3.875850 0.000000
v 1.229823 2.395327 0.399996
v 1.700046 2.395327 0.247209
v 1.570083 2.655260 0.647209
v 2.040306 2.655262 0.000000
v 1.700046 2.395327 -0.247209
v 0.939204 2.395329 0.000000
v 0.809236 2.655261 0.399998
v 1.229823 2.395327 -0.399996
v 0.809236 2.655261 -0.399997
v 1.570083 2.655260 -0.647209
v 2.120634 3.075850 0.247210
v 2.120634 3.075850 -0.247210
v 1.359788 3.075850 0.800000
v 1.830016 3.075850 0.647214
v 0.598942 3.075850 0.247210
v 0.889559 3.075850 0.647214
v 0.889559 3.075850 -0.647213
v 0.598942 3.075850 -0.247210
v 1.830016 3.075850 -0.647213
v 1.359788 3.075850 -0.800000
v 1.910340 3.496439 0.399998
v 1.149493 3.496440 0.647209
v 0.679270 3.496439 0.000000
v 1.149493 3.496440 -0.647209
v 1.910340 3.496439 -0.399997
v 1.489752 3.756373 0.399996
v 1.780372 3.756371 0.000000
v 1.019530 3.756373 0.247209
v 1.019530 3.756373 -0.247209
v 1.489752 3.756373 -0.399996
v -0.018281 2.542252 0.000000
v 0.716848 3.103834 0.534096
v -0.299069 3.103833 0.864193
v -0.926948 3.103838 0.000000
v -0.299069 3.103833 -0.864193
v 0.716848 3.103834 -0.534096
v 0.262508 4.012515 0.864193
v -0.753409 4.012515 0.534096
v -0.753409 4.012515 -0.534096
v 0.262508 4.012515 -0.864193
v 0.890387 4.012510 0.000000
v -0.018281 4.574096 0.000000
v -0.183323 2.693975 0.507956
v 0.413814 2.693976 0.313932
v 0.248774 3.024065 0.821893
v 0.845911 3.024067 0.000000
v 0.413814 2.693976 -0.313931
v -0.552381 2.693978 0.000000
v -0.717427 3.024067 0.507958
v -0.183323 2.693975 -0.507956
v -0.717427 3.024067 -0.507958
v 0.248774 3.024065 -0.821893
v 0.947920 3.558174 0.313933
v 0.947920 3.558174 -0.313933
v -0.018281 3.558174 1.015922
v 0.578864 3.558174 0.821898
v -0.984481 3.558174 0.313933
v -0.615425 3.558174 0.821898
v -0.615425 3.558174 -0.821898
v -0.984481 3.558174 -0.313933
v 0.578864 3.558174 -0.821898
v -0.018281 3.558174 -1.015922
v 0.680866 4.092281 0.507958
v -0.285335 4.092283 0.821893
v -0.882472 4.092281 0.000000
v -0.285335 4.092283 -0.821893
v 0.680866 4.092281 -0.507958
v 0.146762 4.422372 0.507956
v 0.515820 4.422370 0.000000
v -0.450375 4.422372 0.313932
v -0.450375 4.422372 -0.313931
v 0.146762 4.422372 -0.507956
v -1.376663 2.472717 0.000000
v -0.797777 2.914941 0.420580
v -1.597773 2.914941 0.680520
v -2.092204 2.914944 0.000000
v -1.597773 2.914941 -0.680519
v -0.797777 2.914941 -0.420580
v -1.155552 3.630493 0.680520
v -1.955549 3.630493 0.420580
v -1.955549 3.630493 -0.420580
v -1.155552 3.630493 -0.680519
v -0.661122 3.630490 0.000000
v -1.376663 4.072717 0.000000
v -1.506627 2.592193 0.399996
v -1.036404 2.592194 0.247209
v -1.166368 2.852127 0.647210
v -0.696144 2.852128 0.000000
v -1.036404 2.592194 -0.247209
v -1.797246 2.592196 0.000000
v -1.927214 2.852128 0.399998
v -1.506627 2.592193 -0.399996
v -1.927214 2.852128 -0.399997
v -1.166368 2.852127 -0.647209
v -0.615816 3.272717 0.247210
v -0.615816 3.272717 -0.247210
v -1.376663 3.272717 0.800000
v -0.906434 3.272717 0.647214
v -2.137509 3.272717 0.247210
v -1.846891 3.272717 0.647214
v -1.846891 3.272717 -0.647213
v -2.137509 3.272717 -0.247210
v -0.906434 3.272717 -0.647213
v -1.376663 3.272717 -0.800000
v -0.826111 3.693306 0.399998
v -1.586958 3.693307 0.647210
v -2.057181 3.693306 0.000000
v -1.586958 3.693307 -0.647209
v -0.826111 3.693306 -0.399997
v -1.246698 3.953240 0.399996
v -0.956079 3.953238 0.000000
v -1.716921 3.953240 0.247209
v -1.716921 3.953240 -0.247209
v -1.246698 3.953240 -0.399996
v 0.239362 0.000002 -0.237955
v 0.239362 0.000002 0.237955
v -0.236549 0.000002 0.237955
v -0.236549 0.000002 -0.237956
v 0.239362 3.200002 -0.237955
v 0.239361 3.200002 0.237956
v -0.236550 3.200002 0.237955
v -0.236549 3.200002 -0.237955
v 0.239362 2.400002 -0.237955
v 0.239361 2.400002 0.237956
v -0.236550 2.400002 0.237955
v -0.236549 2.400002 -0.237955
v 0.239362 1.875713 -0.237955
v 0.239361 1.875713 0.237955
v -0.236549 1.875713 0.237955
v -0.236549 1.875713 -0.237955
v -1.273740 3.206806 0.081029
v -1.273740 3.206806 -0.081029
v -1.446921 3.209835 0.081029
v -1.446921 3.209835 -0.081029
v 1.217342 3.141430 -0.085786
v 1.217341 3.141430 0.085786
v 1.385902 3.135764 -0.085786
v 1.385902 3.135764 0.085786
vt 0.761020 0.416785
vt 0.848928 0.404464
vt 0.806109 0.462876
vt 0.891847 0.465026
vt 0.946988 0.415623
vt 0.772142 0.476661
vt 0.739174 0.474776
vt 0.699998 0.450343
vt 0.947061 0.514062
vt 0.817588 0.492106
vt 0.845259 0.476656
vt 0.835032 0.511568
vt 0.775160 0.500304
vt 0.794287 0.493790
vt 0.786593 0.514693
vt 0.735282 0.501330
vt 0.755880 0.498328
vt 0.746566 0.518139
vt 0.675575 0.489420
vt 0.710966 0.493617
vt 0.692279 0.522527
vt 0.873585 0.511104
vt 0.808238 0.513075
vt 0.766822 0.516366
vt 0.723192 0.520110
vt 0.643980 0.525470
vt 0.848295 0.538372
vt 0.884238 0.562383
vt 0.831909 0.572558
vt 0.797360 0.530371
vt 0.819297 0.536411
vt 0.795098 0.555326
vt 0.758719 0.532727
vt 0.777938 0.533938
vt 0.763175 0.556425
vt 0.713720 0.543899
vt 0.739105 0.540430
vt 0.729332 0.574314
vt 0.622368 0.592264
vt 0.683029 0.564864
vt 0.695658 0.639546
vt 0.780591 0.614936
vt 0.865121 0.639546
vt 0.942841 0.600693
vt 0.564328 0.528046
vt 0.621793 0.448830
vt 0.684980 0.373220
vt 0.750100 0.082356
vt 0.672608 0.124972
vt 0.653537 0.027032
vt 0.641594 0.174595
vt 0.686536 0.179925
vt 0.861734 0.066710
vt 0.807359 0.140888
vt 0.764223 0.158393
vt 0.722357 0.155998
vt 0.662806 0.216638
vt 0.916237 0.143618
vt 0.986261 0.080879
vt 0.986354 0.205889
vt 0.821936 0.178007
vt 0.857075 0.158386
vt 0.844088 0.202722
vt 0.768056 0.188417
vt 0.792346 0.180145
vt 0.782575 0.206690
vt 0.717415 0.189720
vt 0.743573 0.185908
vt 0.731745 0.211066
vt 0.601472 0.220376
vt 0.893046 0.202132
vt 0.810063 0.204635
vt 0.757468 0.208815
vt 0.702062 0.213568
vt 0.574026 0.305198
vt 0.651060 0.270401
vt 0.667098 0.365241
vt 0.860931 0.236760
vt 0.906574 0.267251
vt 0.840123 0.280172
vt 0.796249 0.226600
vt 0.824107 0.234269
vt 0.793376 0.258290
vt 0.747178 0.229592
vt 0.771584 0.231129
vt 0.752836 0.259685
vt 0.690033 0.243779
vt 0.722269 0.239374
vt 0.709859 0.282402
vt 0.774953 0.333989
vt 0.882297 0.365241
vt 0.980994 0.315902
vt 0.500320 0.223647
vt 0.573295 0.123050
vt 0.761928 0.709668
vt 0.709918 0.750269
vt 0.675605 0.684649
vt 0.694415 0.779853
vt 0.718893 0.783807
vt 0.847571 0.684649
vt 0.814062 0.753292
vt 0.775601 0.770533
vt 0.743210 0.768608
vt 0.702821 0.802862
vt 0.602794 0.735368
vt 0.664869 0.759689
vt 0.630641 0.797740
vt 0.831250 0.789463
vt 0.869000 0.763380
vt 0.859653 0.820064
vt 0.777027 0.796314
vt 0.800231 0.790895
vt 0.787473 0.814942
vt 0.737924 0.792147
vt 0.757289 0.791780
vt 0.745147 0.808902
vt 0.674111 0.799644
vt 0.554087 0.808750
vt 0.816182 0.818161
vt 0.765067 0.811861
vt 0.725226 0.805943
vt 0.659043 0.828342
vt 0.690063 0.826910
vt 0.676232 0.864513
vt 0.562847 0.896133
vt 0.621293 0.854425
vt 0.642723 0.933155
vt 0.795880 0.837951
vt 0.825425 0.858116
vt 0.780376 0.867535
vt 0.752370 0.825657
vt 0.771400 0.833998
vt 0.747083 0.849196
vt 0.713266 0.821490
vt 0.733004 0.826025
vt 0.714692 0.847271
vt 0.728366 0.908137
vt 0.814689 0.933155
vt 0.887500 0.882436
vt 0.936207 0.809054
vt 0.927447 0.721671
vt 0.042798 0.091576
vt 0.050972 0.123451
vt 0.012684 0.046802
vt 0.139099 0.321352
vt 0.104297 0.320280
vt 0.123761 0.299928
vt 0.063148 0.212217
vt 0.091254 0.208334
vt 0.115075 0.350177
vt 0.139593 0.332188
vt 0.122652 0.330652
vt 0.057243 0.106923
vt 0.111382 0.239150
vt 0.343166 0.883271
vt 0.413079 0.982225
vt 0.063354 0.136051
vt 0.086177 0.229972
vt 0.088945 0.232472
vt 0.412722 0.906805
vt 0.370115 0.834877
vt 0.096610 0.291640
vt 0.090165 0.231853
vt 0.051069 0.155161
vt 0.089735 0.229831
vn 0.1024 -0.9435 0.3151
vn 0.7002 -0.6617 0.2680
vn -0.2680 -0.9435 0.1947
vn -0.2680 -0.9435 -0.1947
vn 0.1024 -0.9435 -0.3151
vn 0.9050 -0.3304 0.2680
vn 0.0247 -0.3304 0.9435
vn -0.8897 -0.3304 0.3151
vn -0.5746 -0.3304 -0.7488
vn 0.5346 -0.3304 -0.7779
vn 0.8026 -0.1256 0.5831
vn -0.3066 -0.1256 0.9435
vn -0.9921 -0.1256 0.0000
vn -0.3066 -0.1256 -0.9435
vn 0.8026 -0.1256 -0.5831
vn 0.4089 0.6617 0.6284
vn -0.4713 0.6617 0.5831
vn -0.7002 0.6617 -0.2680
vn 0.0385 0.6617 -0.7488
vn 0.7240 0.6617 -0.1947
vn 0.2680 0.9435 -0.1947
vn 0.4911 0.7947 -0.3568
vn 0.4089 0.6617 -0.6284
vn -0.1024 0.9435 -0.3151
vn -0.1876 0.7947 -0.5773
vn -0.4713 0.6617 -0.5831
vn -0.3313 0.9435 0.0000
vn -0.6071 0.7947 0.0000
vn -0.7002 0.6617 0.2680
vn -0.1024 0.9435 0.3151
vn -0.1876 0.7947 0.5773
vn 0.0385 0.6617 0.7488
vn 0.2680 0.9435 0.1947
vn 0.4911 0.7947 0.3568
vn 0.7240 0.6617 0.1947
vn 0.8897 0.3304 -0.3151
vn 0.7947 0.1876 -0.5773
vn 0.5746 0.3304 -0.7488
vn -0.0247 0.3304 -0.9435
vn -0.3035 0.1876 -0.9342
vn -0.5346 0.3304 -0.7779
vn -0.9050 0.3304 -0.2680
vn -0.9822 0.1876 0.0000
vn -0.9050 0.3304 0.2680
vn -0.5346 0.3304 0.7779
vn -0.3035 0.1876 0.9342
vn -0.0247 0.3304 0.9435
vn 0.5746 0.3304 0.7488
vn 0.7947 0.1876 0.5773
vn 0.8897 0.3304 0.3151
vn 0.3066 0.1256 -0.9435
vn 0.3035 -0.1876 -0.9342
vn 0.0247 -0.3304 -0.9435
vn -0.8026 0.1256 -0.5831
vn -0.7947 -0.1876 -0.5773
vn -0.8897 -0.3304 -0.3151
vn -0.8026 0.1256 0.5831
vn -0.7947 -0.1876 0.5773
vn -0.5746 -0.3304 0.7488
vn 0.3066 0.1256 0.9435
vn 0.3035 -0.1876 0.9342
vn 0.5346 -0.3304 0.7779
vn 0.9921 0.1256 0.0000
vn 0.9822 -0.1876 0.0000
vn 0.9050 -0.3304 -0.2680
vn 0.4713 -0.6617 -0.5831
vn 0.1876 -0.7947 -0.5773
vn -0.0385 -0.6617 -0.7488
vn -0.4089 -0.6617 -0.6284
vn -0.4911 -0.7947 -0.3568
vn -0.7240 -0.6617 -0.1947
vn -0.7240 -0.6617 0.1947
vn -0.4911 -0.7947 0.3568
vn -0.4089 -0.6617 0.6284
vn 0.7002 -0.6617 -0.2680
vn 0.6071 -0.7947 0.0000
vn 0.3313 -0.9435 0.0000
vn -0.0385 -0.6617 0.7488
vn 0.1876 -0.7947 0.5773
vn 0.4713 -0.6617 0.5831
vn 0.0000 -1.0000 0.0000
vn 0.0000 1.0000 0.0000
vn 1.0000 0.0000 0.0000
vn -1.0000 0.0000 -0.0000
vn 0.0000 0.0000 1.0000
vn 0.0000 0.0000 -1.0000
vn 0.0021 0.1187 0.9929
vn 0.0039 0.1164 -0.9932
vn 0.0175 0.9998 0.0000
vn 0.6140 0.7893 0.0000
vn -0.1496 0.0000 -0.9887
vn -0.7406 -0.6719 0.0000
vn 0.0336 0.9994 0.0000
vn -0.6041 0.7969 0.0000
vn 0.1537 -0.0000 0.9881
vn 0.7396 -0.6730 0.0000
vn -0.1496 0.0000 0.9887
vn 0.1537 0.0000 -0.9881
vn 0.0021 0.1187 -0.9929
vn 0.0039 0.1164 0.9932
usemtl Material.002
s off
f 1/1/1 14/2/1 13/3/1
f 2/4/2 14/2/2 16/5/2
f 1/1/3 13/3/3 18/6/3
f 1/1/4 18/6/4 20/7/4
f 1/1/5 20/7/5 17/8/5
f 2/4/6 16/5/6 23/9/6
f 3/10/7 15/11/7 25/12/7
f 4/13/8 19/14/8 27/15/8
f 5/16/9 21/17/9 29/18/9
f 6/19/10 22/20/10 31/21/10
f 2/4/11 23/9/11 26/22/11
f 3/10/12 25/12/12 28/23/12
f 4/13/13 27/15/13 30/24/13
f 5/16/14 29/18/14 32/25/14
f 6/19/15 31/21/15 24/26/15
f 7/27/16 33/28/16 38/29/16
f 8/30/17 34/31/17 40/32/17
f 9/33/18 35/34/18 41/35/18
f 10/36/19 36/37/19 42/38/19
f 11/39/20 37/40/20 39/41/20
f 39/41/21 42/38/21 12/42/21
f 39/41/22 37/40/22 42/38/22
f 37/40/23 10/36/23 42/38/23
f 42/38/24 41/35/24 12/42/24
f 42/38/25 36/37/25 41/35/25
f 36/37/26 9/33/26 41/35/26
f 41/35/27 40/32/27 12/42/27
f 41/35/28 35/34/28 40/32/28
f 35/34/29 8/30/29 40/32/29
f 40/32/30 38/29/30 12/42/30
f 40/32/31 34/31/31 38/29/31
f 34/31/32 7/27/32 38/29/32
f 38/29/33 39/43/33 12/42/33
f 38/29/34 33/28/34 39/43/34
f 33/28/35 11/44/35 39/43/35
f 24/26/36 37/40/36 11/39/36
f 24/26/37 31/21/37 37/40/37
f 31/21/38 10/36/38 37/40/38
f 32/25/39 36/37/39 10/36/39
f 32/25/40 29/18/40 36/37/40
f 29/18/41 9/33/41 36/37/41
f 30/24/42 35/34/42 9/33/42
f 30/24/43 27/15/43 35/34/43
f 27/15/44 8/30/44 35/34/44
f 28/23/45 34/31/45 8/30/45
f 28/23/46 25/12/46 34/31/46
f 25/12/47 7/27/47 34/31/47
f 26/22/48 33/28/48 7/27/48
f 26/22/49 23/9/49 33/28/49
f 23/9/50 11/44/50 33/28/50
f 31/21/51 32/25/51 10/36/51
f 31/21/52 22/20/52 32/25/52
f 22/20/53 5/16/53 32/25/53
f 29/18/54 30/24/54 9/33/54
f 29/18/55 21/17/55 30/24/55
f 21/17/56 4/13/56 30/24/56
f 27/15/57 28/23/57 8/30/57
f 27/15/58 19/14/58 28/23/58
f 19/14/59 3/10/59 28/23/59
f 25/12/60 26/22/60 7/27/60
f 25/12/61 15/11/61 26/22/61
f 15/11/62 2/4/62 26/22/62
f 23/45/63 24/26/63 11/39/63
f 23/45/64 16/46/64 24/26/64
f 16/46/65 6/19/65 24/26/65
f 17/8/66 22/20/66 6/19/66
f 17/8/67 20/7/67 22/20/67
f 20/7/68 5/16/68 22/20/68
f 20/7/69 21/17/69 5/16/69
f 20/7/70 18/6/70 21/17/70
f 18/6/71 4/13/71 21/17/71
f 18/6/72 19/14/72 4/13/72
f 18/6/73 13/3/73 19/14/73
f 13/3/74 3/10/74 19/14/74
f 16/46/75 17/8/75 6/19/75
f 16/46/76 14/47/76 17/8/76
f 14/47/77 1/1/77 17/8/77
f 13/3/78 15/11/78 3/10/78
f 13/3/79 14/2/79 15/11/79
f 14/2/80 2/4/80 15/11/80
f 43/48/1 56/49/1 55/50/1
f 44/51/2 56/49/2 58/52/2
f 43/48/3 55/53/3 60/54/3
f 43/48/4 60/54/4 62/55/4
f 43/48/5 62/55/5 59/56/5
f 44/51/6 58/52/6 65/57/6
f 45/58/7 57/59/7 67/60/7
f 46/61/8 61/62/8 69/63/8
f 47/64/9 63/65/9 71/66/9
f 48/67/10 64/68/10 73/69/10
f 44/51/11 65/57/11 68/70/11
f 45/58/12 67/60/12 70/71/12
f 46/61/13 69/63/13 72/72/13
f 47/64/14 71/66/14 74/73/14
f 48/67/15 73/69/15 66/74/15
f 49/75/16 75/76/16 80/77/16
f 50/78/17 76/79/17 82/80/17
f 51/81/18 77/82/18 83/83/18
f 52/84/19 78/85/19 84/86/19
f 53/87/20 79/88/20 81/89/20
f 81/89/21 84/86/21 54/90/21
f 81/89/22 79/88/22 84/86/22
f 79/88/23 52/84/23 84/86/23
f 84/86/24 83/83/24 54/90/24
f 84/86/25 78/85/25 83/83/25
f 78/85/26 51/81/26 83/83/26
f 83/83/27 82/80/27 54/90/27
f 83/83/28 77/82/28 82/80/28
f 77/82/29 50/78/29 82/80/29
f 82/80/30 80/91/30 54/90/30
f 82/80/31 76/79/31 80/91/31
f 76/79/32 49/92/32 80/91/32
f 80/77/33 81/89/33 54/90/33
f 80/77/34 75/76/34 81/89/34
f 75/76/35 53/87/35 81/89/35
f 66/74/36 79/88/36 53/87/36
f 66/74/37 73/69/37 79/88/37
f 73/69/38 52/84/38 79/88/38
f 74/73/39 78/85/39 52/84/39
f 74/73/40 71/66/40 78/85/40
f 71/66/41 51/81/41 78/85/41
f 72/72/42 77/82/42 51/81/42
f 72/72/43 69/63/43 77/82/43
f 69/63/44 50/78/44 77/82/44
f 70/71/45 76/79/45 50/78/45
f 70/71/46 67/60/46 76/79/46
f 67/60/47 49/92/47 76/79/47
f 68/70/48 75/76/48 49/75/48
f 68/70/49 65/57/49 75/76/49
f 65/57/50 53/87/50 75/76/50
f 73/69/51 74/73/51 52/84/51
f 73/69/52 64/68/52 74/73/52
f 64/68/53 47/64/53 74/73/53
f 71/66/54 72/72/54 51/81/54
f 71/66/55 63/65/55 72/72/55
f 63/65/56 46/61/56 72/72/56
f 69/63/57 70/71/57 50/78/57
f 69/63/58 61/62/58 70/71/58
f 61/62/59 45/58/59 70/71/59
f 67/93/60 68/70/60 49/75/60
f 67/93/61 57/94/61 68/70/61
f 57/94/62 44/51/62 68/70/62
f 65/57/63 66/74/63 53/87/63
f 65/57/64 58/52/64 66/74/64
f 58/52/65 48/67/65 66/74/65
f 59/56/66 64/68/66 48/67/66
f 59/56/67 62/55/67 64/68/67
f 62/55/68 47/64/68 64/68/68
f 62/55/69 63/65/69 47/64/69
f 62/55/70 60/54/70 63/65/70
f 60/54/71 46/61/71 63/65/71
f 60/54/72 61/62/72 46/61/72
f 60/54/73 55/53/73 61/62/73
f 55/53/74 45/58/74 61/62/74
f 58/52/75 59/56/75 48/67/75
f 58/52/76 56/49/76 59/56/76
f 56/49/77 43/48/77 59/56/77
f 55/53/78 57/59/78 45/58/78
f 55/50/79 56/49/79 57/94/79
f 56/49/80 44/51/80 57/94/80
f 85/95/1 98/96/1 97/97/1
f 86/98/2 98/96/2 100/99/2
f 85/95/3 97/100/3 102/101/3
f 85/95/4 102/101/4 104/102/4
f 85/95/5 104/102/5 101/103/5
f 86/98/6 100/99/6 107/104/6
f 87/105/7 99/106/7 109/107/7
f 88/108/8 103/109/8 111/110/8
f 89/111/9 105/112/9 113/113/9
f 90/114/10 106/115/10 115/116/10
f 86/98/11 107/104/11 110/117/11
f 87/105/12 109/107/12 112/118/12
f 88/108/13 111/110/13 114/119/13
f 89/111/14 113/113/14 116/120/14
f 90/114/15 115/116/15 108/121/15
f 91/122/16 117/123/16 122/124/16
f 92/125/17 118/126/17 124/127/17
f 93/128/18 119/129/18 125/130/18
f 94/131/19 120/132/19 126/133/19
f 95/134/20 121/135/20 123/136/20
f 123/136/21 126/133/21 96/137/21
f 123/136/22 121/135/22 126/133/22
f 121/135/23 94/131/23 126/133/23
f 126/133/24 125/130/24 96/137/24
f 126/133/25 120/132/25 125/130/25
f 120/132/26 93/128/26 125/130/26
f 125/130/27 124/138/27 96/137/27
f 125/130/28 119/129/28 124/138/28
f 119/129/29 92/139/29 124/138/29
f 124/127/30 122/124/30 96/137/30
f 124/127/31 118/126/31 122/124/31
f 118/126/32 91/122/32 122/124/32
f 122/124/33 123/136/33 96/137/33
f 122/124/34 117/123/34 123/136/34
f 117/123/35 95/134/35 123/136/35
f 108/121/36 121/135/36 95/134/36
f 108/121/37 115/116/37 121/135/37
f 115/116/38 94/131/38 121/135/38
f 116/120/39 120/132/39 94/131/39
f 116/120/40 113/113/40 120/132/40
f 113/113/41 93/128/41 120/132/41
f 114/119/42 119/129/42 93/128/42
f 114/119/43 111/110/43 119/129/43
f 111/110/44 92/139/44 119/129/44
f 112/118/45 118/126/45 92/125/45
f 112/118/46 109/107/46 118/126/46
f 109/107/47 91/122/47 118/126/47
f 110/117/48 117/123/48 91/122/48
f 110/117/49 107/104/49 117/123/49
f 107/104/50 95/134/50 117/123/50
f 115/116/51 116/120/51 94/131/51
f 115/116/52 106/115/52 116/120/52
f 106/115/53 89/111/53 116/120/53
f 113/113/54 114/119/54 93/128/54
f 113/113/55 105/112/55 114/119/55
f 105/112/56 88/108/56 114/119/56
f 111/110/57 112/140/57 92/139/57
f 111/110/58 103/109/58 112/140/58
f 103/109/59 87/141/59 112/140/59
f 109/107/60 110/117/60 91/122/60
f 109/107/61 99/106/61 110/117/61
f 99/106/62 86/98/62 110/117/62
f 107/104/63 108/121/63 95/134/63
f 107/104/64 100/99/64 108/121/64
f 100/99/65 90/114/65 108/121/65
f 101/103/66 106/115/66 90/114/66
f 101/103/67 104/102/67 106/115/67
f 104/102/68 89/111/68 106/115/68
f 104/102/69 105/112/69 89/111/69
f 104/102/70 102/101/70 105/112/70
f 102/101/71 88/108/71 105/112/71
f 102/101/72 103/109/72 88/108/72
f 102/101/73 97/100/73 103/109/73
f 97/100/74 87/141/74 103/109/74
f 100/99/75 101/103/75 90/114/75
f 100/99/76 98/96/76 101/103/76
f 98/96/77 85/95/77 101/103/77
f 97/97/78 99/106/78 87/105/78
f 97/97/79 98/96/79 99/106/79
f 98/96/80 86/98/80 99/106/80
usemtl Material.003
f 127/142/81 129/143/81 130/144/81
f 134/145/82 132/146/82 131/147/82
f 131/147/83 136/148/83 135/149/83
f 133/150/84 138/151/84 137/152/84
f 128/153/85 133/150/85 129/143/85
f 134/145/86 127/142/86 130/144/86
f 141/154/87 143/155/87 145/156/87
f 139/157/88 147/158/88 149/159/88
f 139/157/83 128/153/83 127/142/83
f 141/154/84 130/144/84 129/143/84
f 143/155/89 146/160/89 145/156/89
f 137/152/90 144/161/90 143/155/90
f 142/162/91 144/161/91 138/151/91
f 141/154/92 146/160/92 142/162/92
f 147/158/93 150/163/93 149/159/93
f 136/148/94 147/158/94 135/149/94
f 140/164/95 148/165/95 136/148/95
f 139/157/96 150/163/96 140/164/96
f 127/142/81 128/153/81 129/143/81
f 134/145/82 133/150/82 132/146/82
f 131/147/83 132/146/83 136/148/83
f 133/150/84 134/145/84 138/151/84
f 128/153/85 132/146/85 133/150/85
f 134/145/86 131/147/86 127/142/86
f 141/154/97 137/152/97 143/155/97
f 139/157/98 135/149/98 147/158/98
f 139/157/83 140/164/83 128/153/83
f 141/154/84 142/162/84 130/144/84
f 143/155/89 144/161/89 146/160/89
f 137/152/90 138/151/90 144/161/90
f 142/162/99 146/160/99 144/161/99
f 141/154/92 145/156/92 146/160/92
f 147/158/93 148/165/93 150/163/93
f 136/148/94 148/165/94 147/158/94
f 140/164/100 150/163/100 148/165/100
f 139/157/96 149/159/96 150/163/96
