# Blender v2.79 (sub 0) OBJ File: 'Carrot.blend'
# www.blender.org
mtllib Carrot.mtl
o Cone
v 0.000938 0.605963 -0.286745
v 0.161606 0.559950 -0.334826
v 0.228156 0.448865 -0.450905
v 0.161606 0.337780 -0.566983
v 0.000938 0.291767 -0.615065
v -0.159730 0.337780 -0.566983
v 0.026844 -0.445825 0.427482
v -0.226281 0.448865 -0.450905
v -0.159730 0.559950 -0.334826
v 0.009941 0.784855 -0.452147
v 0.073215 0.438638 -0.747456
v -0.031383 0.373410 -0.391762
v -0.036344 0.458131 -0.615092
v 0.041578 0.611746 -0.599801
v -0.066741 0.632127 -0.468212
vt 0.000000 0.000000
vt 1.000000 0.000000
vt 1.000000 1.000000
vt 0.000000 0.000000
vt 1.000000 1.000000
vt 1.000000 0.000000
vt 1.000000 1.000000
vt 1.000000 0.000000
vt 1.000000 0.000000
vt 1.000000 1.000000
vt 0.000000 0.000000
vt 1.000000 1.000000
vt 1.000000 0.000000
vt 0.000000 0.000000
vt 1.000000 1.000000
vt 1.000000 1.000000
vt 0.000000 0.000000
vt 1.000000 1.000000
vt 1.000000 0.000000
vt 1.000000 0.000000
vt 0.000000 0.000000
vt 1.000000 0.000000
vt 0.392757 0.260989
vt 0.000073 0.361072
vt 0.526756 0.000073
vt 0.303506 0.708798
vt 0.526756 0.521905
vt 0.307178 0.999927
vn -0.3762 -0.7608 -0.5289
vn 0.0000 0.7225 -0.6914
vn -0.9090 0.1312 0.3956
vn 0.3772 -0.7516 -0.5411
vn -0.9074 -0.3957 -0.1416
vn 0.9132 -0.3710 -0.1686
vn -0.3777 0.5138 0.7703
vn 0.3786 0.5263 0.7614
vn 0.9145 0.1593 0.3719
vn 0.5030 0.8118 0.2968
vn 0.7625 0.2770 0.5847
vn 0.8840 -0.4302 -0.1828
vn 0.5232 -0.1750 -0.8341
usemtl Material.002
s off
f 7/1/1 6/2/1 5/3/1
f 4/4/2 6/2/2 9/5/2
f 7/1/3 9/6/3 8/7/3
f 4/4/4 7/8/4 5/3/4
f 7/1/5 8/9/5 6/10/5
f 3/11/6 7/8/6 4/12/6
f 7/1/7 1/13/7 9/5/7
f 2/14/8 1/13/8 7/15/8
f 2/14/9 7/8/9 3/16/9
f 9/17/2 1/13/2 2/18/2
f 2/14/2 3/19/2 4/12/2
f 4/4/2 5/20/2 6/10/2
f 6/21/2 8/9/2 9/5/2
f 9/17/2 2/22/2 4/12/2
usemtl Material.003
f 13/23/10 12/24/10 11/25/10
f 15/26/11 12/24/11 14/27/11
f 13/23/12 14/27/12 12/24/12
f 15/26/13 10/28/13 12/24/13
