# Blender v2.79 (sub 0) OBJ File: 'CartBlack.blend'
# www.blender.org
mtllib CartBlack.mtl
o Cube
v -1.734993 -0.752545 2.231251
v -1.734995 -1.191530 -1.436524
v 1.734994 -0.752545 2.231251
v -1.734994 0.846120 2.231250
v -1.734994 1.692285 -2.231251
v 1.734994 1.692285 -2.231250
v 1.734995 0.846120 2.231250
v 1.734994 -0.791956 -1.546640
v 1.734994 -1.191530 -1.436525
v -1.734994 -0.791956 -1.546639
v -1.765006 -1.990982 -1.850594
v 1.704983 -1.990982 -1.850595
v -1.765006 -1.591408 -1.960709
v 1.704983 -1.591408 -1.960710
v -1.765005 -1.990982 2.041622
v 1.704984 -1.990982 2.041621
v -1.753580 -1.686621 -1.692952
v 1.716408 -1.686621 -1.692953
v -1.753579 -1.686621 2.199263
v 1.716409 -1.686621 2.199263
v 1.734994 2.142233 -2.768747
v -1.734994 2.142233 -2.768748
v -1.734994 1.602535 -1.757926
v 1.734994 1.602535 -1.757925
v -1.734994 2.052481 -2.295422
v 1.734994 2.052481 -2.295421
vt 0.111197 0.727150
vt 0.088173 0.741502
vt 0.068039 0.727150
vt 0.068039 0.502788
vt 0.111197 0.502788
vt 0.998158 0.503396
vt 0.822526 0.717205
vt 0.820839 0.504805
vt 0.300148 0.502788
vt 0.300148 0.727150
vt 0.079937 0.097218
vt 0.366441 0.384299
vt 0.074077 0.386253
vt 0.079672 0.099233
vt 0.366737 0.384746
vt 0.072420 0.381271
vt 0.007792 0.506166
vt 0.188718 0.528111
vt 0.000155 0.528111
vt 0.363948 0.716078
vt 0.390406 0.510061
vt 0.392093 0.722462
vt 0.360407 0.515996
vt 0.330366 0.493201
vt 0.577350 0.720990
vt 0.783731 0.506237
vt 0.332348 0.738499
vt 0.600162 0.720109
vt 0.575663 0.508590
vt 0.598475 0.507709
vt 0.000155 0.483603
vt 0.181080 0.461658
vt 0.188718 0.483603
vt 0.362709 0.094967
vt 0.078047 0.382217
vt 0.074803 0.098873
vt 0.043313 0.502788
vt 0.043313 0.727150
vt 0.072124 0.385971
vt 0.362535 0.095327
vt 0.366441 0.385972
vt 0.088173 0.488436
vt 0.131332 0.488436
vt 0.000155 0.727150
vt 0.131331 0.741502
vt 0.999845 0.715796
vt 0.362535 0.097218
vt 0.362831 0.093758
vt 0.000155 0.483912
vt 0.188718 0.483912
vt 0.181081 0.505857
vt 0.785419 0.718638
vt 0.007792 0.550365
vt 0.000155 0.528420
vt 0.188718 0.528420
vt 0.364189 0.386395
vt 0.076031 0.097279
vt 0.000155 0.502788
vn -1.0000 -0.0000 -0.0000
vn 0.0000 -0.7668 -0.6419
vn 0.0000 -0.9929 0.1188
vn -0.0000 -0.2657 -0.9641
vn 0.0000 0.0000 1.0000
vn 0.9993 -0.0375 -0.0000
vn -0.0000 0.4599 -0.8880
vn 0.9988 -0.0130 -0.0473
vn 0.0000 -1.0000 -0.0000
vn 0.0000 -0.4599 0.8880
vn -0.9988 0.0130 0.0473
vn 0.0000 1.0000 0.0000
vn -0.9993 0.0375 0.0000
vn 1.0000 -0.0000 -0.0000
vn -0.0000 0.9825 0.1863
vn -0.0000 0.7668 0.6419
usemtl Material.001
s off
f 5/1/1 25/2/1 22/3/1
f 5/1/2 21/4/2 6/5/2
f 3/6/3 2/7/3 9/8/3
f 5/1/4 8/9/4 10/10/4
f 7/11/5 1/12/5 3/13/5
f 2/14/1 4/15/1 5/16/1
f 18/17/6 16/18/6 12/19/6
f 13/20/4 12/21/4 11/22/4
f 14/23/7 10/10/7 8/9/7
f 9/24/8 14/23/8 8/9/8
f 12/21/9 15/25/9 11/22/9
f 2/7/10 18/26/10 9/8/10
f 13/20/11 2/27/11 10/10/11
f 19/28/10 16/29/10 20/30/10
f 18/26/12 19/28/12 20/30/12
f 17/31/13 15/32/13 19/33/13
f 9/34/14 7/35/14 3/36/14
f 26/37/15 22/3/15 25/38/15
f 7/39/15 23/40/15 4/41/15
f 6/5/14 26/42/14 24/43/14
f 23/44/16 26/37/16 25/38/16
f 5/1/1 23/45/1 25/2/1
f 5/1/2 22/3/2 21/4/2
f 3/6/3 1/46/3 2/7/3
f 5/1/4 6/5/4 8/9/4
f 7/11/5 4/47/5 1/12/5
f 2/14/1 1/48/1 4/15/1
f 18/49/6 20/50/6 16/51/6
f 13/20/4 14/23/4 12/21/4
f 14/23/7 13/20/7 10/10/7
f 9/24/8 12/21/8 14/23/8
f 12/21/9 16/29/9 15/25/9
f 2/7/10 17/52/10 18/26/10
f 13/20/11 11/22/11 2/27/11
f 19/28/10 15/25/10 16/29/10
f 18/26/12 17/52/12 19/28/12
f 17/53/13 11/54/13 15/55/13
f 9/34/14 6/56/14 7/35/14
f 26/37/15 21/4/15 22/3/15
f 7/39/15 24/57/15 23/40/15
f 6/5/14 21/4/14 26/42/14
f 23/44/16 24/58/16 26/37/16
