# Blender v2.79 (sub 0) OBJ File: 'CartBlue.blend'
# www.blender.org
mtllib CartBlue.mtl
o Cube
v -1.734993 -0.752545 2.231251
v -1.734995 -1.191530 -1.436524
v 1.734994 -0.752545 2.231251
v -1.734994 0.846120 2.231250
v -1.734994 1.692285 -2.231251
v 1.734994 1.692285 -2.231250
v 1.734995 0.846120 2.231250
v 1.734994 -0.791956 -1.546640
v 1.734994 -1.191530 -1.436525
v -1.734994 -0.791956 -1.546639
v -1.765006 -1.990982 -1.850594
v 1.704983 -1.990982 -1.850595
v -1.765006 -1.591408 -1.960709
v 1.704983 -1.591408 -1.960710
v -1.765005 -1.990982 2.041622
v 1.704984 -1.990982 2.041621
v -1.753580 -1.686621 -1.692952
v 1.716408 -1.686621 -1.692953
v -1.753579 -1.686621 2.199263
v 1.716409 -1.686621 2.199263
v 1.734994 2.142233 -2.768747
v -1.734994 2.142233 -2.768748
v -1.734994 1.602535 -1.757926
v 1.734994 1.602535 -1.757925
v -1.734994 2.052481 -2.295422
v 1.734994 2.052481 -2.295421
vt 0.583084 0.667600
vt 0.593891 0.684938
vt 0.583084 0.700100
vt 0.414130 0.700099
vt 0.414130 0.667599
vt 0.414589 -0.000318
vt 0.582978 0.131940
vt 0.414419 0.133210
vt 0.414130 0.525311
vt 0.583084 0.525312
vt 0.414129 0.908145
vt 0.583083 0.998179
vt 0.414129 0.998178
vt 0.594124 0.927149
vt 0.738175 0.827482
vt 0.738175 0.998179
vt 0.772226 0.992375
vt 0.788902 0.854887
vt 0.788902 0.998179
vt 0.583359 0.477268
vt 0.414686 0.457344
vt 0.583245 0.456073
vt 0.414848 0.479934
vt 0.401990 0.502557
vt 0.583367 0.316567
vt 0.414267 0.161154
vt 0.600243 0.501064
vt 0.582704 0.299389
vt 0.414808 0.317838
vt 0.414145 0.300660
vt 0.755084 0.998179
vt 0.738408 0.860691
vt 0.755084 0.854887
vt 0.594124 0.656320
vt 0.594124 0.481151
vt 0.661609 0.536920
vt 0.414130 0.718719
vt 0.583084 0.718719
vt 0.583084 0.751219
vt 0.583083 0.908145
vt 0.403322 0.684937
vt 0.403322 0.652437
vt 0.593891 0.652438
vt 0.583148 -0.001589
vt 0.729326 0.656320
vt 0.661841 0.536920
vt 0.729326 0.481151
vt 0.755317 0.998179
vt 0.755317 0.854887
vt 0.771993 0.860691
vt 0.582826 0.159883
vt 0.771993 0.848851
vt 0.755317 0.854655
vt 0.755317 0.711363
vt 0.738175 0.756220
vt 0.594124 0.827249
vt 0.594124 0.656553
vt 0.414130 0.751219
vn -1.0000 -0.0000 -0.0000
vn 0.0000 -0.7668 -0.6419
vn 0.0000 -0.9929 0.1188
vn -0.0000 -0.2657 -0.9641
vn 0.0000 0.0000 1.0000
vn 0.9993 -0.0375 -0.0000
vn -0.0000 0.4599 -0.8880
vn 0.9988 -0.0130 -0.0473
vn 0.0000 -1.0000 -0.0000
vn 0.0000 -0.4599 0.8880
vn -0.9988 0.0130 0.0473
vn 0.0000 1.0000 0.0000
vn -0.9993 0.0375 0.0000
vn 1.0000 -0.0000 -0.0000
vn -0.0000 0.9825 0.1863
vn -0.0000 0.7668 0.6419
usemtl Material.001
s off
f 5/1/1 25/2/1 22/3/1
f 5/1/2 21/4/2 6/5/2
f 3/6/3 2/7/3 9/8/3
f 5/1/4 8/9/4 10/10/4
f 7/11/5 1/12/5 3/13/5
f 2/14/1 4/15/1 5/16/1
f 18/17/6 16/18/6 12/19/6
f 13/20/4 12/21/4 11/22/4
f 14/23/7 10/10/7 8/9/7
f 9/24/8 14/23/8 8/9/8
f 12/21/9 15/25/9 11/22/9
f 2/7/10 18/26/10 9/8/10
f 13/20/11 2/27/11 10/10/11
f 19/28/10 16/29/10 20/30/10
f 18/26/12 19/28/12 20/30/12
f 17/31/13 15/32/13 19/33/13
f 9/34/14 7/35/14 3/36/14
f 26/37/15 22/3/15 25/38/15
f 7/11/15 23/39/15 4/40/15
f 6/5/14 26/41/14 24/42/14
f 23/39/16 26/37/16 25/38/16
f 5/1/1 23/43/1 25/2/1
f 5/1/2 22/3/2 21/4/2
f 3/6/3 1/44/3 2/7/3
f 5/1/4 6/5/4 8/9/4
f 7/11/5 4/40/5 1/12/5
f 2/45/1 1/46/1 4/47/1
f 18/48/6 20/49/6 16/50/6
f 13/20/4 14/23/4 12/21/4
f 14/23/7 13/20/7 10/10/7
f 9/24/8 12/21/8 14/23/8
f 12/21/9 16/29/9 15/25/9
f 2/7/10 17/51/10 18/26/10
f 13/20/11 11/22/11 2/27/11
f 19/28/10 15/25/10 16/29/10
f 18/26/12 17/51/12 19/28/12
f 17/52/13 11/53/13 15/54/13
f 9/55/14 6/56/14 7/57/14
f 26/37/15 21/4/15 22/3/15
f 7/11/15 24/58/15 23/39/15
f 6/5/14 21/4/14 26/41/14
f 23/39/16 24/58/16 26/37/16
