# Blender v2.79 (sub 0) OBJ File: 'Cookie.blend'
# www.blender.org
mtllib Cookie.mtl
o Sphere
v 0.212077 0.723612 0.850649
v 0.212077 1.723607 0.525725
v 0.212077 1.723607 -0.525725
v 0.212077 0.723612 -0.850649
v 0.212075 0.105574 0.000000
v 0.478557 1.000000 0.000000
v -0.003515 0.048942 0.309013
v -0.003515 0.048942 -0.309013
v -0.003515 1.000000 1.000000
v -0.003515 0.412214 0.809017
v -0.003515 1.951058 0.309013
v -0.003515 1.587786 0.809017
v -0.003515 1.587786 -0.809017
v -0.003515 1.951058 -0.309013
v -0.003515 0.412214 -0.809017
v -0.003515 1.000000 -1.000000
v 0.249928 0.311811 0.499997
v 0.249928 1.262869 0.809012
v 0.249928 1.850648 0.000000
v 0.249928 1.262869 -0.809012
v 0.249928 0.311811 -0.499997
v 0.406562 0.837544 0.499995
v 0.406560 0.474270 0.000000
v 0.406562 1.425323 0.309011
v 0.406562 1.425323 -0.309011
v 0.406562 0.837544 -0.499995
vt 0.000000 0.000000
vt 1.000000 0.000000
vt 1.000000 1.000000
vt 0.000000 0.000000
vt 1.000000 0.000000
vt 1.000000 1.000000
vt 0.000000 0.000000
vt 1.000000 0.000000
vt 1.000000 1.000000
vt 0.000000 0.000000
vt 1.000000 0.000000
vt 1.000000 1.000000
vt 0.000000 0.000000
vt 1.000000 0.000000
vt 1.000000 1.000000
vt 0.000000 0.000000
vt 1.000000 0.000000
vt 1.000000 1.000000
vt 0.000000 0.000000
vt 1.000000 0.000000
vt 0.000000 0.000000
vt 1.000000 0.000000
vt 0.000000 0.000000
vt 1.000000 0.000000
vt 0.000000 0.000000
vt 1.000000 0.000000
vt 0.000000 0.000000
vt 1.000000 0.000000
vt 0.000000 0.000000
vt 1.000000 0.000000
vt 0.000000 0.000000
vt 1.000000 0.000000
vt 0.000000 0.000000
vt 1.000000 0.000000
vt 0.000000 0.000000
vt 1.000000 0.000000
vt 0.000000 0.000000
vt 1.000000 1.000000
vt 1.000000 0.000000
vt 1.000000 1.000000
vt 0.000000 0.000000
vt 0.000000 0.000000
vt 1.000000 1.000000
vt 1.000000 0.000000
vt 1.000000 1.000000
vt 0.000000 0.000000
vt 0.000000 0.000000
vt 1.000000 1.000000
vt 1.000000 0.000000
vt 1.000000 1.000000
vt 0.000000 0.000000
vt 0.000000 0.000000
vt 1.000000 1.000000
vt 1.000000 0.000000
vt 1.000000 1.000000
vt 0.000000 0.000000
vt 0.000000 0.000000
vt 1.000000 1.000000
vt 1.000000 0.000000
vt 1.000000 1.000000
vt 0.000000 0.000000
vt 1.000000 0.000000
vt 0.500000 1.000000
vt 0.793893 0.904508
vt 0.975528 0.654508
vt 0.975528 0.345491
vt 0.793893 0.095491
vt 0.500000 0.000000
vt 0.206107 0.095492
vt 0.024472 0.345491
vt 0.024472 0.654509
vt 0.206108 0.904509
vt 1.000000 0.000000
vt 1.000000 0.000000
vt 1.000000 0.000000
vt 1.000000 0.000000
vn 0.8776 -0.2615 0.4018
vn 0.8776 0.3013 0.3728
vn 0.8776 0.4477 -0.1714
vn 0.8776 -0.0246 -0.4787
vn 0.8776 -0.4629 -0.1245
vn 0.9860 -0.1350 -0.0981
vn 0.9384 -0.2796 -0.2031
vn 0.8776 -0.2615 -0.4018
vn 0.9860 0.0516 -0.1587
vn 0.9384 0.1068 -0.3287
vn 0.8776 0.3013 -0.3728
vn 0.9860 0.1669 0.0000
vn 0.9384 0.3456 0.0000
vn 0.8776 0.4477 0.1714
vn 0.9860 0.0516 0.1587
vn 0.9384 0.1068 0.3287
vn 0.8776 -0.0246 0.4787
vn 0.9860 -0.1350 0.0981
vn 0.9384 -0.2796 0.2031
vn 0.8776 -0.4629 0.1245
vn 0.5876 -0.7628 -0.2701
vn 0.3683 -0.7521 -0.5465
vn 0.5876 -0.4926 -0.6419
vn 0.5876 0.0212 -0.8089
vn 0.3683 0.2873 -0.8842
vn 0.5876 0.4583 -0.6669
vn 0.5876 0.7759 -0.2298
vn 0.3683 0.9297 0.0000
vn 0.5876 0.7759 0.2298
vn 0.5876 0.4583 0.6669
vn 0.3683 0.2873 0.8842
vn 0.5876 0.0212 0.8089
vn 0.5876 -0.4926 0.6419
vn 0.3683 -0.7521 0.5465
vn 0.5876 -0.7628 0.2701
vn 0.2541 -0.2989 -0.9199
vn -1.0000 -0.0000 0.0000
vn 0.2541 0.7825 -0.5685
vn 0.2541 0.7825 0.5685
vn 0.2541 -0.2989 0.9199
vn 0.2541 -0.9672 0.0000
usemtl Material
s off
f 1/1/1 17/2/1 22/3/1
f 2/4/2 18/5/2 24/6/2
f 3/7/3 19/8/3 25/9/3
f 4/10/4 20/11/4 26/12/4
f 5/13/5 21/14/5 23/15/5
f 23/16/6 26/17/6 6/18/6
f 23/16/7 21/14/7 26/12/7
f 21/19/8 4/20/8 26/12/8
f 26/21/9 25/22/9 6/18/9
f 26/21/10 20/11/10 25/9/10
f 20/23/11 3/24/11 25/9/11
f 25/25/12 24/26/12 6/18/12
f 25/25/13 19/8/13 24/6/13
f 19/27/14 2/28/14 24/6/14
f 24/29/15 22/30/15 6/18/15
f 24/29/16 18/5/16 22/3/16
f 18/31/17 1/32/17 22/3/17
f 22/33/18 23/34/18 6/18/18
f 22/33/19 17/2/19 23/15/19
f 17/35/20 5/36/20 23/15/20
f 8/37/21 21/14/21 5/38/21
f 8/37/22 15/39/22 21/40/22
f 15/41/23 4/20/23 21/40/23
f 16/42/24 20/11/24 4/43/24
f 16/42/25 13/44/25 20/45/25
f 13/46/26 3/24/26 20/45/26
f 14/47/27 19/8/27 3/48/27
f 14/47/28 11/49/28 19/50/28
f 11/51/29 2/28/29 19/50/29
f 12/52/30 18/5/30 2/53/30
f 12/52/31 9/54/31 18/55/31
f 9/56/32 1/32/32 18/55/32
f 10/57/33 17/2/33 1/58/33
f 10/57/34 7/59/34 17/60/34
f 7/61/35 5/36/35 17/60/35
f 15/41/36 16/62/36 4/43/36
f 8/63/37 7/64/37 10/65/37 9/66/37 12/67/37 11/68/37 14/69/37 13/70/37 16/71/37 15/72/37
f 13/46/38 14/73/38 3/48/38
f 11/51/39 12/74/39 2/53/39
f 9/56/40 10/75/40 1/58/40
f 7/61/41 8/76/41 5/38/41
