# Blender v2.79 (sub 0) OBJ File: 'Cookie.blend'
# www.blender.org
mtllib Cookie.mtl
o Sphere
v 0.212077 0.723612 0.850649
v 0.212077 1.723607 0.525725
v 0.212077 1.723607 -0.525725
v 0.212077 0.723612 -0.850649
v 0.212075 0.105574 0.000000
v 0.478557 1.000000 0.000000
v -0.003515 0.048942 0.309013
v -0.003515 0.048942 -0.309013
v -0.003515 1.000000 1.000000
v -0.003515 0.412214 0.809017
v -0.003515 1.951058 0.309013
v -0.003515 1.587786 0.809017
v -0.003515 1.587786 -0.809017
v -0.003515 1.951058 -0.309013
v -0.003515 0.412214 -0.809017
v -0.003515 1.000000 -1.000000
v 0.249928 0.311811 0.499997
v 0.249928 1.262869 0.809012
v 0.249928 1.850648 0.000000
v 0.249928 1.262869 -0.809012
v 0.249928 0.311811 -0.499997
v 0.406562 0.837544 0.499995
v 0.406560 0.474270 0.000000
v 0.406562 1.425323 0.309011
v 0.406562 1.425323 -0.309011
v 0.406562 0.837544 -0.499995
vn 0.8776 -0.2615 0.4018
vn 0.8776 0.3013 0.3728
vn 0.8776 0.4477 -0.1714
vn 0.8776 -0.0246 -0.4787
vn 0.8776 -0.4629 -0.1245
vn 0.9860 -0.1350 -0.0981
vn 0.9384 -0.2796 -0.2031
vn 0.8776 -0.2615 -0.4018
vn 0.9860 0.0516 -0.1587
vn 0.9384 0.1068 -0.3287
vn 0.8776 0.3013 -0.3728
vn 0.9860 0.1669 0.0000
vn 0.9384 0.3456 0.0000
vn 0.8776 0.4477 0.1714
vn 0.9860 0.0516 0.1587
vn 0.9384 0.1068 0.3287
vn 0.8776 -0.0246 0.4787
vn 0.9860 -0.1350 0.0981
vn 0.9384 -0.2796 0.2031
vn 0.8776 -0.4629 0.1245
vn 0.5876 -0.7628 -0.2701
vn 0.3683 -0.7521 -0.5465
vn 0.5876 -0.4926 -0.6419
vn 0.5876 0.0212 -0.8089
vn 0.3683 0.2873 -0.8842
vn 0.5876 0.4583 -0.6669
vn 0.5876 0.7759 -0.2298
vn 0.3683 0.9297 0.0000
vn 0.5876 0.7759 0.2298
vn 0.5876 0.4583 0.6669
vn 0.3683 0.2873 0.8842
vn 0.5876 0.0212 0.8089
vn 0.5876 -0.4926 0.6419
vn 0.3683 -0.7521 0.5465
vn 0.5876 -0.7628 0.2701
vn 0.2541 -0.2989 -0.9199
vn -1.0000 -0.0000 0.0000
vn 0.2541 0.7825 -0.5685
vn 0.2541 0.7825 0.5685
vn 0.2541 -0.2989 0.9199
vn 0.2541 -0.9672 0.0000
usemtl Material.004
s off
f 1//1 17//1 22//1
f 2//2 18//2 24//2
f 3//3 19//3 25//3
f 4//4 20//4 26//4
f 5//5 21//5 23//5
f 23//6 26//6 6//6
f 23//7 21//7 26//7
f 21//8 4//8 26//8
f 26//9 25//9 6//9
f 26//10 20//10 25//10
f 20//11 3//11 25//11
f 25//12 24//12 6//12
f 25//13 19//13 24//13
f 19//14 2//14 24//14
f 24//15 22//15 6//15
f 24//16 18//16 22//16
f 18//17 1//17 22//17
f 22//18 23//18 6//18
f 22//19 17//19 23//19
f 17//20 5//20 23//20
f 8//21 21//21 5//21
f 8//22 15//22 21//22
f 15//23 4//23 21//23
f 16//24 20//24 4//24
f 16//25 13//25 20//25
f 13//26 3//26 20//26
f 14//27 19//27 3//27
f 14//28 11//28 19//28
f 11//29 2//29 19//29
f 12//30 18//30 2//30
f 12//31 9//31 18//31
f 9//32 1//32 18//32
f 10//33 17//33 1//33
f 10//34 7//34 17//34
f 7//35 5//35 17//35
f 15//36 16//36 4//36
f 8//37 7//37 10//37 9//37 12//37 11//37 14//37 13//37 16//37 15//37
f 13//38 14//38 3//38
f 11//39 12//39 2//39
f 9//40 10//40 1//40
f 7//41 8//41 5//41
