# Blender v2.79 (sub 0) OBJ File: 'GreenWallBot.blend'
# www.blender.org
mtllib GreenWallBot.mtl
o Cube
v 8.610376 22.488453 -20.787283
v 8.610376 0.000004 -20.787283
v 4.389531 22.488453 -22.067661
v 4.389531 0.000004 -22.067661
v -0.000001 22.488453 -22.499994
v -0.000001 0.000004 -22.499994
v 12.500329 0.000004 -18.708061
v 12.500329 22.488453 -18.708061
v 15.909901 0.000004 -15.909897
v 15.909901 22.488453 -15.909897
v 18.708067 0.000004 -12.500323
v 18.708067 22.488453 -12.500323
v 20.787287 0.000004 -8.610370
v 20.787287 22.488453 -8.610370
v 22.067667 0.000004 -4.389527
v 22.067667 22.488453 -4.389527
v 22.499998 0.000004 0.000005
v 22.499998 22.488453 0.000005
v 22.067669 0.000004 4.389536
v 22.067669 22.488453 4.389536
v 20.787289 0.000004 8.610381
v 20.787289 22.488453 8.610381
v 18.708067 0.000004 12.500336
v 18.708067 22.488453 12.500336
v 15.909901 0.000004 15.909908
v 15.909901 22.488453 15.909908
v 12.500328 0.000004 18.708073
v 12.500328 22.488453 18.708073
v 8.610373 0.000004 20.787298
v 8.610373 22.488453 20.787298
v 4.389526 0.000004 22.067675
v 4.389526 22.488453 22.067675
v -0.000008 0.000004 22.500008
v -0.000008 22.488453 22.500008
v -4.389543 0.000004 22.067673
v -4.389543 22.488453 22.067673
v -8.610389 0.000004 20.787292
v -8.610389 22.488453 20.787292
v -12.500343 0.000004 18.708067
v -12.500343 22.488453 18.708067
v -15.909914 0.000004 15.909899
v -15.909914 22.488453 15.909899
v -18.708076 0.000004 12.500322
v -18.708076 22.488453 12.500322
v -20.787298 0.000004 8.610367
v -20.787298 22.488453 8.610367
v -22.067673 0.000004 4.389519
v -22.067673 22.488453 4.389519
v -22.500000 0.000004 -0.000015
v -22.500000 22.488453 -0.000015
v -22.067667 0.000004 -4.389549
v -22.067667 22.488453 -4.389549
v -20.787281 0.000004 -8.610394
v -20.787281 22.488453 -8.610394
v -18.708052 0.000004 -12.500348
v -18.708052 22.488453 -12.500348
v -15.909883 0.000004 -15.909917
v -15.909883 22.488453 -15.909917
v -12.500306 0.000004 -18.708076
v -12.500306 22.488453 -18.708076
v -8.610348 0.000004 -20.787296
v -8.610348 22.488453 -20.787296
v -4.389500 0.000004 -22.067669
v -4.389500 22.488453 -22.067669
vt 0.000000 0.000000
vt 1.000000 0.000000
vt 1.000000 1.000000
vt 0.000000 0.000000
vt 1.000000 0.000000
vt 1.000000 1.000000
vt 0.000000 0.000000
vt 1.000000 0.000000
vt 1.000000 1.000000
vt 0.000000 0.000000
vt 1.000000 0.000000
vt 1.000000 1.000000
vt 0.000000 0.000000
vt 1.000000 0.000000
vt 1.000000 1.000000
vt 0.000000 0.000000
vt 1.000000 0.000000
vt 1.000000 1.000000
vt 0.000000 0.000000
vt 1.000000 0.000000
vt 1.000000 1.000000
vt 0.000000 0.000000
vt 1.000000 0.000000
vt 1.000000 1.000000
vt 0.000000 0.000000
vt 1.000000 0.000000
vt 1.000000 1.000000
vt 0.000000 0.000000
vt 1.000000 0.000000
vt 1.000000 1.000000
vt 0.000000 0.000000
vt 1.000000 0.000000
vt 1.000000 1.000000
vt 0.000000 0.000000
vt 1.000000 0.000000
vt 1.000000 1.000000
vt 0.000000 0.000000
vt 1.000000 0.000000
vt 1.000000 1.000000
vt 0.000000 0.000000
vt 1.000000 0.000000
vt 1.000000 1.000000
vt 0.000000 0.000000
vt 1.000000 0.000000
vt 1.000000 1.000000
vt 0.000000 0.000000
vt 1.000000 0.000000
vt 1.000000 1.000000
vt 0.000000 0.000000
vt 1.000000 0.000000
vt 1.000000 1.000000
vt 0.000000 0.000000
vt 1.000000 0.000000
vt 1.000000 1.000000
vt 0.000000 0.000000
vt 1.000000 0.000000
vt 1.000000 1.000000
vt 0.000000 0.000000
vt 1.000000 0.000000
vt 1.000000 1.000000
vt 0.000000 0.000000
vt 1.000000 0.000000
vt 1.000000 1.000000
vt 0.000000 0.000000
vt 1.000000 0.000000
vt 1.000000 1.000000
vt 0.000000 0.000000
vt 1.000000 0.000000
vt 1.000000 1.000000
vt 0.000000 0.000000
vt 1.000000 0.000000
vt 1.000000 1.000000
vt 0.000000 0.000000
vt 1.000000 0.000000
vt 1.000000 1.000000
vt 0.000000 0.000000
vt 1.000000 0.000000
vt 1.000000 1.000000
vt 0.000000 0.000000
vt 1.000000 0.000000
vt 1.000000 1.000000
vt 0.000000 0.000000
vt 1.000000 0.000000
vt 1.000000 1.000000
vt 0.000000 0.000000
vt 1.000000 0.000000
vt 1.000000 1.000000
vt 0.000000 0.000000
vt 1.000000 0.000000
vt 1.000000 1.000000
vt 0.000000 0.000000
vt 1.000000 1.000000
vt 0.000000 0.000000
vt 1.000000 0.000000
vt 1.000000 1.000000
vt 0.000000 0.000000
vt 1.000000 0.000000
vt 1.000000 0.000000
vt 1.000000 1.000000
vt 1.000000 0.000000
vt 1.000000 0.000000
vt 1.000000 0.000000
vt 1.000000 0.000000
vt 1.000000 0.000000
vt 1.000000 0.000000
vt 1.000000 0.000000
vt 1.000000 0.000000
vt 1.000000 0.000000
vt 1.000000 0.000000
vt 1.000000 0.000000
vt 1.000000 0.000000
vt 1.000000 0.000000
vt 1.000000 0.000000
vt 1.000000 0.000000
vt 1.000000 0.000000
vt 1.000000 0.000000
vt 1.000000 0.000000
vt 1.000000 0.000000
vt 1.000000 0.000000
vt 1.000000 0.000000
vt 1.000000 0.000000
vt 1.000000 0.000000
vt 1.000000 0.000000
vt 1.000000 0.000000
vt 1.000000 0.000000
vt 1.000000 0.000000
vt 1.000000 0.000000
vt 1.000000 0.000000
vt 0.000000 0.000000
vt 0.000000 0.000000
vt 0.000000 0.000000
vt 0.000000 0.000000
vt 0.000000 0.000000
vt 0.000000 0.000000
vt 0.000000 0.000000
vt 0.000000 0.000000
vt 0.000000 0.000000
vt 0.000000 0.000000
vt 0.000000 0.000000
vt 0.000000 0.000000
vt 0.000000 0.000000
vt 0.000000 0.000000
vt 0.000000 0.000000
vt 0.000000 0.000000
vt 0.000000 0.000000
vt 0.000000 0.000000
vt 0.000000 0.000000
vt 0.000000 0.000000
vt 0.000000 0.000000
vt 1.000000 0.000000
vt 1.000000 0.000000
vt 1.000000 1.000000
vt 1.000000 1.000000
vt 1.000000 1.000000
vt 1.000000 1.000000
vt 1.000000 1.000000
vt 1.000000 1.000000
vt 1.000000 1.000000
vt 1.000000 1.000000
vt 1.000000 1.000000
vt 1.000000 1.000000
vt 1.000000 1.000000
vt 1.000000 1.000000
vn 0.2903 0.0000 -0.9569
vn 0.0980 0.0000 -0.9952
vn 0.4714 0.0000 -0.8819
vn 0.6344 0.0000 -0.7730
vn 0.7730 0.0000 -0.6344
vn 0.8819 0.0000 -0.4714
vn 0.9569 0.0000 -0.2903
vn 0.9952 0.0000 -0.0980
vn 0.9952 0.0000 0.0980
vn 0.9569 0.0000 0.2903
vn 0.8819 0.0000 0.4714
vn 0.7730 0.0000 0.6344
vn 0.6344 0.0000 0.7730
vn 0.4714 0.0000 0.8819
vn 0.2903 0.0000 0.9569
vn 0.0980 0.0000 0.9952
vn -0.0980 0.0000 0.9952
vn -0.2903 0.0000 0.9569
vn -0.4714 0.0000 0.8819
vn -0.6344 0.0000 0.7730
vn -0.7730 0.0000 0.6344
vn -0.8819 0.0000 0.4714
vn -0.9569 0.0000 0.2903
vn -0.9952 0.0000 0.0980
vn -0.9952 0.0000 -0.0980
vn -0.9569 0.0000 -0.2903
vn -0.8819 0.0000 -0.4714
vn -0.7730 0.0000 -0.6344
vn -0.6344 0.0000 -0.7730
vn -0.4714 0.0000 -0.8819
vn 0.0000 -1.0000 0.0000
vn -0.2903 0.0000 -0.9569
vn -0.0980 0.0000 -0.9952
vn 0.0000 1.0000 0.0000
usemtl Material
s off
f 3/1/1 2/2/1 4/3/1
f 5/4/2 4/5/2 6/6/2
f 1/7/3 7/8/3 2/9/3
f 8/10/4 9/11/4 7/12/4
f 10/13/5 11/14/5 9/15/5
f 12/16/6 13/17/6 11/18/6
f 14/19/7 15/20/7 13/21/7
f 16/22/8 17/23/8 15/24/8
f 18/25/9 19/26/9 17/27/9
f 20/28/10 21/29/10 19/30/10
f 22/31/11 23/32/11 21/33/11
f 24/34/12 25/35/12 23/36/12
f 26/37/13 27/38/13 25/39/13
f 28/40/14 29/41/14 27/42/14
f 30/43/15 31/44/15 29/45/15
f 32/46/16 33/47/16 31/48/16
f 34/49/17 35/50/17 33/51/17
f 36/52/18 37/53/18 35/54/18
f 38/55/19 39/56/19 37/57/19
f 40/58/20 41/59/20 39/60/20
f 42/61/21 43/62/21 41/63/21
f 44/64/22 45/65/22 43/66/22
f 46/67/23 47/68/23 45/69/23
f 48/70/24 49/71/24 47/72/24
f 50/73/25 51/74/25 49/75/25
f 52/76/26 53/77/26 51/78/26
f 54/79/27 55/80/27 53/81/27
f 56/82/28 57/83/28 55/84/28
f 58/85/29 59/86/29 57/87/29
f 60/88/30 61/89/30 59/90/30
f 31/91/31 47/68/31 63/92/31
f 62/93/32 63/94/32 61/95/32
f 64/96/33 6/97/33 63/92/33
f 40/58/34 24/98/34 8/99/34
f 3/1/1 1/100/1 2/9/1
f 5/4/2 3/101/2 4/3/2
f 1/7/3 8/102/3 7/12/3
f 8/10/4 10/103/4 9/15/4
f 10/13/5 12/104/5 11/18/5
f 12/16/6 14/105/6 13/21/6
f 14/19/7 16/106/7 15/24/7
f 16/22/8 18/107/8 17/27/8
f 18/25/9 20/108/9 19/30/9
f 20/28/10 22/109/10 21/33/10
f 22/31/11 24/98/11 23/36/11
f 24/34/12 26/110/12 25/39/12
f 26/37/13 28/111/13 27/42/13
f 28/40/14 30/112/14 29/45/14
f 30/43/15 32/113/15 31/48/15
f 32/46/16 34/114/16 33/51/16
f 34/49/17 36/115/17 35/54/17
f 36/52/18 38/116/18 37/57/18
f 38/55/19 40/117/19 39/60/19
f 40/58/20 42/118/20 41/63/20
f 42/61/21 44/119/21 43/66/21
f 44/64/22 46/120/22 45/69/22
f 46/67/23 48/121/23 47/72/23
f 48/70/24 50/122/24 49/75/24
f 50/73/25 52/123/25 51/78/25
f 52/76/26 54/124/26 53/81/26
f 54/79/27 56/125/27 55/84/27
f 56/82/28 58/126/28 57/87/28
f 58/85/29 60/127/29 59/90/29
f 60/88/30 62/128/30 61/95/30
f 63/129/31 6/97/31 4/3/31
f 4/130/31 2/2/31 7/12/31
f 7/131/31 9/11/31 11/18/31
f 11/132/31 13/17/31 7/12/31
f 13/133/31 15/20/31 7/12/31
f 15/134/31 17/23/31 19/30/31
f 19/135/31 21/29/31 15/24/31
f 21/136/31 23/32/31 15/24/31
f 23/137/31 25/35/31 31/48/31
f 25/138/31 27/38/31 31/48/31
f 27/139/31 29/41/31 31/48/31
f 31/91/31 33/47/31 35/54/31
f 35/140/31 37/53/31 39/60/31
f 39/141/31 41/59/31 47/72/31
f 41/142/31 43/62/31 47/72/31
f 43/143/31 45/65/31 47/72/31
f 47/144/31 49/71/31 51/78/31
f 51/145/31 53/77/31 47/72/31
f 53/146/31 55/80/31 47/72/31
f 55/147/31 57/83/31 63/92/31
f 57/148/31 59/86/31 63/92/31
f 59/149/31 61/89/31 63/92/31
f 63/129/31 4/5/31 15/24/31
f 4/130/31 7/8/31 15/24/31
f 31/91/31 35/50/31 47/72/31
f 35/140/31 39/56/31 47/72/31
f 15/134/31 23/32/31 31/48/31
f 47/144/31 55/80/31 63/92/31
f 63/129/31 15/20/31 31/48/31
f 62/93/32 64/150/32 63/92/32
f 64/96/33 5/151/33 6/6/33
f 8/10/34 1/100/34 3/152/34
f 3/1/34 5/151/34 64/153/34
f 64/96/34 62/128/34 60/154/34
f 60/88/34 58/126/34 64/153/34
f 58/85/34 56/125/34 64/153/34
f 56/82/34 54/124/34 48/155/34
f 54/79/34 52/123/34 48/155/34
f 52/76/34 50/122/34 48/155/34
f 48/70/34 46/120/34 44/156/34
f 44/64/34 42/118/34 48/155/34
f 42/61/34 40/117/34 48/155/34
f 40/58/34 38/116/34 36/157/34
f 36/52/34 34/114/34 32/158/34
f 32/46/34 30/112/34 28/159/34
f 28/40/34 26/110/34 32/158/34
f 26/37/34 24/98/34 32/158/34
f 24/34/34 22/109/34 16/160/34
f 22/31/34 20/108/34 16/160/34
f 20/28/34 18/107/34 16/160/34
f 16/22/34 14/105/34 12/161/34
f 12/16/34 10/103/34 16/160/34
f 10/13/34 8/102/34 16/160/34
f 8/10/34 3/101/34 64/153/34
f 40/58/34 36/115/34 24/162/34
f 36/52/34 32/113/34 24/162/34
f 8/10/34 64/150/34 56/163/34
f 56/82/34 48/121/34 8/99/34
f 48/70/34 40/117/34 8/99/34
f 24/34/34 16/106/34 8/99/34
