# Blender v2.79 (sub 0) OBJ File: 'GreenWallTop.blend'
# www.blender.org
mtllib GreenWallTop.mtl
o Cube
v -96.423050 0.000017 -72.990379
v 111.423050 0.000017 47.009613
v 96.423035 0.000017 72.990372
v -111.423096 0.000017 -47.009644
v -96.423012 90.000008 -72.990364
v 111.423103 90.000008 47.009655
v 96.423012 90.000008 72.990356
v -111.423050 90.000008 -47.009617
vt 0.000000 0.000000
vt 1.000000 0.000000
vt 1.000000 1.000000
vt 0.000000 0.000000
vt 1.000000 0.000000
vt 1.000000 1.000000
vt 1.000000 0.000000
vt 1.000000 1.000000
vt 0.000000 0.000000
vt 1.000000 1.000000
vt 0.000000 0.000000
vt 1.000000 0.000000
vt 1.000000 1.000000
vt 1.000000 1.000000
vt 1.000000 1.000000
vt 1.000000 0.000000
vt 1.000000 1.000000
vt 1.000000 0.000000
vn 0.0000 -1.0000 0.0000
vn 0.0000 1.0000 -0.0000
vn 0.5000 -0.0000 -0.8660
vn 0.8660 -0.0000 0.5000
vn -0.5000 0.0000 0.8660
vn -0.8660 0.0000 -0.5000
usemtl Material
s off
f 1/1/1 3/2/1 4/3/1
f 5/4/2 7/5/2 6/6/2
f 5/4/3 2/7/3 1/8/3
f 6/9/4 3/2/4 2/10/4
f 3/11/5 8/12/5 4/3/5
f 1/1/6 8/12/6 5/13/6
f 1/1/1 2/7/1 3/14/1
f 5/4/2 8/12/2 7/15/2
f 5/4/3 6/16/3 2/10/3
f 6/9/4 7/5/4 3/14/4
f 3/11/5 7/5/5 8/17/5
f 1/1/6 4/18/6 8/17/6
