# Blender v2.79 (sub 0) OBJ File: 'Pointer.blend'
# www.blender.org
mtllib Pointer.mtl
o Plane
v 0.000000 0.000000 1.000000
v -1.000000 0.000000 -1.000000
v 1.000000 0.000000 -1.000000
v 0.000000 0.000000 -0.500000
v -1.000000 0.250000 -1.000000
v 1.000000 0.250000 -1.000000
v 0.000000 0.250000 -0.500000
vt 0.000000 0.000000
vt 1.000000 0.000000
vt 1.000000 1.000000
vt 0.000000 0.000000
vt 1.000000 0.000000
vt 1.000000 1.000000
vt 0.000000 0.000000
vt 1.000000 1.000000
vt 1.000000 0.000000
vt 0.000000 0.000000
vt 1.000000 1.000000
vt 0.000000 0.000000
vt 1.000000 1.000000
vt 1.000000 0.000000
vt 1.000000 1.000000
vt 1.000000 0.000000
vn 0.0000 1.0000 0.0000
vn 0.0819 -0.9831 -0.1638
vn 0.8944 0.0000 -0.4472
vn -0.4472 0.0000 0.8944
vn -0.0819 -0.9831 -0.1638
vn 0.4472 0.0000 0.8944
vn -0.8944 0.0000 -0.4472
usemtl None
s off
f 2/1/1 1/2/1 4/3/1
f 3/4/1 4/5/1 1/6/1
f 7/7/2 1/2/2 5/8/2
f 2/1/3 5/9/3 1/6/3
f 4/10/4 5/9/4 2/11/4
f 6/12/5 1/2/5 7/13/5
f 3/4/6 7/14/6 4/3/6
f 3/4/7 1/2/7 6/15/7
f 4/10/4 7/14/4 5/8/4
f 3/4/6 6/16/6 7/13/6
