# Blender v2.79 (sub 0) OBJ File: 'rect.blend'
# www.blender.org
mtllib rect.mtl
o Cube
v 21.49920 -10.00185 -10.12740
v 21.49920 -10.00185 9.87260
v -21.38465 -10.00185 9.87260
v -21.38464 -10.00185 -10.12740
v 21.49921 9.99815 -10.12739
v 21.49919 9.99815 9.87261
v -21.38465 9.99815 9.87260
v -21.38464 9.99815 -10.12740
vn 0.0000 -10.0000 0.0000
vn 0.0000 10.0000 0.0000
vn 10.0000 -0.0000 0.0000
vn -0.0000 -0.0000 10.0000
vn -10.0000 -0.0000 -0.0000
vn 0.0000 0.0000 -10.0000
usemtl None
s off
f 2//1 4//1 1//1
f 8//2 6//2 5//2
f 5//3 2//3 1//3
f 6//4 3//4 2//4
f 3//5 8//5 4//5
f 1//6 8//6 5//6
f 2//1 3//1 4//1
f 8//2 7//2 6//2
f 5//3 6//3 2//3
f 6//4 7//4 3//4
f 3//5 7//5 8//5
f 1//6 4//6 8//6
