# Blender v2.79 (sub 0) OBJ File: 'ShoppingCart.blend'
# www.blender.org
mtllib ShoppingCart.mtl
o Cube
v -1.734993 -0.752545 2.231251
v -1.734995 -1.191530 -1.436524
v 1.734994 -1.191530 -1.436525
v 1.734994 -0.752545 2.231251
v -1.734994 0.846120 2.231250
v -1.734994 1.692285 -2.231251
v 1.734994 1.692285 -2.231250
v 1.734995 0.846120 2.231250
v -1.734994 -0.791956 -1.546639
v 1.734994 -0.791956 -1.546640
v -1.734995 -1.191530 -1.436524
v 1.734994 -1.191530 -1.436525
v -1.734994 -0.791956 -1.546639
v 1.734994 -0.791956 -1.546640
v -1.765006 -1.990982 -1.850594
v 1.704983 -1.990982 -1.850595
v -1.765006 -1.591408 -1.960709
v 1.704983 -1.591408 -1.960710
v -1.765005 -1.990982 2.041622
v 1.704984 -1.990982 2.041621
v -1.753580 -1.686621 -1.692952
v 1.716408 -1.686621 -1.692953
v -1.753579 -1.686621 2.199263
v 1.716409 -1.686621 2.199263
v 1.734994 2.142233 -2.768747
v -1.734994 2.142233 -2.768748
v -1.734994 1.602535 -1.757926
v 1.734994 1.602535 -1.757925
v -1.734994 2.052481 -2.295422
v 1.734994 2.052481 -2.295421
vt 0.321542 0.558119
vt 0.297337 0.576308
vt 0.301757 0.579991
vt 0.000064 0.673432
vt 0.006161 0.590554
vt 0.139937 0.902992
vt 0.280678 0.980349
vt 0.143336 0.999936
vt 0.047040 0.222965
vt 0.337842 0.228335
vt 0.147613 0.114655
vt 0.295403 0.115016
vt 0.147613 0.114655
vt 0.096186 0.854973
vt 0.256841 0.886319
vt 0.285424 0.827985
vt 0.404891 0.916265
vt 0.218225 0.089495
vt 0.222997 0.048496
vt 0.192766 0.108235
vt 0.087899 0.196033
vt 0.320376 0.200604
vt 0.295403 0.115016
vt 0.288854 0.121669
vt 0.277885 0.098048
vt 0.160012 0.126077
vt 0.288245 0.000064
vt 0.257885 0.074807
vt 0.222752 0.089997
vt 0.273562 0.025738
vt 0.238010 0.059974
vt 0.259200 0.074330
vt 0.010938 0.635319
vt 0.289884 0.615751
vt 0.032573 0.652448
vt 0.006161 0.973131
vn -1.0000 -0.0000 -0.0000
vn 0.0000 -0.7668 -0.6419
vn 0.0000 -0.9929 0.1188
vn -0.0000 -0.2657 -0.9641
vn 0.0000 0.0000 1.0000
vn 0.9993 -0.0375 -0.0000
vn -0.0000 0.4599 -0.8880
vn 0.9988 -0.0130 -0.0473
vn 0.0000 -1.0000 -0.0000
vn 0.0000 -0.4599 0.8880
vn -0.9988 0.0130 0.0473
vn 0.0000 1.0000 0.0000
vn -0.9993 0.0375 0.0000
vn 1.0000 -0.0000 -0.0000
vn -0.0000 0.9825 0.1863
vn -0.0000 0.7668 0.6419
usemtl Material
s off
f 6/1/1 29/2/1 26/3/1
f 6/1/2 25/4/2 7/5/2
f 4/6/3 11/7/3 12/8/3
f 6/1/4 10/9/4 9/10/4
f 3/11/5 11/12/5 12/13/5
f 8/14/5 1/15/5 4/6/5
f 11/7/1 5/16/1 6/17/1
f 22/18/6 20/19/6 16/20/6
f 9/10/5 14/21/5 13/22/5
f 2/23/5 13/22/5 11/12/5
f 10/9/5 12/13/5 14/21/5
f 17/24/4 16/20/4 15/25/4
f 18/26/7 13/22/7 14/21/7
f 12/13/8 18/26/8 14/21/8
f 16/20/9 19/27/9 15/25/9
f 11/28/10 22/18/10 12/29/10
f 17/24/11 11/12/11 13/22/11
f 23/30/10 20/19/10 24/31/10
f 22/18/12 23/30/12 24/31/12
f 21/32/13 19/27/13 23/30/13
f 12/8/14 8/14/14 4/6/14
f 30/33/15 26/3/15 29/2/15
f 8/14/15 27/34/15 5/16/15
f 7/5/14 30/33/14 28/35/14
f 27/34/16 30/33/16 29/2/16
f 6/1/1 27/34/1 29/2/1
f 6/1/2 26/3/2 25/4/2
f 4/6/3 1/15/3 11/7/3
f 6/1/4 7/5/4 10/9/4
f 3/11/5 2/23/5 11/12/5
f 8/14/5 5/16/5 1/15/5
f 11/7/1 1/15/1 5/16/1
f 22/18/6 24/31/6 20/19/6
f 9/10/5 10/9/5 14/21/5
f 2/23/5 9/10/5 13/22/5
f 10/9/5 3/11/5 12/13/5
f 17/24/4 18/26/4 16/20/4
f 18/26/7 17/24/7 13/22/7
f 12/13/8 16/20/8 18/26/8
f 16/20/9 20/19/9 19/27/9
f 11/28/10 21/32/10 22/18/10
f 17/24/11 15/25/11 11/12/11
f 23/30/10 19/27/10 20/19/10
f 22/18/12 21/32/12 23/30/12
f 21/32/13 15/25/13 19/27/13
f 12/8/14 7/36/14 8/14/14
f 30/33/15 25/4/15 26/3/15
f 8/14/15 28/35/15 27/34/15
f 7/5/14 25/4/14 30/33/14
f 27/34/16 28/35/16 30/33/16
l 2 6
l 3 7
