# Blender v2.79 (sub 0) OBJ File: 'Spotlight.blend'
# www.blender.org
mtllib Spotlight.mtl
o Cylinder
v 0.000000 -10.000000 -2.500000
v 0.000000 74.000000 -2.500000
v 0.487726 -10.000000 -2.451963
v 0.487726 74.000000 -2.451963
v 0.956709 -10.000000 -2.309699
v 0.956709 74.000000 -2.309699
v 1.388926 -10.000000 -2.078674
v 1.388926 74.000000 -2.078674
v 1.767767 -10.000000 -1.767767
v 1.767767 74.000000 -1.767767
v 2.078674 -10.000000 -1.388925
v 2.078674 74.000000 -1.388925
v 2.309699 -10.000000 -0.956709
v 2.309699 74.000000 -0.956709
v 2.451963 -10.000000 -0.487726
v 2.451963 74.000000 -0.487726
v 2.500000 -10.000000 -0.000000
v 2.500000 74.000000 -0.000000
v 2.451963 -10.000000 0.487725
v 2.451963 74.000000 0.487725
v 2.309699 -10.000000 0.956708
v 2.309699 74.000000 0.956708
v 2.078674 -10.000000 1.388925
v 2.078674 74.000000 1.388925
v 1.767767 -10.000000 1.767767
v 1.767767 74.000000 1.767767
v 1.388925 -10.000000 2.078674
v 1.388925 74.000000 2.078674
v 0.956708 -10.000000 2.309699
v 0.956708 74.000000 2.309699
v 0.487725 -10.000000 2.451963
v 0.487725 74.000000 2.451963
v -0.000001 -10.000000 2.500000
v -0.000001 74.000000 2.500000
v -0.487727 -10.000000 2.451963
v -0.487727 74.000000 2.451963
v -0.956710 -10.000000 2.309698
v -0.956710 74.000000 2.309698
v -1.388927 -10.000000 2.078673
v -1.388927 74.000000 2.078673
v -1.767768 -10.000000 1.767766
v -1.767768 74.000000 1.767766
v -2.078675 -10.000000 1.388924
v -2.078675 74.000000 1.388924
v -2.309700 -10.000000 0.956707
v -2.309700 74.000000 0.956707
v -2.451964 -10.000000 0.487724
v -2.451964 74.000000 0.487724
v -2.500000 -10.000000 -0.000002
v -2.500000 74.000000 -0.000002
v -2.451963 -10.000000 -0.487728
v -2.451963 74.000000 -0.487728
v -2.309698 -10.000000 -0.956711
v -2.309698 74.000000 -0.956711
v -2.078672 -10.000000 -1.388928
v -2.078672 74.000000 -1.388928
v -1.767765 -10.000000 -1.767769
v -1.767765 74.000000 -1.767769
v -1.388923 -10.000000 -2.078676
v -1.388923 74.000000 -2.078676
v -0.956705 -10.000000 -2.309700
v -0.956705 74.000000 -2.309700
v -0.487722 -10.000000 -2.451964
v -0.487722 74.000000 -2.451964
vt 1.000000 0.000000
vt 0.000000 1.000000
vt 0.000000 0.000000
vt 1.000000 0.000000
vt 0.000000 1.000000
vt 0.000000 0.000000
vt 1.000000 0.000000
vt 0.000000 1.000000
vt 0.000000 0.000000
vt 1.000000 0.000000
vt 0.000000 1.000000
vt 0.000000 0.000000
vt 1.000000 0.000000
vt 0.000000 1.000000
vt 0.000000 0.000000
vt 1.000000 0.000000
vt 0.000000 1.000000
vt 0.000000 0.000000
vt 1.000000 0.000000
vt 0.000000 1.000000
vt 0.000000 0.000000
vt 1.000000 0.000000
vt 0.000000 1.000000
vt 0.000000 0.000000
vt 1.000000 0.000000
vt 0.000000 1.000000
vt 0.000000 0.000000
vt 1.000000 0.000000
vt 0.000000 1.000000
vt 0.000000 0.000000
vt 1.000000 0.000000
vt 0.000000 1.000000
vt 0.000000 0.000000
vt 1.000000 0.000000
vt 0.000000 1.000000
vt 0.000000 0.000000
vt 1.000000 0.000000
vt 0.000000 1.000000
vt 0.000000 0.000000
vt 1.000000 0.000000
vt 0.000000 1.000000
vt 0.000000 0.000000
vt 1.000000 0.000000
vt 0.000000 1.000000
vt 0.000000 0.000000
vt 1.000000 0.000000
vt 0.000000 1.000000
vt 0.000000 0.000000
vt 1.000000 0.000000
vt 0.000000 1.000000
vt 0.000000 0.000000
vt 1.000000 0.000000
vt 0.000000 1.000000
vt 0.000000 0.000000
vt 1.000000 0.000000
vt 0.000000 1.000000
vt 0.000000 0.000000
vt 1.000000 0.000000
vt 0.000000 1.000000
vt 0.000000 0.000000
vt 1.000000 0.000000
vt 0.000000 1.000000
vt 0.000000 0.000000
vt 1.000000 0.000000
vt 0.000000 1.000000
vt 0.000000 0.000000
vt 1.000000 0.000000
vt 0.000000 1.000000
vt 0.000000 0.000000
vt 1.000000 0.000000
vt 0.000000 1.000000
vt 0.000000 0.000000
vt 1.000000 0.000000
vt 0.000000 1.000000
vt 0.000000 0.000000
vt 1.000000 0.000000
vt 0.000000 1.000000
vt 0.000000 0.000000
vt 1.000000 0.000000
vt 0.000000 1.000000
vt 0.000000 0.000000
vt 1.000000 0.000000
vt 0.000000 1.000000
vt 0.000000 0.000000
vt 1.000000 0.000000
vt 0.000000 1.000000
vt 0.000000 0.000000
vt 1.000000 0.000000
vt 0.000000 1.000000
vt 0.000000 0.000000
vt 0.990393 0.597545
vt 0.597545 0.009607
vt 0.009607 0.402455
vt 1.000000 0.000000
vt 0.000000 1.000000
vt 0.000000 0.000000
vt 1.000000 0.000000
vt 0.000000 1.000000
vt 0.000000 0.000000
vt 0.990393 0.597545
vt 0.597545 0.009607
vt 0.009607 0.402455
vt 1.000000 1.000000
vt 1.000000 1.000000
vt 1.000000 1.000000
vt 1.000000 1.000000
vt 1.000000 1.000000
vt 1.000000 1.000000
vt 1.000000 1.000000
vt 1.000000 1.000000
vt 1.000000 1.000000
vt 1.000000 1.000000
vt 1.000000 1.000000
vt 1.000000 1.000000
vt 1.000000 1.000000
vt 1.000000 1.000000
vt 1.000000 1.000000
vt 1.000000 1.000000
vt 1.000000 1.000000
vt 1.000000 1.000000
vt 1.000000 1.000000
vt 1.000000 1.000000
vt 1.000000 1.000000
vt 1.000000 1.000000
vt 1.000000 1.000000
vt 1.000000 1.000000
vt 1.000000 1.000000
vt 1.000000 1.000000
vt 1.000000 1.000000
vt 1.000000 1.000000
vt 1.000000 1.000000
vt 1.000000 1.000000
vt 0.402456 0.990393
vt 0.500000 1.000000
vt 0.597545 0.990393
vt 0.691342 0.961940
vt 0.777785 0.915735
vt 0.853553 0.853553
vt 0.915735 0.777785
vt 0.961940 0.691342
vt 1.000000 0.500000
vt 0.990393 0.402455
vt 0.961940 0.308658
vt 0.915735 0.222215
vt 0.853553 0.146447
vt 0.777785 0.084265
vt 0.691342 0.038060
vt 0.500000 0.000000
vt 0.402455 0.009607
vt 0.308658 0.038060
vt 0.222215 0.084265
vt 0.146446 0.146447
vt 0.084265 0.222215
vt 0.038060 0.308659
vt 0.000000 0.500000
vt 0.009607 0.597546
vt 0.038060 0.691342
vt 0.084266 0.777786
vt 0.146447 0.853554
vt 0.222215 0.915735
vt 0.308659 0.961940
vt 1.000000 1.000000
vt 1.000000 1.000000
vt 0.402456 0.990393
vt 0.500000 1.000000
vt 0.597545 0.990393
vt 0.691342 0.961940
vt 0.777785 0.915735
vt 0.853553 0.853553
vt 0.915735 0.777785
vt 0.961940 0.691342
vt 1.000000 0.500000
vt 0.990393 0.402455
vt 0.961940 0.308658
vt 0.915735 0.222215
vt 0.853553 0.146447
vt 0.777785 0.084265
vt 0.691342 0.038060
vt 0.500000 0.000000
vt 0.402455 0.009607
vt 0.308658 0.038060
vt 0.222215 0.084265
vt 0.146446 0.146447
vt 0.084265 0.222215
vt 0.038060 0.308659
vt 0.000000 0.500000
vt 0.009607 0.597546
vt 0.038060 0.691342
vt 0.084266 0.777786
vt 0.146447 0.853554
vt 0.222215 0.915735
vt 0.308659 0.961940
vn 0.0980 0.0000 -0.9952
vn 0.2903 0.0000 -0.9569
vn 0.4714 0.0000 -0.8819
vn 0.6344 0.0000 -0.7730
vn 0.7730 0.0000 -0.6344
vn 0.8819 0.0000 -0.4714
vn 0.9569 0.0000 -0.2903
vn 0.9952 0.0000 -0.0980
vn 0.9952 0.0000 0.0980
vn 0.9569 0.0000 0.2903
vn 0.8819 0.0000 0.4714
vn 0.7730 0.0000 0.6344
vn 0.6344 0.0000 0.7730
vn 0.4714 0.0000 0.8819
vn 0.2903 0.0000 0.9569
vn 0.0980 0.0000 0.9952
vn -0.0980 0.0000 0.9952
vn -0.2903 0.0000 0.9569
vn -0.4714 0.0000 0.8819
vn -0.6344 0.0000 0.7730
vn -0.7730 0.0000 0.6344
vn -0.8819 0.0000 0.4714
vn -0.9569 0.0000 0.2903
vn -0.9952 0.0000 0.0980
vn -0.9952 0.0000 -0.0980
vn -0.9569 0.0000 -0.2903
vn -0.8819 0.0000 -0.4714
vn -0.7730 0.0000 -0.6344
vn -0.6344 0.0000 -0.7730
vn -0.4714 0.0000 -0.8819
vn 0.0000 1.0000 0.0000
vn -0.2903 0.0000 -0.9569
vn -0.0980 0.0000 -0.9952
vn 0.0000 -1.0000 0.0000
vn 0.0000 1.0000 -0.0001
vn 0.0000 1.0000 0.0002
usemtl (null)
s off
f 2/1/1 3/2/1 1/3/1
f 4/4/2 5/5/2 3/6/2
f 6/7/3 7/8/3 5/9/3
f 8/10/4 9/11/4 7/12/4
f 10/13/5 11/14/5 9/15/5
f 12/16/6 13/17/6 11/18/6
f 14/19/7 15/20/7 13/21/7
f 16/22/8 17/23/8 15/24/8
f 18/25/9 19/26/9 17/27/9
f 20/28/10 21/29/10 19/30/10
f 22/31/11 23/32/11 21/33/11
f 24/34/12 25/35/12 23/36/12
f 26/37/13 27/38/13 25/39/13
f 28/40/14 29/41/14 27/42/14
f 30/43/15 31/44/15 29/45/15
f 32/46/16 33/47/16 31/48/16
f 34/49/17 35/50/17 33/51/17
f 36/52/18 37/53/18 35/54/18
f 38/55/19 39/56/19 37/57/19
f 40/58/20 41/59/20 39/60/20
f 42/61/21 43/62/21 41/63/21
f 44/64/22 45/65/22 43/66/22
f 46/67/23 47/68/23 45/69/23
f 48/70/24 49/71/24 47/72/24
f 50/73/25 51/74/25 49/75/25
f 52/76/26 53/77/26 51/78/26
f 54/79/27 55/80/27 53/81/27
f 56/82/28 57/83/28 55/84/28
f 58/85/29 59/86/29 57/87/29
f 60/88/30 61/89/30 59/90/30
f 54/91/31 38/92/31 22/93/31
f 62/94/32 63/95/32 61/96/32
f 64/97/33 1/98/33 63/99/33
f 15/100/34 31/101/34 47/102/34
f 2/1/1 4/103/1 3/2/1
f 4/4/2 6/104/2 5/5/2
f 6/7/3 8/105/3 7/8/3
f 8/10/4 10/106/4 9/11/4
f 10/13/5 12/107/5 11/14/5
f 12/16/6 14/108/6 13/17/6
f 14/19/7 16/109/7 15/20/7
f 16/22/8 18/110/8 17/23/8
f 18/25/9 20/111/9 19/26/9
f 20/28/10 22/112/10 21/29/10
f 22/31/11 24/113/11 23/32/11
f 24/34/12 26/114/12 25/35/12
f 26/37/13 28/115/13 27/38/13
f 28/40/14 30/116/14 29/41/14
f 30/43/15 32/117/15 31/44/15
f 32/46/16 34/118/16 33/47/16
f 34/49/17 36/119/17 35/50/17
f 36/52/18 38/120/18 37/53/18
f 38/55/19 40/121/19 39/56/19
f 40/58/20 42/122/20 41/59/20
f 42/61/21 44/123/21 43/62/21
f 44/64/22 46/124/22 45/65/22
f 46/67/23 48/125/23 47/68/23
f 48/70/24 50/126/24 49/71/24
f 50/73/25 52/127/25 51/74/25
f 52/76/26 54/128/26 53/77/26
f 54/79/27 56/129/27 55/80/27
f 56/82/28 58/130/28 57/83/28
f 58/85/29 60/131/29 59/86/29
f 60/88/30 62/132/30 61/89/30
f 6/133/31 4/134/31 2/135/31
f 2/135/31 64/136/31 6/133/31
f 64/136/31 62/137/31 6/133/31
f 62/137/35 60/138/35 58/139/35
f 58/139/31 56/140/31 54/91/31
f 54/91/31 52/141/31 50/142/31
f 50/142/31 48/143/31 54/91/31
f 48/143/31 46/144/31 54/91/31
f 46/144/31 44/145/31 38/92/31
f 44/145/31 42/146/31 38/92/31
f 42/146/31 40/147/31 38/92/31
f 38/92/31 36/148/31 34/149/31
f 34/149/36 32/150/36 30/151/36
f 30/151/31 28/152/31 26/153/31
f 26/153/31 24/154/31 22/93/31
f 22/93/31 20/155/31 18/156/31
f 18/156/31 16/157/31 22/93/31
f 16/157/31 14/158/31 22/93/31
f 14/158/31 12/159/31 10/160/31
f 10/160/35 8/161/35 6/133/35
f 62/137/31 58/139/31 6/133/31
f 58/139/31 54/91/31 6/133/31
f 38/92/31 34/149/31 22/93/31
f 34/149/31 30/151/31 22/93/31
f 30/151/31 26/153/31 22/93/31
f 14/158/31 10/160/31 22/93/31
f 10/160/31 6/133/31 22/93/31
f 54/91/31 46/144/31 38/92/31
f 6/133/31 54/91/31 22/93/31
f 62/94/32 64/162/32 63/95/32
f 64/97/33 2/163/33 1/98/33
f 63/164/34 1/165/34 3/166/34
f 3/166/34 5/167/34 7/168/34
f 7/168/34 9/169/34 11/170/34
f 11/170/34 13/171/34 7/168/34
f 13/171/34 15/100/34 7/168/34
f 15/100/34 17/172/34 19/173/34
f 19/173/34 21/174/34 15/100/34
f 21/174/34 23/175/34 15/100/34
f 23/175/34 25/176/34 31/101/34
f 25/176/34 27/177/34 31/101/34
f 27/177/34 29/178/34 31/101/34
f 31/101/34 33/179/34 35/180/34
f 35/180/34 37/181/34 39/182/34
f 39/182/34 41/183/34 43/184/34
f 43/184/34 45/185/34 47/102/34
f 47/102/34 49/186/34 51/187/34
f 51/187/34 53/188/34 55/189/34
f 55/189/34 57/190/34 63/164/34
f 57/190/34 59/191/34 63/164/34
f 59/191/34 61/192/34 63/164/34
f 63/164/34 3/166/34 7/168/34
f 31/101/34 35/180/34 47/102/34
f 35/180/34 39/182/34 47/102/34
f 39/182/34 43/184/34 47/102/34
f 47/102/34 51/187/34 63/164/34
f 51/187/34 55/189/34 63/164/34
f 63/164/34 7/168/34 15/100/34
f 15/100/34 23/175/34 31/101/34
f 63/164/34 15/100/34 47/102/34
