# Blender v2.79 (sub 0) OBJ File: 'StoreRoof.blend'
# www.blender.org
mtllib StoreRoof.mtl
o Cone
v 0.000000 27.878788 -225.000000
v 43.895325 27.878788 -220.676682
v 86.103775 27.878788 -207.872894
v 125.003304 27.878788 -187.080658
v 159.099030 27.878788 -159.099030
v 187.080673 27.878788 -125.003288
v 207.872894 27.878788 -86.103767
v 220.676682 27.878788 -43.895329
v 225.000000 27.878788 -0.000017
v 220.676697 27.878788 43.895294
v 207.872894 27.878788 86.103737
v 187.080673 27.878788 125.003288
v 159.099030 27.878788 159.099030
v 125.003288 27.878788 187.080673
v 86.103737 27.878788 207.872910
v 43.895267 27.878788 220.676697
v -0.000073 27.878788 225.000000
v -43.895412 27.878788 220.676666
v -86.103874 27.878788 207.872849
v -125.003410 27.878788 187.080597
v -159.099136 27.878788 159.098923
v -187.080750 27.878788 125.003174
v -207.872971 27.878788 86.103600
v 0.000000 97.878792 0.000000
v -220.676727 27.878788 43.895130
v -225.000000 27.878788 -0.000217
v -220.676636 27.878788 -43.895554
v -207.872787 27.878788 -86.104004
v -187.080505 27.878788 -125.003532
v -159.098816 27.878788 -159.099228
v -125.003052 27.878788 -187.080826
v -86.103470 27.878788 -207.873016
v -43.894985 27.878788 -220.676743
vt 0.736792 0.056995
vt 0.818668 0.111703
vt 0.500000 0.500000
vt 0.888298 0.181333
vt 0.943006 0.263209
vt 0.980689 0.354185
vt 0.999900 0.450765
vt 0.999900 0.549236
vt 0.980689 0.645816
vt 0.943006 0.736792
vt 0.888297 0.818668
vt 0.818667 0.888298
vt 0.736791 0.943006
vt 0.645815 0.980689
vt 0.549236 0.999900
vt 0.450764 0.999900
vt 0.354184 0.980689
vt 0.263208 0.943006
vt 0.181332 0.888297
vt 0.111702 0.818667
vt 0.056994 0.736791
vt 0.019311 0.645815
vt 0.000100 0.549235
vt 0.000100 0.450764
vt 0.019311 0.354184
vt 0.056995 0.263208
vt 0.111703 0.181332
vt 0.181333 0.111702
vt 0.263209 0.056994
vt 0.354185 0.019311
vt 0.450765 0.000100
vt 0.549237 0.000100
vt 0.645817 0.019311
vn -0.0292 -0.9544 0.2969
vn -0.0866 -0.9544 0.2855
vn -0.1407 -0.9544 0.2631
vn -0.1893 -0.9544 0.2306
vn -0.2306 -0.9544 0.1893
vn -0.2631 -0.9544 0.1407
vn -0.2855 -0.9544 0.0866
vn -0.2969 -0.9544 0.0292
vn -0.2969 -0.9544 -0.0292
vn -0.2855 -0.9544 -0.0866
vn -0.2631 -0.9544 -0.1407
vn -0.2306 -0.9544 -0.1893
vn -0.1893 -0.9544 -0.2306
vn -0.1407 -0.9544 -0.2631
vn -0.0866 -0.9544 -0.2855
vn -0.0292 -0.9544 -0.2969
vn 0.0292 -0.9544 -0.2969
vn 0.0866 -0.9544 -0.2855
vn 0.1407 -0.9544 -0.2631
vn 0.1893 -0.9544 -0.2306
vn 0.2306 -0.9544 -0.1893
vn 0.2631 -0.9544 -0.1407
vn 0.2855 -0.9544 -0.0866
vn 0.2969 -0.9544 -0.0292
vn 0.2969 -0.9544 0.0292
vn 0.2855 -0.9544 0.0866
vn 0.2631 -0.9544 0.1407
vn 0.2306 -0.9544 0.1893
vn 0.1893 -0.9544 0.2306
vn 0.1407 -0.9544 0.2631
vn 0.0866 -0.9544 0.2855
vn 0.0292 -0.9544 0.2969
usemtl None
s off
f 1/1/1 2/2/1 24/3/1
f 2/2/2 3/4/2 24/3/2
f 3/4/3 4/5/3 24/3/3
f 4/5/4 5/6/4 24/3/4
f 5/6/5 6/7/5 24/3/5
f 6/7/6 7/8/6 24/3/6
f 7/8/7 8/9/7 24/3/7
f 8/9/8 9/10/8 24/3/8
f 9/10/9 10/11/9 24/3/9
f 10/11/10 11/12/10 24/3/10
f 11/12/11 12/13/11 24/3/11
f 12/13/12 13/14/12 24/3/12
f 13/14/13 14/15/13 24/3/13
f 14/15/14 15/16/14 24/3/14
f 15/16/15 16/17/15 24/3/15
f 16/17/16 17/18/16 24/3/16
f 17/18/17 18/19/17 24/3/17
f 18/19/18 19/20/18 24/3/18
f 19/20/19 20/21/19 24/3/19
f 20/21/20 21/22/20 24/3/20
f 21/22/21 22/23/21 24/3/21
f 22/23/22 23/24/22 24/3/22
f 23/24/23 25/25/23 24/3/23
f 25/25/24 26/26/24 24/3/24
f 26/26/25 27/27/25 24/3/25
f 27/27/26 28/28/26 24/3/26
f 28/28/27 29/29/27 24/3/27
f 29/29/28 30/30/28 24/3/28
f 30/30/29 31/31/29 24/3/29
f 31/31/30 32/32/30 24/3/30
f 32/32/31 33/33/31 24/3/31
f 33/33/32 1/1/32 24/3/32
