# Blender v2.79 (sub 0) OBJ File: 'Wall2.blend'
# www.blender.org
mtllib Wall2.mtl
o Cube
v 24.999947 -0.088475 24.999992
v -24.999985 -0.088475 24.999992
v -24.999996 14.911520 24.999992
v 24.999914 14.911520 25.000002
v 24.999981 -0.088472 -24.999996
v -24.999922 -0.088472 -25.000002
v 25.000006 14.911524 -24.999987
v -24.999937 14.911524 -24.999996
vt 0.000000 0.000000
vt 1.000000 0.000000
vt 1.000000 1.000000
vt 0.000000 0.000000
vt 1.000000 0.000000
vt 0.000000 0.000000
vt 1.000000 0.000000
vt 0.000000 0.000000
vt 1.000000 0.000000
vt 1.000000 1.000000
vt 1.000000 0.000000
vt 1.000000 1.000000
vt 1.000000 1.000000
vt 1.000000 0.000000
vt 1.000000 1.000000
vt 1.000000 0.000000
vt 1.000000 1.000000
vt 1.000000 1.000000
vt 1.000000 1.000000
vn -1.0000 -0.0000 -0.0000
vn -0.0000 1.0000 0.0000
vn 0.0000 0.0000 -1.0000
vn -0.0000 -0.0000 1.0000
vn 1.0000 -0.0000 0.0000
vn 0.0000 -1.0000 -0.0000
usemtl Material
s off
f 6/1/1 3/2/1 8/3/1
f 3/4/2 7/5/2 8/3/2
f 7/6/3 6/7/3 8/3/3
f 2/8/4 4/9/4 3/10/4
f 7/6/5 1/11/5 5/12/5
f 6/1/6 1/11/6 2/13/6
f 6/1/1 2/14/1 3/10/1
f 3/4/2 4/9/2 7/15/2
f 7/6/3 5/16/3 6/17/3
f 2/8/4 1/11/4 4/18/4
f 7/6/5 4/9/5 1/19/5
f 6/1/6 5/16/6 1/19/6
