# Blender v2.79 (sub 0) OBJ File: 'Water.blend'
# www.blender.org
mtllib Water.mtl
o Cylinder
v -0.109315 6.977173 -0.522240
v -0.017701 7.499984 -0.506906
v -0.197410 6.977173 -0.495517
v 0.069163 7.499984 -0.498351
v -0.278599 6.977173 -0.452121
v 0.152688 7.499984 -0.473013
v -0.349761 6.977173 -0.393720
v 0.229666 7.499984 -0.431868
v -0.408163 6.977173 -0.322557
v 0.297137 7.499984 -0.376496
v -0.451559 6.977173 -0.241369
v 0.352510 7.499984 -0.309024
v -0.478283 6.977173 -0.153274
v 0.393655 7.499984 -0.232047
v -0.487306 6.977173 -0.061658
v 0.418992 7.499984 -0.148521
v -0.478283 6.977173 0.029957
v 0.427548 7.499984 -0.061658
v -0.451560 6.977173 0.118052
v 0.418992 7.499984 0.025206
v -0.408164 6.977173 0.199241
v 0.393655 7.499984 0.108731
v -0.349762 6.977173 0.270403
v 0.352510 7.499984 0.185709
v -0.278600 6.977173 0.328805
v 0.297137 7.499984 0.253180
v -0.197411 6.977173 0.372201
v 0.229666 7.499984 0.308553
v -0.109316 6.977173 0.398925
v 0.152688 7.499984 0.349698
v -0.017701 6.977173 0.407948
v 0.069163 7.499984 0.375035
v 0.073915 6.977173 0.398925
v -0.017701 7.499984 0.383590
v 0.162010 6.977173 0.372201
v -0.104564 7.499984 0.375035
v 0.243198 6.977173 0.328805
v -0.188090 7.499984 0.349698
v 0.314361 6.977173 0.270404
v -0.265067 7.499984 0.308553
v 0.372762 6.977173 0.199241
v -0.332539 7.499984 0.253180
v 0.416159 6.977173 0.118053
v -0.387911 7.499984 0.185709
v 0.442882 6.977173 0.029958
v -0.429056 7.499984 0.108731
v 0.451905 6.977173 -0.061658
v -0.454393 7.499984 0.025205
v 0.442882 6.977173 -0.153273
v -0.462949 7.499984 -0.061658
v 0.416159 6.977173 -0.241368
v -0.454393 7.499984 -0.148522
v 0.372762 6.977173 -0.322557
v -0.429056 7.499984 -0.232047
v 0.314361 6.977173 -0.393719
v -0.387910 7.499984 -0.309025
v 0.243198 6.977173 -0.452121
v -0.332538 7.499984 -0.376496
v 0.162010 6.977173 -0.495517
v -0.265067 7.499984 -0.431868
v 0.073915 6.977173 -0.522240
v -0.188089 7.499984 -0.473014
v -0.017701 6.977173 -0.531263
v -0.104563 7.499984 -0.498351
v -0.017701 -0.000016 -1.311658
v -0.017701 5.624983 -1.278766
v 0.219745 5.624983 -1.255379
v 0.226162 -0.000016 -1.287639
v 0.448066 5.624983 -1.186119
v 0.460654 -0.000016 -1.216507
v 0.658488 5.624983 -1.073646
v 0.676762 -0.000016 -1.100995
v 0.842925 5.624983 -0.922283
v 0.866183 -0.000016 -0.945541
v 0.994288 5.624983 -0.737846
v 1.021636 -0.000016 -0.756121
v 1.106760 5.624983 -0.527425
v 1.137149 -0.000016 -0.540012
v 1.176021 5.624983 -0.299104
v 1.208281 -0.000016 -0.305521
v 1.199407 5.624983 -0.061658
v 1.232299 -0.000016 -0.061658
v 1.176021 5.624983 0.175788
v 1.208281 -0.000016 0.182205
v 1.106760 5.624983 0.404109
v 1.137149 -0.000016 0.416697
v 0.994288 5.624983 0.614532
v 1.021636 -0.000016 0.632805
v 0.842925 5.624983 0.798968
v 0.866183 -0.000016 0.822226
v 0.658488 5.624983 0.950331
v 0.676762 -0.000016 0.977680
v 0.448066 5.624983 1.062804
v 0.460653 -0.000016 1.093192
v 0.219745 5.624983 1.132064
v 0.226162 -0.000016 1.164324
v -0.017701 5.624983 1.155451
v -0.017701 -0.000016 1.188342
v -0.255147 5.624983 1.132064
v -0.261564 -0.000016 1.164324
v -0.483468 5.624983 1.062803
v -0.496055 -0.000016 1.093192
v -0.693890 5.624983 0.950330
v -0.712164 -0.000016 0.977679
v -0.878326 5.624983 0.798967
v -0.901584 -0.000016 0.822226
v -1.029689 5.624983 0.614531
v -1.057038 -0.000016 0.632805
v -1.142162 5.624983 0.404109
v -1.172550 -0.000016 0.416696
v -1.211422 5.624983 0.175787
v -1.243682 -0.000016 0.182204
v -1.234808 5.624983 -0.061659
v -1.267701 -0.000016 -0.061659
v -1.211422 5.624983 -0.299105
v -1.243682 -0.000016 -0.305522
v -1.142161 5.624983 -0.527426
v -1.172549 -0.000016 -0.540013
v -1.029688 5.624983 -0.737848
v -1.057037 -0.000016 -0.756122
v -0.878325 5.624983 -0.922284
v -0.901583 -0.000016 -0.945542
v -0.693888 5.624983 -1.073647
v -0.712162 -0.000016 -1.100996
v -0.483466 5.624983 -1.186120
v -0.496053 -0.000016 -1.216508
v -0.255145 5.624983 -1.255380
v -0.261562 -0.000016 -1.287639
vt 0.729732 0.680126
vt 0.952354 0.680126
vt 0.952354 0.902748
vt 0.729732 0.680126
vt 0.952354 0.680126
vt 0.952354 0.902748
vt 0.729732 0.680126
vt 0.952354 0.680126
vt 0.952354 0.902748
vt 0.729732 0.680126
vt 0.952354 0.680126
vt 0.952354 0.902748
vt 0.729732 0.680126
vt 0.952354 0.680126
vt 0.952354 0.902748
vt 0.729732 0.680126
vt 0.952354 0.680126
vt 0.729732 0.680126
vt 0.952354 0.680126
vt 0.952354 0.902748
vt 0.729732 0.680126
vt 0.952354 0.680126
vt 0.952354 0.902748
vt 0.729732 0.680126
vt 0.952354 0.680126
vt 0.952354 0.902748
vt 0.729732 0.680126
vt 0.952354 0.680126
vt 0.952354 0.902748
vt 0.729732 0.680126
vt 0.952354 0.680126
vt 0.952354 0.902748
vt 0.729732 0.680126
vt 0.952354 0.680126
vt 0.952354 0.902748
vt 0.729732 0.680126
vt 0.952354 0.680126
vt 0.952354 0.902748
vt 0.729732 0.680126
vt 0.952354 0.680126
vt 0.952354 0.902748
vt 0.729732 0.680126
vt 0.952354 0.680126
vt 0.952354 0.902748
vt 0.729732 0.680126
vt 0.952354 0.680126
vt 0.729732 0.680126
vt 0.952354 0.680126
vt 0.952354 0.902748
vt 0.729732 0.680126
vt 0.952354 0.680126
vt 0.952354 0.902748
vt 0.729732 0.680126
vt 0.952354 0.680126
vt 0.952354 0.902748
vt 0.729732 0.680126
vt 0.952354 0.680126
vt 0.952354 0.902748
vt 0.729732 0.680126
vt 0.952354 0.680126
vt 0.952354 0.902748
vt 0.729732 0.680126
vt 0.952354 0.680126
vt 0.952354 0.902748
vt 0.729732 0.680126
vt 0.952354 0.680126
vt 0.952354 0.902748
vt 0.729732 0.680126
vt 0.952354 0.680126
vt 0.952354 0.902748
vt 0.729732 0.680126
vt 0.952354 0.680126
vt 0.952354 0.902748
vt 0.729732 0.680126
vt 0.952354 0.680126
vt 0.952354 0.902748
vt 0.729732 0.680126
vt 0.952354 0.680126
vt 0.952354 0.902748
vt 0.729732 0.680126
vt 0.952354 0.680126
vt 0.952354 0.902748
vt 0.729732 0.680126
vt 0.952354 0.680126
vt 0.952354 0.902748
vt 0.729732 0.680126
vt 0.952354 0.680126
vt 0.952354 0.902748
vt 0.952354 0.680126
vt 0.952354 0.902748
vt 0.729732 0.680126
vt 0.952354 0.680126
vt 0.952354 0.902748
vt 0.729732 0.680126
vt 0.952354 0.680126
vt 0.952354 0.902748
vt 0.244105 0.197599
vt 0.566771 0.197599
vt 0.566771 0.520265
vt 0.244105 0.197599
vt 0.566771 0.197599
vt 0.566771 0.520265
vt 0.195059 0.055184
vt 0.039033 0.119813
vt 0.103661 0.275839
vt 0.973965 0.997922
vt 0.955065 0.058673
vt 0.953863 0.997922
vt 0.244105 0.197599
vt 0.566771 0.197599
vt 0.566771 0.520265
vt 0.244105 0.197599
vt 0.566771 0.197599
vt 0.566771 0.520265
vt 0.244105 0.197599
vt 0.566771 0.197599
vt 0.244105 0.197599
vt 0.566771 0.197599
vt 0.566771 0.520265
vt 0.244105 0.197599
vt 0.566771 0.197599
vt 0.566771 0.520265
vt 0.244105 0.197599
vt 0.566771 0.197599
vt 0.566771 0.520265
vt 0.244105 0.197599
vt 0.566771 0.197599
vt 0.566771 0.520265
vt 0.244105 0.197599
vt 0.566771 0.197599
vt 0.244105 0.197599
vt 0.566771 0.197599
vt 0.566771 0.520265
vt 0.244105 0.197599
vt 0.566771 0.197599
vt 0.566771 0.520265
vt 0.244105 0.197599
vt 0.566771 0.197599
vt 0.566771 0.520265
vt 0.244105 0.197599
vt 0.566771 0.197599
vt 0.244105 0.197599
vt 0.566771 0.197599
vt 0.566771 0.520265
vt 0.244105 0.197599
vt 0.566771 0.197599
vt 0.566771 0.520265
vt 0.244105 0.197599
vt 0.566771 0.197599
vt 0.566771 0.520265
vt 0.244105 0.197599
vt 0.566771 0.197599
vt 0.566771 0.520265
vt 0.244105 0.197599
vt 0.566771 0.197599
vt 0.566771 0.520265
vt 0.244105 0.197599
vt 0.566771 0.197599
vt 0.566771 0.520265
vt 0.244105 0.197599
vt 0.566771 0.197599
vt 0.566771 0.520265
vt 0.244105 0.197599
vt 0.566771 0.197599
vt 0.566771 0.520265
vt 0.244105 0.197599
vt 0.566771 0.197599
vt 0.566771 0.520265
vt 0.244105 0.197599
vt 0.566771 0.197599
vt 0.244105 0.197599
vt 0.566771 0.197599
vt 0.566771 0.520265
vt 0.244105 0.197599
vt 0.566771 0.197599
vt 0.566771 0.520265
vt 0.244105 0.197599
vt 0.566771 0.197599
vt 0.566771 0.520265
vt 0.244105 0.197599
vt 0.566771 0.197599
vt 0.244105 0.197599
vt 0.566771 0.197599
vt 0.566771 0.520265
vt 0.244105 0.197599
vt 0.566771 0.197599
vt 0.244105 0.197599
vt 0.566771 0.197599
vt 0.566771 0.520265
vt 0.244105 0.197599
vt 0.566771 0.197599
vt 0.936972 0.997236
vt 0.909366 0.058673
vt 0.932664 0.058673
vt 0.886069 0.058673
vt 0.909366 0.997922
vt 0.863667 0.058673
vt 0.886682 0.997922
vt 0.843022 0.058673
vt 0.864870 0.997922
vt 0.824926 0.058673
vt 0.844767 0.997922
vt 0.980438 0.059340
vt 0.996313 0.998045
vt 0.998535 0.059340
vt 0.959793 0.059340
vt 0.978693 0.998045
vt 0.936778 0.998045
vt 0.958590 0.998045
vt 0.914094 0.059340
vt 0.937391 0.059340
vt 0.891409 0.998045
vt 0.914094 0.998045
vt 0.868394 0.059340
vt 0.890796 0.059340
vt 0.847749 0.059340
vt 0.869597 0.998045
vt 0.829653 0.059340
vt 0.849494 0.998045
vt 0.039478 0.056639
vt -0.000207 0.998045
vt -0.005762 0.056639
vt 0.091092 0.056639
vt 0.043843 0.998045
vt 0.148630 0.998045
vt 0.094099 0.998045
vt 0.205340 0.056639
vt 0.147097 0.056639
vt 0.263583 0.056639
vt 0.205340 0.998045
vt 0.319588 0.056639
vt 0.262051 0.998045
vt 0.371202 0.056639
vt 0.316582 0.998045
vt 0.416443 0.056639
vt 0.366838 0.998045
vt 0.455263 0.058592
vt 0.415577 0.999998
vt 0.410022 0.058592
vt 0.506877 0.058592
vt 0.459627 0.999998
vt 0.562882 0.058592
vt 0.509883 0.999998
vt 0.621125 0.058592
vt 0.564414 0.999998
vt 0.679368 0.058592
vt 0.621125 0.999998
vt 0.735372 0.058592
vt 0.677835 0.999998
vt 0.786987 0.058592
vt 0.732366 0.999998
vt 0.826672 0.999998
vt 0.782622 0.999998
vt 0.991585 0.997922
vt 0.975711 0.058673
vt 0.952354 0.680126
vt 0.952354 0.680126
vt 0.952354 0.680126
vt 0.952354 0.680126
vt 0.952354 0.902748
vt 0.952354 0.902748
vt 0.952354 0.680126
vt 0.952354 0.680126
vt 0.952354 0.680126
vt 0.952354 0.680126
vt 0.952354 0.680126
vt 0.952354 0.680126
vt 0.952354 0.680126
vt 0.952354 0.680126
vt 0.952354 0.902748
vt 0.952354 0.902748
vt 0.952354 0.680126
vt 0.952354 0.680126
vt 0.952354 0.680126
vt 0.952354 0.680126
vt 0.952354 0.680126
vt 0.952354 0.680126
vt 0.952354 0.680126
vt 0.952354 0.680126
vt 0.952354 0.680126
vt 0.952354 0.680126
vt 0.952354 0.680126
vt 0.952354 0.680126
vt 0.952354 0.680126
vt 0.952354 0.680126
vt 0.952354 0.680126
vt 0.952354 0.902748
vt 0.952354 0.680126
vt 0.952354 0.902748
vt 0.952354 0.902748
vt 0.952354 0.902748
vt 0.952354 0.902748
vt 0.952354 0.902748
vt 0.729732 0.680126
vt 0.952354 0.902748
vt 0.952354 0.902748
vt 0.952354 0.902748
vt 0.952354 0.902748
vt 0.729732 0.680126
vt 0.952354 0.680126
vt 0.566771 0.197599
vt 0.566771 0.197599
vt 0.566771 0.520265
vt 0.126063 0.282635
vt 0.195059 0.275839
vt 0.149360 0.284929
vt 0.172658 0.282635
vt 0.215705 0.264804
vt 0.233801 0.249953
vt 0.248652 0.231857
vt 0.259688 0.211211
vt 0.266483 0.188809
vt 0.259688 0.119813
vt 0.268778 0.165512
vt 0.266483 0.142215
vt 0.248652 0.099167
vt 0.233801 0.081071
vt 0.215705 0.066220
vt 0.172657 0.048389
vt 0.149360 0.046094
vt 0.126063 0.048389
vt 0.103661 0.055184
vt 0.083015 0.066220
vt 0.064919 0.081071
vt 0.050068 0.099167
vt 0.032237 0.142215
vt 0.039033 0.211211
vt 0.029943 0.165512
vt 0.032237 0.188809
vt 0.050068 0.231857
vt 0.064920 0.249953
vt 0.083016 0.264804
vt 0.566771 0.197599
vt 0.566771 0.520265
vt 0.566771 0.520265
vt 0.566771 0.197599
vt 0.566771 0.520265
vt 0.566771 0.520265
vt 0.566771 0.197599
vt 0.566771 0.197599
vt 0.566771 0.197599
vt 0.566771 0.197599
vt 0.566771 0.520265
vt 0.566771 0.520265
vt 0.566771 0.197599
vt 0.566771 0.197599
vt 0.566771 0.197599
vt 0.566771 0.520265
vt 0.566771 0.520265
vt 0.566771 0.197599
vt 0.566771 0.197599
vt 0.566771 0.197599
vt 0.566771 0.197599
vt 0.566771 0.197599
vt 0.566771 0.197599
vt 0.566771 0.197599
vt 0.566771 0.197599
vt 0.566771 0.197599
vt 0.566771 0.520265
vt 0.566771 0.520265
vt 0.566771 0.197599
vt 0.566771 0.197599
vt 0.566771 0.197599
vt 0.566771 0.520265
vt 0.566771 0.520265
vt 0.566771 0.520265
vt 0.566771 0.520265
vt 0.566771 0.520265
vt 0.827147 0.997922
vt 0.831875 0.998045
vt 0.410888 0.998045
vt 0.832227 0.058592
vt 0.993807 0.058673
vn 0.0979 0.0463 -0.9941
vn 0.2900 0.0463 -0.9559
vn 0.4709 0.0463 -0.8810
vn 0.6337 0.0463 -0.7722
vn 0.7722 0.0463 -0.6337
vn 0.8810 0.0463 -0.4709
vn 0.9559 0.0463 -0.2900
vn 0.9941 0.0463 -0.0979
vn 0.9941 0.0463 0.0979
vn 0.9559 0.0463 0.2900
vn 0.8810 0.0463 0.4709
vn 0.7722 0.0463 0.6337
vn 0.6337 0.0463 0.7722
vn 0.4709 0.0463 0.8810
vn 0.2900 0.0463 0.9559
vn 0.0979 0.0463 0.9941
vn -0.0979 0.0463 0.9941
vn -0.2900 0.0463 0.9559
vn -0.4709 0.0463 0.8810
vn -0.6337 0.0463 0.7722
vn -0.7722 0.0463 0.6337
vn -0.8810 0.0463 0.4709
vn -0.9559 0.0463 0.2900
vn -0.9941 0.0463 0.0979
vn -0.9941 0.0463 -0.0979
vn -0.9559 0.0463 -0.2900
vn -0.8810 0.0463 -0.4709
vn -0.7722 0.0463 -0.6337
vn -0.6337 0.0463 -0.7722
vn -0.4709 0.0463 -0.8810
vn 0.0000 1.0000 0.0000
vn -0.2900 0.0463 -0.9559
vn -0.0979 0.0463 -0.9941
vn 0.2543 0.4820 -0.8384
vn 0.4130 0.4820 -0.7727
vn 0.0000 -1.0000 0.0000
vn 0.4714 0.0058 -0.8819
vn -0.0859 0.4820 -0.8719
vn -0.2543 0.4820 -0.8384
vn -0.4130 0.4820 -0.7727
vn -0.5558 0.4820 -0.6773
vn -0.6773 0.4820 -0.5558
vn -0.7727 0.4820 -0.4130
vn -0.8384 0.4820 -0.2543
vn -0.8719 0.4820 -0.0859
vn -0.8719 0.4820 0.0859
vn -0.8384 0.4820 0.2543
vn -0.7727 0.4820 0.4130
vn -0.6773 0.4820 0.5558
vn -0.5558 0.4820 0.6773
vn -0.4130 0.4820 0.7727
vn -0.2543 0.4820 0.8384
vn -0.0859 0.4820 0.8719
vn 0.0859 0.4820 0.8719
vn 0.2543 0.4820 0.8384
vn 0.4130 0.4820 0.7727
vn 0.5558 0.4820 0.6773
vn 0.6773 0.4820 0.5558
vn 0.7727 0.4820 0.4130
vn 0.8384 0.4820 0.2543
vn 0.8719 0.4820 0.0859
vn 0.8719 0.4820 -0.0859
vn 0.8384 0.4820 -0.2543
vn 0.7727 0.4820 -0.4130
vn 0.6773 0.4820 -0.5558
vn 0.5558 0.4820 -0.6773
vn 0.0859 0.4820 -0.8719
vn 0.2903 0.0058 -0.9569
vn 0.0980 0.0058 -0.9952
vn -0.0980 0.0058 -0.9952
vn -0.2903 0.0058 -0.9569
vn -0.4714 0.0058 -0.8819
vn -0.6344 0.0058 -0.7730
vn -0.7730 0.0058 -0.6344
vn -0.8819 0.0058 -0.4714
vn -0.9569 0.0058 -0.2903
vn -0.9952 0.0058 -0.0980
vn -0.9952 0.0058 0.0980
vn -0.9569 0.0058 0.2903
vn -0.8819 0.0058 0.4714
vn -0.7730 0.0058 0.6344
vn -0.6344 0.0058 0.7730
vn -0.4714 0.0058 0.8819
vn -0.2903 0.0058 0.9569
vn -0.0980 0.0058 0.9952
vn 0.0980 0.0058 0.9952
vn 0.2903 0.0058 0.9569
vn 0.4714 0.0058 0.8819
vn 0.6344 0.0058 0.7730
vn 0.7730 0.0058 0.6344
vn 0.8819 0.0058 0.4714
vn 0.9569 0.0058 0.2903
vn 0.9952 0.0058 0.0980
vn 0.9952 0.0058 -0.0980
vn 0.9569 0.0058 -0.2903
vn 0.8819 0.0058 -0.4714
vn 0.7730 0.0058 -0.6344
vn 0.6344 0.0058 -0.7730
vn 0.0000 1.0000 0.0001
vn 0.0000 1.0000 -0.0001
usemtl Material
s off
f 2/1/1 61/2/1 63/3/1
f 4/4/2 59/5/2 61/6/2
f 6/7/3 57/8/3 59/9/3
f 8/10/4 55/11/4 57/12/4
f 55/13/5 12/14/5 53/15/5
f 12/16/6 51/17/6 53/15/6
f 14/18/7 49/19/7 51/20/7
f 16/21/8 47/22/8 49/23/8
f 18/24/9 45/25/9 47/26/9
f 20/27/10 43/28/10 45/29/10
f 22/30/11 41/31/11 43/32/11
f 24/33/12 39/34/12 41/35/12
f 26/36/13 37/37/13 39/38/13
f 28/39/14 35/40/14 37/41/14
f 35/42/15 32/43/15 33/44/15
f 32/45/16 31/46/16 33/44/16
f 34/47/17 29/48/17 31/49/17
f 36/50/18 27/51/18 29/52/18
f 38/53/19 25/54/19 27/55/19
f 40/56/20 23/57/20 25/58/20
f 42/59/21 21/60/21 23/61/21
f 44/62/22 19/63/22 21/64/22
f 46/65/23 17/66/23 19/67/23
f 48/68/24 15/69/24 17/70/24
f 50/71/25 13/72/25 15/73/25
f 52/74/26 11/75/26 13/76/26
f 54/77/27 9/78/27 11/79/27
f 56/80/28 7/81/28 9/82/28
f 58/83/29 5/84/29 7/85/29
f 60/86/30 3/87/30 5/88/30
f 38/53/31 22/89/31 6/90/31
f 62/91/32 1/92/32 3/93/32
f 64/94/33 63/95/33 1/96/33
f 61/97/34 69/98/34 67/99/34
f 59/100/35 71/101/35 69/102/35
f 94/103/36 110/104/36 126/105/36
f 71/106/37 70/107/37 69/108/37
f 127/109/38 63/110/38 66/111/38
f 3/112/39 127/113/39 125/114/39
f 123/115/40 3/116/40 125/114/40
f 7/117/41 123/118/41 121/119/41
f 9/120/42 121/121/42 119/122/42
f 11/123/43 119/124/43 117/125/43
f 13/126/44 117/127/44 115/128/44
f 113/129/45 13/130/45 115/128/45
f 17/131/46 113/132/46 111/133/46
f 19/134/47 111/135/47 109/136/47
f 21/137/48 109/138/48 107/139/48
f 105/140/49 21/141/49 107/139/49
f 25/142/50 105/143/50 103/144/50
f 27/145/51 103/146/51 101/147/51
f 29/148/52 101/149/52 99/150/52
f 31/151/53 99/152/53 97/153/53
f 33/154/54 97/155/54 95/156/54
f 35/157/55 95/158/55 93/159/55
f 37/160/56 93/161/56 91/162/56
f 39/163/57 91/164/57 89/165/57
f 41/166/58 89/167/58 87/168/58
f 85/169/59 41/170/59 87/168/59
f 45/171/60 85/172/60 83/173/60
f 47/174/61 83/175/61 81/176/61
f 49/177/62 81/178/62 79/179/62
f 77/180/63 49/181/63 79/179/63
f 53/182/64 77/183/64 75/184/64
f 73/185/65 53/186/65 75/184/65
f 71/187/66 55/188/66 73/189/66
f 66/190/67 61/191/67 67/99/67
f 70/107/68 67/192/68 69/108/68
f 65/193/69 67/192/69 68/194/69
f 128/195/70 66/196/70 65/193/70
f 126/197/71 127/198/71 128/195/71
f 124/199/72 125/200/72 126/197/72
f 122/201/73 123/202/73 124/199/73
f 120/203/74 121/204/74 122/205/74
f 118/206/75 119/207/75 120/203/75
f 118/206/76 115/208/76 117/209/76
f 114/210/77 115/208/77 116/211/77
f 114/210/78 111/212/78 113/213/78
f 110/214/79 111/212/79 112/215/79
f 108/216/80 109/217/80 110/214/80
f 106/218/81 107/219/81 108/216/81
f 104/220/82 105/221/82 106/222/82
f 102/223/83 103/224/83 104/220/83
f 102/223/84 99/225/84 101/226/84
f 98/227/85 99/225/85 100/228/85
f 96/229/86 97/230/86 98/227/86
f 94/231/87 95/232/87 96/229/87
f 92/233/88 93/234/88 94/231/88
f 90/235/89 91/236/89 92/233/89
f 88/237/90 89/238/90 90/239/90
f 86/240/91 87/241/91 88/237/91
f 84/242/92 85/243/92 86/240/92
f 82/244/93 83/245/93 84/242/93
f 80/246/94 81/247/94 82/244/94
f 78/248/95 79/249/95 80/246/95
f 76/250/96 77/251/96 78/248/96
f 76/250/97 73/252/97 75/253/97
f 73/254/98 72/255/98 71/106/98
f 2/1/1 4/256/1 61/6/1
f 4/4/2 6/257/2 59/9/2
f 6/7/3 8/258/3 57/12/3
f 8/10/4 10/259/4 55/260/4
f 55/13/5 10/259/5 12/261/5
f 12/16/6 14/262/6 51/20/6
f 14/18/7 16/263/7 49/23/7
f 16/21/8 18/264/8 47/26/8
f 18/24/9 20/265/9 45/29/9
f 20/27/10 22/89/10 43/32/10
f 22/30/11 24/266/11 41/35/11
f 24/33/12 26/267/12 39/38/12
f 26/36/13 28/268/13 37/41/13
f 28/39/14 30/269/14 35/270/14
f 35/42/15 30/269/15 32/271/15
f 32/45/16 34/272/16 31/49/16
f 34/47/17 36/273/17 29/52/17
f 36/50/18 38/274/18 27/55/18
f 38/53/19 40/275/19 25/58/19
f 40/56/20 42/276/20 23/61/20
f 42/59/21 44/277/21 21/64/21
f 44/62/22 46/278/22 19/67/22
f 46/65/23 48/279/23 17/70/23
f 48/68/24 50/280/24 15/73/24
f 50/71/25 52/281/25 13/76/25
f 52/74/26 54/282/26 11/79/26
f 54/77/27 56/283/27 9/82/27
f 56/80/28 58/284/28 7/85/28
f 58/83/29 60/285/29 5/88/29
f 60/86/30 62/286/30 3/93/30
f 6/7/31 4/256/31 2/287/31
f 2/1/99 64/288/99 6/90/99
f 64/94/31 62/286/31 6/90/31
f 62/91/31 60/285/31 54/289/31
f 60/86/31 58/284/31 54/289/31
f 58/83/31 56/283/31 54/289/31
f 54/77/31 52/281/31 46/290/31
f 52/74/31 50/280/31 46/290/31
f 50/71/31 48/279/31 46/290/31
f 46/65/31 44/277/31 42/291/31
f 42/59/100 40/275/100 38/292/100
f 38/53/99 36/273/99 34/293/99
f 34/47/99 32/43/99 38/292/99
f 32/45/100 30/269/100 38/292/100
f 30/294/31 28/268/31 26/295/31
f 26/36/31 24/266/31 30/296/31
f 24/33/31 22/89/31 30/296/31
f 22/30/31 20/265/31 18/297/31
f 18/24/31 16/263/31 22/298/31
f 16/21/31 14/262/31 22/298/31
f 14/18/31 12/14/31 6/90/31
f 12/16/31 10/259/31 6/90/31
f 10/299/99 8/258/99 6/90/99
f 46/65/31 42/276/31 38/292/31
f 6/7/31 62/286/31 54/289/31
f 54/77/31 46/278/31 38/292/31
f 38/53/31 30/269/31 22/298/31
f 22/30/31 14/262/31 6/90/31
f 6/7/31 54/282/31 38/292/31
f 62/91/32 64/288/32 1/96/32
f 64/94/33 2/300/33 63/3/33
f 61/97/34 59/301/34 69/102/34
f 59/100/35 57/302/35 71/303/35
f 126/105/36 128/304/36 70/305/36
f 128/304/36 65/306/36 70/305/36
f 65/306/36 68/307/36 70/305/36
f 70/305/36 72/308/36 74/309/36
f 74/309/36 76/310/36 78/311/36
f 78/311/36 80/312/36 86/313/36
f 80/312/36 82/314/36 86/313/36
f 82/314/36 84/315/36 86/313/36
f 86/313/36 88/316/36 90/317/36
f 90/317/36 92/318/36 86/313/36
f 92/318/36 94/103/36 86/313/36
f 94/103/36 96/319/36 98/320/36
f 98/320/36 100/321/36 102/322/36
f 102/322/36 104/323/36 106/324/36
f 106/324/36 108/325/36 110/104/36
f 110/104/36 112/326/36 118/327/36
f 112/326/36 114/328/36 118/327/36
f 114/328/36 116/329/36 118/327/36
f 118/327/36 120/330/36 126/105/36
f 120/330/36 122/331/36 126/105/36
f 122/331/36 124/332/36 126/105/36
f 70/305/36 74/309/36 78/311/36
f 94/103/36 98/320/36 102/322/36
f 102/322/36 106/324/36 94/103/36
f 106/324/36 110/104/36 94/103/36
f 126/105/36 70/305/36 78/311/36
f 78/311/36 86/313/36 126/105/36
f 86/313/36 94/103/36 126/105/36
f 110/104/36 118/327/36 126/105/36
f 71/106/37 72/255/37 70/107/37
f 127/109/38 1/333/38 63/334/38
f 3/112/39 1/333/39 127/335/39
f 123/115/40 5/336/40 3/337/40
f 7/117/41 5/336/41 123/338/41
f 9/120/42 7/339/42 121/119/42
f 11/123/43 9/340/43 119/122/43
f 13/126/44 11/341/44 117/125/44
f 113/129/45 15/342/45 13/343/45
f 17/131/46 15/342/46 113/344/46
f 19/134/47 17/345/47 111/133/47
f 21/137/48 19/346/48 109/136/48
f 105/140/49 23/347/49 21/348/49
f 25/142/50 23/347/50 105/349/50
f 27/145/51 25/350/51 103/144/51
f 29/148/52 27/351/52 101/147/52
f 31/151/53 29/352/53 99/150/53
f 33/154/54 31/353/54 97/153/54
f 35/157/55 33/354/55 95/156/55
f 37/160/56 35/355/56 93/159/56
f 39/163/57 37/356/57 91/162/57
f 41/166/58 39/357/58 89/165/58
f 85/169/59 43/358/59 41/359/59
f 45/171/60 43/358/60 85/360/60
f 47/174/61 45/361/61 83/173/61
f 49/177/62 47/362/62 81/176/62
f 77/180/63 51/363/63 49/364/63
f 53/182/64 51/363/64 77/365/64
f 73/185/65 55/188/65 53/366/65
f 71/187/66 57/302/66 55/367/66
f 66/190/67 63/110/67 61/368/67
f 70/107/68 68/194/68 67/192/68
f 65/193/69 66/196/69 67/192/69
f 128/195/70 127/198/70 66/196/70
f 126/197/71 125/200/71 127/198/71
f 124/199/72 123/202/72 125/200/72
f 122/201/73 121/369/73 123/202/73
f 120/203/74 119/207/74 121/204/74
f 118/206/75 117/209/75 119/207/75
f 118/206/76 116/211/76 115/208/76
f 114/210/77 113/213/77 115/208/77
f 114/210/78 112/215/78 111/212/78
f 110/214/79 109/217/79 111/212/79
f 108/216/80 107/219/80 109/217/80
f 106/218/81 105/370/81 107/219/81
f 104/220/82 103/224/82 105/221/82
f 102/223/83 101/226/83 103/224/83
f 102/223/84 100/228/84 99/225/84
f 98/227/85 97/230/85 99/225/85
f 96/229/86 95/232/86 97/230/86
f 94/231/87 93/234/87 95/232/87
f 92/233/88 91/236/88 93/234/88
f 90/235/89 89/371/89 91/236/89
f 88/237/90 87/241/90 89/238/90
f 86/240/91 85/243/91 87/241/91
f 84/242/92 83/245/92 85/243/92
f 82/244/93 81/247/93 83/245/93
f 80/246/94 79/249/94 81/247/94
f 78/248/95 77/251/95 79/249/95
f 76/250/96 75/253/96 77/251/96
f 76/250/97 74/372/97 73/252/97
f 73/254/98 74/373/98 72/255/98
