# Blender v2.79 (sub 0) OBJ File: 'Watermelon.blend'
# www.blender.org
mtllib Watermelon.mtl
o Cylinder.001
v -2.269210 0.783161 0.351247
v -2.269210 0.783161 -0.377385
v -2.041586 1.533534 0.351247
v -1.671946 2.225081 0.351247
v -1.174494 2.831227 0.351247
v -0.568347 3.328677 0.351247
v -0.568347 3.328677 -0.377385
v 0.873574 3.925938 0.351247
v -2.647954 0.899644 0.351247
v -2.647954 0.899644 -0.377386
v -2.371114 1.957621 0.351247
v -2.371114 1.957621 -0.377386
v -2.001473 2.649168 0.351247
v -2.001473 2.649168 -0.377385
v -1.504021 3.255314 0.351247
v -1.504021 3.255314 -0.377385
v -0.897874 3.752764 0.351247
v -0.897874 3.752764 -0.377385
v -0.206326 4.122403 0.351247
v -0.206326 4.122403 -0.377385
v 0.777826 4.337720 0.351247
v 0.777826 4.337720 -0.377385
v -2.041586 1.533534 -0.377385
v -1.671946 2.225081 -0.377385
v -1.174494 2.831227 -0.377385
v 0.123201 3.698316 0.351247
v 0.123201 3.698316 -0.377385
v 0.873574 3.925938 -0.377385
v 1.653930 0.002797 0.351247
v 1.653930 0.002797 -0.377385
vt 0.249881 0.591782
vt 0.198750 0.551893
vt 0.196968 0.583814
vt 0.216029 0.895611
vt 0.198312 0.846257
vt 0.198608 0.973263
vt 0.141610 0.738722
vt 0.147117 0.813348
vt 0.169534 0.763187
vt 0.169124 0.990029
vt 0.198608 0.990029
vt 0.226845 0.738775
vt 0.199161 0.688279
vt 0.198862 0.763225
vt 0.126985 0.625074
vt 0.134767 0.674999
vt 0.169954 0.626215
vt 0.169123 0.973263
vt 0.169838 0.846206
vt 0.169391 0.688238
vt 0.198521 0.626299
vt 0.171879 0.583838
vt 0.151953 0.895556
vt 0.152657 0.986952
vt 0.119158 0.591976
vt 0.233758 0.675087
vt 0.196701 0.500335
vt 0.166656 0.500724
vt 0.168705 0.552283
vt 0.221139 0.813417
vt 0.241770 0.625191
vt 0.215021 0.986963
vt 0.453596 0.409154
vt 0.990311 0.043360
vt 0.286005 0.421106
vt 0.241864 0.391724
vt 0.921743 0.258569
vt 0.839848 0.475344
vt 0.218827 0.328299
vt 0.664501 0.466379
vt 0.949220 0.267323
vt 1.017789 0.052115
vt 0.797044 0.829359
vt 0.730000 0.745607
vt 0.855458 0.887444
vt 1.025873 0.405468
vt 0.902998 0.917632
vt 0.928387 0.541752
vt 0.975440 0.018652
vt 0.190282 0.286011
vn -0.0000 0.0000 1.0000
vn 0.0000 -0.0000 -1.0000
vn -0.2940 -0.9558 0.0000
vn -0.9674 0.2531 0.0000
vn -0.8819 0.4714 0.0000
vn -0.7730 0.6344 0.0000
vn -0.6344 0.7730 0.0000
vn -0.4714 0.8819 -0.0000
vn -0.2137 0.9769 0.0000
vn 0.9740 0.2265 0.0000
vn -0.1951 -0.9808 -0.0000
vn 0.9808 0.1951 0.0000
usemtl Material
s off
f 8/1/1 21/2/1 19/3/1
f 3/4/1 11/5/1 9/6/1
f 25/7/2 24/8/2 14/9/2
f 2/10/3 1/11/3 9/6/3
f 5/12/1 15/13/1 13/14/1
f 27/15/2 7/16/2 18/17/2
f 10/18/4 9/6/4 11/5/4
f 12/19/5 11/5/5 13/14/5
f 14/9/6 13/14/6 15/13/6
f 16/20/7 15/13/7 17/21/7
f 17/21/8 19/3/8 20/22/8
f 20/22/9 19/3/9 21/2/9
f 23/23/2 2/24/2 10/18/2
f 28/25/2 27/15/2 20/22/2
f 6/26/1 17/21/1 15/13/1
f 8/27/10 28/28/10 22/29/10
f 7/16/2 25/7/2 16/20/2
f 4/30/1 13/14/1 11/5/1
f 24/8/2 23/23/2 12/19/2
f 26/31/1 19/3/1 17/21/1
f 8/1/1 19/3/1 26/31/1
f 3/4/1 9/6/1 1/32/1
f 25/7/2 14/9/2 16/20/2
f 2/10/3 9/6/3 10/18/3
f 5/12/1 13/14/1 4/30/1
f 27/15/2 18/17/2 20/22/2
f 10/18/4 11/5/4 12/19/4
f 12/19/5 13/14/5 14/9/5
f 14/9/6 15/13/6 16/20/6
f 16/20/7 17/21/7 18/17/7
f 17/21/8 20/22/8 18/17/8
f 20/22/9 21/2/9 22/29/9
f 23/23/2 10/18/2 12/19/2
f 28/25/2 20/22/2 22/29/2
f 6/26/1 15/13/1 5/12/1
f 8/27/10 22/29/10 21/2/10
f 7/16/2 16/20/2 18/17/2
f 4/30/1 11/5/1 3/4/1
f 24/8/2 12/19/2 14/9/2
f 26/31/1 17/21/1 6/26/1
usemtl Material.003
f 5/33/1 29/34/1 6/35/1
f 6/35/1 29/34/1 26/36/1
f 1/37/1 29/34/1 3/38/1
f 26/36/1 29/34/1 8/39/1
f 3/38/1 29/34/1 4/40/1
f 1/37/11 2/41/11 30/42/11
f 4/40/1 29/34/1 5/33/1
f 7/43/2 30/42/2 25/44/2
f 27/45/2 30/42/2 7/43/2
f 23/46/2 30/42/2 2/41/2
f 28/47/2 30/42/2 27/45/2
f 24/48/2 30/42/2 23/46/2
f 30/49/12 28/50/12 8/39/12
f 25/44/2 30/42/2 24/48/2
f 1/37/11 30/42/11 29/34/11
f 30/49/12 8/39/12 29/34/12
