# Blender v2.79 (sub 0) OBJ File: 'Watermelon.blend'
# www.blender.org
mtllib Watermelon.mtl
o Cylinder.001
v -1.134605 0.391581 0.175623
v -1.134605 0.391581 -0.188693
v -1.020793 0.766767 0.175624
v -1.020793 0.766767 -0.188693
v -0.835973 1.112541 0.175624
v -0.835973 1.112541 -0.188693
v -0.587247 1.415613 0.175624
v -0.587247 1.415613 -0.188693
v -0.284173 1.664339 0.175624
v -0.284173 1.664339 -0.188693
v 0.061601 1.849158 0.175624
v 0.061601 1.849158 -0.188693
v 0.436787 1.962969 0.175624
v 0.436787 1.962969 -0.188693
v -1.323977 0.449822 0.175623
v -1.323977 0.449822 -0.188693
v -1.185557 0.978811 0.175623
v -1.185557 0.978811 -0.188693
v -1.000737 1.324584 0.175623
v -1.000737 1.324584 -0.188693
v -0.752011 1.627657 0.175623
v -0.752011 1.627657 -0.188693
v -0.448937 1.876382 0.175624
v -0.448937 1.876382 -0.188693
v -0.103163 2.061202 0.175624
v -0.103163 2.061201 -0.188693
v 0.388913 2.168860 0.175624
v 0.388913 2.168860 -0.188693
v -1.134605 0.391581 0.175623
v -1.134605 0.391581 -0.188693
v -1.020793 0.766767 0.175624
v -1.020793 0.766767 -0.188693
v -0.835973 1.112541 0.175624
v -0.835973 1.112541 -0.188693
v -0.587247 1.415613 0.175624
v -0.587247 1.415613 -0.188693
v -0.284173 1.664339 0.175624
v -0.284173 1.664339 -0.188693
v 0.061601 1.849158 0.175624
v 0.061601 1.849158 -0.188693
v 0.436787 1.962969 0.175624
v 0.436787 1.962969 -0.188693
v 0.826965 0.001399 0.175623
v 0.826965 0.001399 -0.188693
vt 0.183417 0.000059
vt 0.169333 0.029262
vt 0.169405 0.029212
vt 0.188560 0.467431
vt 0.176192 0.393700
vt 0.170101 0.564781
vt 0.129574 0.227700
vt 0.132109 0.343252
vt 0.153455 0.266025
vt 0.139488 0.593837
vt 0.179318 0.591943
vt 0.204807 0.229345
vt 0.181877 0.151012
vt 0.179326 0.266601
vt 0.125886 0.047484
vt 0.125886 0.128833
vt 0.161042 0.060510
vt 0.150044 0.563098
vt 0.150993 0.393110
vt 0.155801 0.150480
vt 0.179763 0.061968
vt 0.169411 0.029341
vt 0.135668 0.465319
vt 0.155909 0.002728
vt 0.212685 0.130790
vt 0.169311 0.029286
vt 0.197284 0.344558
vt 0.216383 0.047557
vt 0.007855 0.324055
vt 0.061476 0.993035
vt 0.022545 0.190030
vt 0.041713 0.085595
vt 0.029501 0.805462
vt 0.003981 0.651026
vt 0.063785 0.015272
vt 0.000059 0.481209
vt 0.080329 0.807261
vt 0.036502 0.999941
vt 0.117630 0.180007
vt 0.125769 0.317366
vt 0.103446 0.072673
vt 0.113354 0.651012
vt 0.084573 0.000059
vt 0.125768 0.478019
vn -0.0000 0.0000 1.0000
vn 0.0000 -0.0000 -1.0000
vn -0.2940 -0.9558 0.0000
vn -0.9674 0.2531 0.0000
vn -0.8819 0.4714 0.0000
vn -0.7730 0.6344 0.0000
vn -0.6344 0.7730 0.0000
vn -0.4714 0.8819 -0.0000
vn -0.2137 0.9769 0.0000
vn 0.9740 0.2265 0.0000
vn -0.1951 -0.9808 -0.0000
vn 0.9808 0.1951 0.0000
usemtl Material.002
s off
f 13/1/1 27/2/1 25/3/1
f 3/4/1 17/5/1 15/6/1
f 8/7/2 6/8/2 20/9/2
f 2/10/3 1/11/3 15/6/3
f 7/12/1 21/13/1 19/14/1
f 12/15/2 10/16/2 24/17/2
f 16/18/4 15/6/4 17/5/4
f 18/19/5 17/5/5 19/14/5
f 20/9/6 19/14/6 21/13/6
f 22/20/7 21/13/7 23/21/7
f 23/21/8 25/3/8 26/22/8
f 26/22/9 25/3/9 27/2/9
f 4/23/2 2/10/2 16/18/2
f 14/24/2 12/15/2 26/22/2
f 9/25/1 23/21/1 21/13/1
f 13/1/10 14/24/10 28/26/10
f 10/16/2 8/7/2 22/20/2
f 5/27/1 19/14/1 17/5/1
f 6/8/2 4/23/2 18/19/2
f 11/28/1 25/3/1 23/21/1
f 13/1/1 25/3/1 11/28/1
f 3/4/1 15/6/1 1/11/1
f 8/7/2 20/9/2 22/20/2
f 2/10/3 15/6/3 16/18/3
f 7/12/1 19/14/1 5/27/1
f 12/15/2 24/17/2 26/22/2
f 16/18/4 17/5/4 18/19/4
f 18/19/5 19/14/5 20/9/5
f 20/9/6 21/13/6 22/20/6
f 22/20/7 23/21/7 24/17/7
f 23/21/8 26/22/8 24/17/8
f 26/22/9 27/2/9 28/26/9
f 4/23/2 16/18/2 18/19/2
f 14/24/2 26/22/2 28/26/2
f 9/25/1 21/13/1 7/12/1
f 13/1/10 28/26/10 27/2/10
f 10/16/2 22/20/2 24/17/2
f 5/27/1 17/5/1 3/4/1
f 6/8/2 18/19/2 20/9/2
f 11/28/1 23/21/1 9/25/1
usemtl Material.001
f 35/29/1 43/30/1 37/31/1
f 37/31/1 43/30/1 39/32/1
f 29/33/1 43/30/1 31/34/1
f 39/32/1 43/30/1 41/35/1
f 31/34/1 43/30/1 33/36/1
f 29/33/11 30/37/11 44/38/11
f 33/36/1 43/30/1 35/29/1
f 38/39/2 44/38/2 36/40/2
f 40/41/2 44/38/2 38/39/2
f 32/42/2 44/38/2 30/37/2
f 42/43/2 44/38/2 40/41/2
f 34/44/2 44/38/2 32/42/2
f 44/38/12 42/43/12 41/35/12
f 36/40/2 44/38/2 34/44/2
f 29/33/11 44/38/11 43/30/11
f 44/38/12 41/35/12 43/30/12
