# Blender v2.79 (sub 0) OBJ File: 'Wheel.blend'
# www.blender.org
mtllib Wheel.mtl
o Cylinder
v -0.400000 -0.000000 -1.000000
v 0.400000 0.000000 -1.000000
v -0.400000 -0.195090 -0.980785
v 0.400000 -0.195090 -0.980785
v -0.400000 -0.382683 -0.923880
v 0.400000 -0.382683 -0.923880
v -0.400000 -0.555570 -0.831470
v 0.400000 -0.555570 -0.831470
v -0.400000 -0.707107 -0.707107
v 0.400000 -0.707107 -0.707107
v -0.400000 -0.831470 -0.555570
v 0.400000 -0.831470 -0.555570
v -0.400000 -0.923880 -0.382683
v 0.400000 -0.923879 -0.382683
v -0.400000 -0.980785 -0.195090
v 0.400000 -0.980785 -0.195090
v -0.400000 -1.000000 -0.000000
v 0.400000 -1.000000 -0.000000
v -0.400000 -0.980785 0.195090
v 0.400000 -0.980785 0.195090
v -0.400000 -0.923880 0.382683
v 0.400000 -0.923880 0.382683
v -0.400000 -0.831470 0.555570
v 0.400000 -0.831470 0.555570
v -0.400000 -0.707107 0.707107
v 0.400000 -0.707107 0.707107
v -0.400000 -0.555570 0.831470
v 0.400000 -0.555570 0.831470
v -0.400000 -0.382683 0.923880
v 0.400000 -0.382683 0.923880
v -0.400000 -0.195090 0.980785
v 0.400000 -0.195090 0.980785
v -0.400000 0.000000 1.000000
v 0.400000 0.000000 1.000000
v -0.400000 0.195091 0.980785
v 0.400000 0.195091 0.980785
v -0.400000 0.382684 0.923879
v 0.400000 0.382684 0.923879
v -0.400000 0.555571 0.831469
v 0.400000 0.555571 0.831469
v -0.400000 0.707107 0.707106
v 0.400000 0.707107 0.707106
v -0.400000 0.831470 0.555570
v 0.400000 0.831470 0.555570
v -0.400000 0.923880 0.382683
v 0.400000 0.923880 0.382683
v -0.400000 0.980785 0.195089
v 0.400000 0.980785 0.195089
v -0.400000 1.000000 -0.000001
v 0.400000 1.000000 -0.000001
v -0.400000 0.980785 -0.195091
v 0.400000 0.980785 -0.195091
v -0.400000 0.923879 -0.382684
v 0.400000 0.923879 -0.382684
v -0.400000 0.831469 -0.555571
v 0.400000 0.831469 -0.555571
v -0.400000 0.707106 -0.707108
v 0.400000 0.707106 -0.707108
v -0.400000 0.555569 -0.831470
v 0.400000 0.555569 -0.831470
v -0.400000 0.382682 -0.923880
v 0.400000 0.382682 -0.923880
v -0.400000 0.195089 -0.980786
v 0.400000 0.195089 -0.980786
vt 0.005788 0.752028
vt 0.116805 0.720785
vt 0.116805 0.752028
vt 0.005788 0.720785
vt 0.116805 0.689543
vt 0.005788 0.689543
vt 0.116805 0.658300
vt 0.005788 0.658301
vt 0.116805 0.627058
vt 0.005787 0.627058
vt 0.116805 0.595815
vt 0.005787 0.595816
vt 0.116805 0.564573
vt 0.005787 0.564573
vt 0.116805 0.533330
vt 0.005787 0.533331
vt 0.116805 0.502088
vt 0.005787 0.502089
vt 0.116805 0.470845
vt 0.005787 0.470846
vt 0.116805 0.439603
vt 0.005787 0.439604
vt 0.116804 0.408360
vt 0.005787 0.408361
vt 0.116804 0.377118
vt 0.005786 0.377119
vt 0.116804 0.345875
vt 0.005786 0.345877
vt 0.116804 0.314632
vt 0.005786 0.314634
vt 0.116804 0.283390
vt 0.005786 0.283392
vt 0.116803 0.252147
vt 0.005786 0.252149
vt 0.116803 0.220905
vt 0.005785 0.220907
vt 0.116803 0.189662
vt 0.005785 0.189665
vt 0.116803 0.158420
vt 0.005785 0.158422
vt 0.116802 0.127177
vt 0.005785 0.127180
vt 0.116802 0.095935
vt 0.005784 0.095937
vt 0.116802 0.064692
vt 0.005784 0.064695
vt 0.116802 0.033450
vt 0.005784 0.033453
vt 0.116801 0.002207
vt 0.005788 1.001967
vt 0.116805 0.970725
vt 0.116805 1.001967
vt 0.005788 0.970724
vt 0.116805 0.939482
vt 0.005788 0.939482
vt 0.116805 0.908240
vt 0.005788 0.908239
vt 0.116805 0.876997
vt 0.005788 0.876997
vt 0.116805 0.845755
vt 0.005788 0.845755
vt 0.116805 0.814512
vt 0.429108 0.343810
vt 0.627129 -0.026661
vt 0.997600 0.171360
vt 0.005788 0.814512
vt 0.116805 0.783270
vt 0.005788 0.783270
vt 0.941328 0.066677
vt 0.899952 0.486768
vt 0.479861 0.445392
vt 0.005783 0.002210
vt 0.799579 0.541831
vt 0.742468 0.553191
vt 0.684239 0.553191
vt 0.627129 0.541831
vt 0.573332 0.519548
vt 0.524917 0.487198
vt 0.483742 0.446023
vt 0.451391 0.397607
vt 0.417748 0.286700
vt 0.417748 0.228470
vt 0.429108 0.171360
vt 0.451391 0.117563
vt 0.483742 0.069147
vt 0.524916 0.027973
vt 0.573332 -0.004378
vt 0.684239 -0.038021
vt 0.742469 -0.038021
vt 0.799579 -0.026662
vt 0.853376 -0.004378
vt 0.901791 0.027972
vt 0.942966 0.069147
vt 0.975317 0.117563
vt 1.008960 0.228470
vt 1.008960 0.286700
vt 0.997600 0.343810
vt 0.975317 0.397607
vt 0.942967 0.446022
vt 0.901792 0.487197
vt 0.853376 0.519548
vt 0.521237 0.025301
vt 0.569889 -0.007207
vt 0.623949 -0.029599
vt 0.681337 -0.041015
vt 0.739852 -0.041015
vt 0.797241 -0.029599
vt 0.851301 -0.007207
vt 0.899953 0.025301
vt 0.973836 0.115329
vt 0.996228 0.169388
vt 1.007644 0.226778
vt 1.007644 0.285292
vt 0.996228 0.342681
vt 0.973836 0.396741
vt 0.941328 0.445392
vt 0.851300 0.519276
vt 0.797240 0.541669
vt 0.739851 0.553084
vt 0.681337 0.553084
vt 0.623948 0.541668
vt 0.569888 0.519276
vt 0.521237 0.486768
vt 0.447353 0.396740
vt 0.424960 0.342680
vt 0.413545 0.285291
vt 0.413545 0.226777
vt 0.424961 0.169388
vt 0.447353 0.115328
vt 0.479861 0.066677
vn 0.0000 -0.0980 -0.9952
vn 0.0000 -0.2903 -0.9569
vn 0.0000 -0.4714 -0.8819
vn 0.0000 -0.6344 -0.7730
vn 0.0000 -0.7730 -0.6344
vn 0.0000 -0.8819 -0.4714
vn 0.0000 -0.9569 -0.2903
vn 0.0000 -0.9952 -0.0980
vn 0.0000 -0.9952 0.0980
vn 0.0000 -0.9569 0.2903
vn 0.0000 -0.8819 0.4714
vn 0.0000 -0.7730 0.6344
vn 0.0000 -0.6344 0.7730
vn 0.0000 -0.4714 0.8819
vn 0.0000 -0.2903 0.9569
vn 0.0000 -0.0980 0.9952
vn 0.0000 0.0980 0.9952
vn 0.0000 0.2903 0.9569
vn 0.0000 0.4714 0.8819
vn -0.0000 0.6344 0.7730
vn -0.0000 0.7730 0.6344
vn -0.0000 0.8819 0.4714
vn -0.0000 0.9569 0.2903
vn -0.0000 0.9952 0.0980
vn -0.0000 0.9952 -0.0980
vn -0.0000 0.9569 -0.2903
vn -0.0000 0.8819 -0.4714
vn -0.0000 0.7730 -0.6344
vn -0.0000 0.6344 -0.7730
vn -0.0000 0.4714 -0.8819
vn 1.0000 0.0000 0.0000
vn 0.0000 0.2903 -0.9569
vn 0.0000 0.0980 -0.9952
vn -1.0000 -0.0000 -0.0000
usemtl Material
s off
f 2/1/1 3/2/1 1/3/1
f 4/4/2 5/5/2 3/2/2
f 6/6/3 7/7/3 5/5/3
f 8/8/4 9/9/4 7/7/4
f 10/10/5 11/11/5 9/9/5
f 12/12/6 13/13/6 11/11/6
f 14/14/7 15/15/7 13/13/7
f 16/16/8 17/17/8 15/15/8
f 18/18/9 19/19/9 17/17/9
f 20/20/10 21/21/10 19/19/10
f 22/22/11 23/23/11 21/21/11
f 24/24/12 25/25/12 23/23/12
f 26/26/13 27/27/13 25/25/13
f 28/28/14 29/29/14 27/27/14
f 30/30/15 31/31/15 29/29/15
f 32/32/16 33/33/16 31/31/16
f 34/34/17 35/35/17 33/33/17
f 36/36/18 37/37/18 35/35/18
f 38/38/19 39/39/19 37/37/19
f 40/40/20 41/41/20 39/39/20
f 42/42/21 43/43/21 41/41/21
f 44/44/22 45/45/22 43/43/22
f 46/46/23 47/47/23 45/45/23
f 48/48/24 49/49/24 47/47/24
f 50/50/25 51/51/25 49/52/25
f 52/53/26 53/54/26 51/51/26
f 54/55/27 55/56/27 53/54/27
f 56/57/28 57/58/28 55/56/28
f 58/59/29 59/60/29 57/58/29
f 60/61/30 61/62/30 59/60/30
f 54/63/31 38/64/31 22/65/31
f 62/66/32 63/67/32 61/62/32
f 64/68/33 1/3/33 63/67/33
f 15/69/34 31/70/34 47/71/34
f 2/1/1 4/4/1 3/2/1
f 4/4/2 6/6/2 5/5/2
f 6/6/3 8/8/3 7/7/3
f 8/8/4 10/10/4 9/9/4
f 10/10/5 12/12/5 11/11/5
f 12/12/6 14/14/6 13/13/6
f 14/14/7 16/16/7 15/15/7
f 16/16/8 18/18/8 17/17/8
f 18/18/9 20/20/9 19/19/9
f 20/20/10 22/22/10 21/21/10
f 22/22/11 24/24/11 23/23/11
f 24/24/12 26/26/12 25/25/12
f 26/26/13 28/28/13 27/27/13
f 28/28/14 30/30/14 29/29/14
f 30/30/15 32/32/15 31/31/15
f 32/32/16 34/34/16 33/33/16
f 34/34/17 36/36/17 35/35/17
f 36/36/18 38/38/18 37/37/18
f 38/38/19 40/40/19 39/39/19
f 40/40/20 42/42/20 41/41/20
f 42/42/21 44/44/21 43/43/21
f 44/44/22 46/46/22 45/45/22
f 46/46/23 48/48/23 47/47/23
f 48/48/24 50/72/24 49/49/24
f 50/50/25 52/53/25 51/51/25
f 52/53/26 54/55/26 53/54/26
f 54/55/27 56/57/27 55/56/27
f 56/57/28 58/59/28 57/58/28
f 58/59/29 60/61/29 59/60/29
f 60/61/30 62/66/30 61/62/30
f 6/73/31 4/74/31 2/75/31
f 2/75/31 64/76/31 6/73/31
f 64/76/31 62/77/31 6/73/31
f 62/77/31 60/78/31 58/79/31
f 58/79/31 56/80/31 54/63/31
f 54/63/31 52/81/31 50/82/31
f 50/82/31 48/83/31 54/63/31
f 48/83/31 46/84/31 54/63/31
f 46/84/31 44/85/31 38/64/31
f 44/85/31 42/86/31 38/64/31
f 42/86/31 40/87/31 38/64/31
f 38/64/31 36/88/31 34/89/31
f 34/89/31 32/90/31 30/91/31
f 30/91/31 28/92/31 26/93/31
f 26/93/31 24/94/31 22/65/31
f 22/65/31 20/95/31 18/96/31
f 18/96/31 16/97/31 22/65/31
f 16/97/31 14/98/31 22/65/31
f 14/98/31 12/99/31 10/100/31
f 10/100/31 8/101/31 6/73/31
f 62/77/31 58/79/31 6/73/31
f 58/79/31 54/63/31 6/73/31
f 38/64/31 34/89/31 22/65/31
f 34/89/31 30/91/31 22/65/31
f 30/91/31 26/93/31 22/65/31
f 14/98/31 10/100/31 22/65/31
f 10/100/31 6/73/31 22/65/31
f 54/63/31 46/84/31 38/64/31
f 6/73/31 54/63/31 22/65/31
f 62/66/32 64/68/32 63/67/32
f 64/68/33 2/1/33 1/3/33
f 63/102/34 1/103/34 3/104/34
f 3/104/34 5/105/34 7/106/34
f 7/106/34 9/107/34 11/108/34
f 11/108/34 13/109/34 7/106/34
f 13/109/34 15/69/34 7/106/34
f 15/69/34 17/110/34 19/111/34
f 19/111/34 21/112/34 15/69/34
f 21/112/34 23/113/34 15/69/34
f 23/113/34 25/114/34 31/70/34
f 25/114/34 27/115/34 31/70/34
f 27/115/34 29/116/34 31/70/34
f 31/70/34 33/117/34 35/118/34
f 35/118/34 37/119/34 39/120/34
f 39/120/34 41/121/34 43/122/34
f 43/122/34 45/123/34 47/71/34
f 47/71/34 49/124/34 51/125/34
f 51/125/34 53/126/34 55/127/34
f 55/127/34 57/128/34 63/102/34
f 57/128/34 59/129/34 63/102/34
f 59/129/34 61/130/34 63/102/34
f 63/102/34 3/104/34 7/106/34
f 31/70/34 35/118/34 47/71/34
f 35/118/34 39/120/34 47/71/34
f 39/120/34 43/122/34 47/71/34
f 47/71/34 51/125/34 63/102/34
f 51/125/34 55/127/34 63/102/34
f 63/102/34 7/106/34 15/69/34
f 15/69/34 23/113/34 31/70/34
f 63/102/34 15/69/34 47/71/34
